%TF.GenerationSoftware,KiCad,Pcbnew,8.0.8-8.0.8-0~ubuntu22.04.1*%
%TF.CreationDate,2025-04-02T13:33:07+02:00*%
%TF.ProjectId,desk_display,6465736b-5f64-4697-9370-6c61792e6b69,rev?*%
%TF.SameCoordinates,Original*%
%TF.FileFunction,Soldermask,Top*%
%TF.FilePolarity,Negative*%
%FSLAX46Y46*%
G04 Gerber Fmt 4.6, Leading zero omitted, Abs format (unit mm)*
G04 Created by KiCad (PCBNEW 8.0.8-8.0.8-0~ubuntu22.04.1) date 2025-04-02 13:33:07*
%MOMM*%
%LPD*%
G01*
G04 APERTURE LIST*
G04 Aperture macros list*
%AMRoundRect*
0 Rectangle with rounded corners*
0 $1 Rounding radius*
0 $2 $3 $4 $5 $6 $7 $8 $9 X,Y pos of 4 corners*
0 Add a 4 corners polygon primitive as box body*
4,1,4,$2,$3,$4,$5,$6,$7,$8,$9,$2,$3,0*
0 Add four circle primitives for the rounded corners*
1,1,$1+$1,$2,$3*
1,1,$1+$1,$4,$5*
1,1,$1+$1,$6,$7*
1,1,$1+$1,$8,$9*
0 Add four rect primitives between the rounded corners*
20,1,$1+$1,$2,$3,$4,$5,0*
20,1,$1+$1,$4,$5,$6,$7,0*
20,1,$1+$1,$6,$7,$8,$9,0*
20,1,$1+$1,$8,$9,$2,$3,0*%
G04 Aperture macros list end*
%ADD10C,0.000000*%
%ADD11RoundRect,0.200000X0.275000X-0.200000X0.275000X0.200000X-0.275000X0.200000X-0.275000X-0.200000X0*%
%ADD12RoundRect,0.200000X-0.275000X0.200000X-0.275000X-0.200000X0.275000X-0.200000X0.275000X0.200000X0*%
%ADD13RoundRect,0.200000X-0.200000X-0.275000X0.200000X-0.275000X0.200000X0.275000X-0.200000X0.275000X0*%
%ADD14R,0.600000X1.550000*%
%ADD15R,1.500000X2.000000*%
%ADD16R,1.550000X0.600000*%
%ADD17R,2.000000X1.500000*%
%ADD18C,3.800000*%
%ADD19R,0.600000X0.600000*%
%ADD20RoundRect,0.225000X-0.225000X-0.250000X0.225000X-0.250000X0.225000X0.250000X-0.225000X0.250000X0*%
%ADD21R,3.800000X2.000000*%
%ADD22O,0.570000X2.390000*%
%ADD23R,1.500000X0.900000*%
%ADD24R,0.700000X0.700000*%
%ADD25RoundRect,0.200000X0.200000X0.275000X-0.200000X0.275000X-0.200000X-0.275000X0.200000X-0.275000X0*%
%ADD26RoundRect,0.243750X-0.456250X0.243750X-0.456250X-0.243750X0.456250X-0.243750X0.456250X0.243750X0*%
%ADD27RoundRect,0.225000X0.225000X0.250000X-0.225000X0.250000X-0.225000X-0.250000X0.225000X-0.250000X0*%
%ADD28C,0.600000*%
%ADD29R,1.160000X0.600000*%
%ADD30R,1.160000X0.300000*%
%ADD31O,2.000000X0.900000*%
%ADD32O,1.700000X0.900000*%
G04 APERTURE END LIST*
D10*
%TO.C,G\u002A\u002A\u002A*%
G36*
X212193623Y-98313902D02*
G01*
X212222092Y-98334072D01*
X212269737Y-98367787D01*
X212327139Y-98408379D01*
X212389462Y-98452426D01*
X212451873Y-98496512D01*
X212629702Y-98622088D01*
X212614198Y-98668997D01*
X212611455Y-98677496D01*
X212601765Y-98708026D01*
X212586291Y-98757065D01*
X212565661Y-98822603D01*
X212540506Y-98902635D01*
X212511452Y-98995154D01*
X212479130Y-99098152D01*
X212444167Y-99209622D01*
X212407192Y-99327557D01*
X212368834Y-99449950D01*
X212329721Y-99574795D01*
X212290483Y-99700082D01*
X212251747Y-99823807D01*
X212214143Y-99943961D01*
X212178299Y-100058538D01*
X212144844Y-100165530D01*
X212114406Y-100262930D01*
X212087615Y-100348732D01*
X212065098Y-100420927D01*
X212047484Y-100477510D01*
X212035403Y-100516472D01*
X212029482Y-100535807D01*
X212015510Y-100582823D01*
X212266947Y-101147840D01*
X212518383Y-101712857D01*
X212518383Y-102194672D01*
X212518383Y-102676488D01*
X211711493Y-102677909D01*
X211607508Y-102678115D01*
X211478929Y-102678438D01*
X211358361Y-102678815D01*
X211247644Y-102679236D01*
X211148617Y-102679693D01*
X211063121Y-102680176D01*
X210992996Y-102680674D01*
X210940080Y-102681179D01*
X210906214Y-102681681D01*
X210893238Y-102682170D01*
X210884693Y-102682523D01*
X210854855Y-102682975D01*
X210805277Y-102683432D01*
X210737620Y-102683887D01*
X210653542Y-102684334D01*
X210554705Y-102684764D01*
X210442768Y-102685172D01*
X210319390Y-102685550D01*
X210186232Y-102685891D01*
X210044953Y-102686187D01*
X209897214Y-102686432D01*
X208912555Y-102687853D01*
X208920170Y-102974810D01*
X208921017Y-103006652D01*
X208923479Y-103098637D01*
X208926357Y-103205524D01*
X208929500Y-103321753D01*
X208932758Y-103441765D01*
X208935980Y-103559999D01*
X208939016Y-103670895D01*
X208940899Y-103740373D01*
X208943357Y-103832513D01*
X208946264Y-103942647D01*
X208949558Y-104068365D01*
X208953176Y-104207259D01*
X208957056Y-104356918D01*
X208961136Y-104514935D01*
X208965352Y-104678900D01*
X208969644Y-104846404D01*
X208973947Y-105015038D01*
X208978200Y-105182394D01*
X208978965Y-105212506D01*
X208983092Y-105374245D01*
X208987183Y-105533147D01*
X208991185Y-105687223D01*
X208995045Y-105834485D01*
X208998708Y-105972945D01*
X209002123Y-106100614D01*
X209005237Y-106215503D01*
X209007995Y-106315625D01*
X209010345Y-106398989D01*
X209012234Y-106463609D01*
X209013608Y-106507495D01*
X209021062Y-106730224D01*
X208539410Y-106737644D01*
X208432778Y-106739319D01*
X208301546Y-106741451D01*
X208165351Y-106743727D01*
X208029730Y-106746052D01*
X207900221Y-106748332D01*
X207782363Y-106750471D01*
X207681693Y-106752374D01*
X207305630Y-106759683D01*
X207298204Y-106664282D01*
X207297702Y-106657701D01*
X207294185Y-106603235D01*
X207291683Y-106550121D01*
X207290711Y-106509001D01*
X207290341Y-106481904D01*
X207287549Y-106460550D01*
X207279928Y-106453069D01*
X207265072Y-106454334D01*
X207261172Y-106454852D01*
X207236157Y-106456501D01*
X207192552Y-106458404D01*
X207133391Y-106460463D01*
X207061703Y-106462578D01*
X206980523Y-106464648D01*
X206892880Y-106466575D01*
X206546258Y-106473601D01*
X205575654Y-106882196D01*
X205549488Y-106893210D01*
X205409829Y-106951944D01*
X205276501Y-107007933D01*
X205150964Y-107060568D01*
X205034679Y-107109241D01*
X204929108Y-107153341D01*
X204835712Y-107192260D01*
X204755952Y-107225389D01*
X204691289Y-107252119D01*
X204643185Y-107271840D01*
X204613100Y-107283945D01*
X204602495Y-107287823D01*
X204598642Y-107281787D01*
X204584655Y-107259107D01*
X204562374Y-107222685D01*
X204533790Y-107175774D01*
X204500890Y-107121628D01*
X204401839Y-106958401D01*
X204666210Y-106257914D01*
X204685187Y-106207669D01*
X204729838Y-106089729D01*
X204772007Y-105978741D01*
X204811003Y-105876496D01*
X204846138Y-105784784D01*
X204876724Y-105705396D01*
X204902071Y-105640123D01*
X204921490Y-105590755D01*
X204934292Y-105559082D01*
X204939788Y-105546896D01*
X204944338Y-105546601D01*
X204966843Y-105551646D01*
X205004414Y-105562649D01*
X205053100Y-105578226D01*
X205108950Y-105596991D01*
X205168014Y-105617557D01*
X205226341Y-105638540D01*
X205279981Y-105658553D01*
X205324982Y-105676213D01*
X205357394Y-105690131D01*
X205373266Y-105698924D01*
X205373516Y-105700797D01*
X205369471Y-105719782D01*
X205358885Y-105757091D01*
X205342499Y-105810398D01*
X205321053Y-105877380D01*
X205295287Y-105955712D01*
X205265941Y-106043068D01*
X205233756Y-106137124D01*
X205222528Y-106169697D01*
X205190983Y-106261750D01*
X205162281Y-106346287D01*
X205137196Y-106420983D01*
X205116498Y-106483513D01*
X205100960Y-106531553D01*
X205091353Y-106562777D01*
X205088449Y-106574861D01*
X205091454Y-106574332D01*
X205112128Y-106566644D01*
X205150960Y-106550783D01*
X205206248Y-106527485D01*
X205276286Y-106497487D01*
X205359368Y-106461525D01*
X205453791Y-106420334D01*
X205557850Y-106374651D01*
X205669839Y-106325213D01*
X205788054Y-106272755D01*
X206484526Y-105962914D01*
X206878234Y-105950409D01*
X206955340Y-105947869D01*
X207041645Y-105944793D01*
X207118361Y-105941805D01*
X207182863Y-105939021D01*
X207232523Y-105936553D01*
X207264716Y-105934518D01*
X207276816Y-105933029D01*
X207277081Y-105932221D01*
X207277908Y-105915512D01*
X207278109Y-105879605D01*
X207277716Y-105827394D01*
X207276758Y-105761774D01*
X207275267Y-105685639D01*
X207273274Y-105601885D01*
X207264857Y-105275616D01*
X206973745Y-105283356D01*
X206818736Y-105287438D01*
X206640151Y-105292013D01*
X206472260Y-105296145D01*
X206312026Y-105299891D01*
X206156410Y-105303307D01*
X206002373Y-105306451D01*
X205846877Y-105309378D01*
X205686883Y-105312146D01*
X205519354Y-105314811D01*
X205341249Y-105317430D01*
X205149532Y-105320060D01*
X204941163Y-105322757D01*
X204713103Y-105325579D01*
X204541862Y-105327561D01*
X204377599Y-105329258D01*
X204225463Y-105330619D01*
X204086631Y-105331639D01*
X203962283Y-105332316D01*
X203853595Y-105332645D01*
X203761745Y-105332624D01*
X203687910Y-105332249D01*
X203633269Y-105331516D01*
X203598999Y-105330421D01*
X203586277Y-105328962D01*
X203585768Y-105328277D01*
X203578616Y-105311928D01*
X203566065Y-105277854D01*
X203549322Y-105229526D01*
X203529593Y-105170420D01*
X203508087Y-105104009D01*
X203439541Y-104889248D01*
X203679976Y-104626694D01*
X203792846Y-104503461D01*
X203893344Y-104393794D01*
X203980373Y-104298899D01*
X204054872Y-104217763D01*
X204117778Y-104149374D01*
X204170030Y-104092718D01*
X204212566Y-104046783D01*
X204246324Y-104010554D01*
X204272243Y-103983020D01*
X204291260Y-103963167D01*
X204304313Y-103949981D01*
X204312342Y-103942450D01*
X204316283Y-103939561D01*
X204322944Y-103940736D01*
X204347179Y-103949828D01*
X204385095Y-103966090D01*
X204432869Y-103987689D01*
X204486678Y-104012792D01*
X204542699Y-104039563D01*
X204597109Y-104066171D01*
X204646086Y-104090779D01*
X204685807Y-104111556D01*
X204712449Y-104126667D01*
X204722190Y-104134278D01*
X204722159Y-104134454D01*
X204714473Y-104146182D01*
X204694308Y-104173549D01*
X204663220Y-104214533D01*
X204622765Y-104267111D01*
X204574498Y-104329260D01*
X204519976Y-104398957D01*
X204460754Y-104474180D01*
X204455997Y-104480204D01*
X204397293Y-104554801D01*
X204343572Y-104623501D01*
X204296360Y-104684320D01*
X204257182Y-104735275D01*
X204227565Y-104774383D01*
X204209033Y-104799660D01*
X204203114Y-104809123D01*
X204204348Y-104809276D01*
X204222658Y-104809423D01*
X204261593Y-104809058D01*
X204319548Y-104808217D01*
X204394919Y-104806938D01*
X204486099Y-104805255D01*
X204591484Y-104803207D01*
X204709467Y-104800829D01*
X204838444Y-104798159D01*
X204976808Y-104795232D01*
X205122955Y-104792085D01*
X205275279Y-104788756D01*
X205432175Y-104785280D01*
X205592037Y-104781694D01*
X205753260Y-104778035D01*
X205914238Y-104774339D01*
X206073367Y-104770643D01*
X206229039Y-104766984D01*
X206379651Y-104763397D01*
X206523597Y-104759920D01*
X206659271Y-104756589D01*
X206785068Y-104753441D01*
X206899382Y-104750513D01*
X207000608Y-104747840D01*
X207087141Y-104745460D01*
X207157375Y-104743409D01*
X207209705Y-104741724D01*
X207242526Y-104740441D01*
X207254231Y-104739596D01*
X207255300Y-104728626D01*
X207255317Y-104698163D01*
X207254320Y-104651782D01*
X207252470Y-104592990D01*
X207249928Y-104525297D01*
X207246856Y-104452209D01*
X207243416Y-104377236D01*
X207239768Y-104303886D01*
X207236075Y-104235666D01*
X207232497Y-104176086D01*
X207229197Y-104128652D01*
X207226335Y-104096874D01*
X207224073Y-104084260D01*
X207223974Y-104084204D01*
X207210667Y-104081888D01*
X207176046Y-104076961D01*
X207121282Y-104069569D01*
X207047545Y-104059862D01*
X206956004Y-104047987D01*
X206847831Y-104034094D01*
X206724195Y-104018330D01*
X206586266Y-104000845D01*
X206435215Y-103981785D01*
X206272213Y-103961301D01*
X206098428Y-103939539D01*
X205915032Y-103916649D01*
X205723194Y-103892779D01*
X205524085Y-103868077D01*
X205318875Y-103842691D01*
X205310071Y-103841603D01*
X205104630Y-103816197D01*
X204905069Y-103791467D01*
X204712581Y-103767562D01*
X204528356Y-103744633D01*
X204353585Y-103722830D01*
X204189460Y-103702301D01*
X204037173Y-103683199D01*
X203897914Y-103665671D01*
X203772875Y-103649869D01*
X203663247Y-103635942D01*
X203570222Y-103624040D01*
X203494991Y-103614314D01*
X203438745Y-103606912D01*
X203402675Y-103601985D01*
X203387974Y-103599683D01*
X203378928Y-103596801D01*
X203367828Y-103590037D01*
X203357254Y-103577312D01*
X203345621Y-103555520D01*
X203331346Y-103521555D01*
X203312845Y-103472310D01*
X203288533Y-103404678D01*
X203270465Y-103353643D01*
X203251165Y-103298291D01*
X203235844Y-103253388D01*
X203225740Y-103222579D01*
X203222097Y-103209509D01*
X203222131Y-103209376D01*
X203231322Y-103199433D01*
X203255792Y-103175625D01*
X203294099Y-103139294D01*
X203344800Y-103091782D01*
X203406452Y-103034432D01*
X203477612Y-102968587D01*
X203556837Y-102895588D01*
X203642685Y-102816779D01*
X203733711Y-102733501D01*
X204245326Y-102266224D01*
X204443049Y-102371178D01*
X204640772Y-102476132D01*
X204573894Y-102556422D01*
X204570921Y-102559987D01*
X204544031Y-102592100D01*
X204505455Y-102638009D01*
X204457783Y-102694639D01*
X204403607Y-102758915D01*
X204345517Y-102827760D01*
X204286103Y-102898099D01*
X204264911Y-102923245D01*
X204211763Y-102986978D01*
X204164752Y-103044307D01*
X204125606Y-103093060D01*
X204096056Y-103131065D01*
X204077830Y-103156150D01*
X204072659Y-103166143D01*
X204076006Y-103166790D01*
X204098810Y-103169795D01*
X204141822Y-103174971D01*
X204203463Y-103182143D01*
X204282159Y-103191142D01*
X204376331Y-103201792D01*
X204484403Y-103213924D01*
X204604799Y-103227363D01*
X204735940Y-103241938D01*
X204876251Y-103257477D01*
X205024156Y-103273807D01*
X205178075Y-103290756D01*
X205336435Y-103308151D01*
X205497656Y-103325820D01*
X205660163Y-103343591D01*
X205822379Y-103361291D01*
X205982726Y-103378748D01*
X206139629Y-103395790D01*
X206291510Y-103412245D01*
X206436792Y-103427939D01*
X206573899Y-103442702D01*
X206701254Y-103456359D01*
X206817280Y-103468740D01*
X206920401Y-103479671D01*
X207009039Y-103488981D01*
X207081617Y-103496496D01*
X207136559Y-103502046D01*
X207172289Y-103505457D01*
X207187228Y-103506556D01*
X207188791Y-103506281D01*
X207193246Y-103501217D01*
X207196403Y-103487929D01*
X207198327Y-103464003D01*
X207199081Y-103427023D01*
X207198728Y-103374577D01*
X207197334Y-103304248D01*
X207194960Y-103213623D01*
X207192921Y-103142873D01*
X207190711Y-103070898D01*
X207188681Y-103009574D01*
X207186938Y-102961920D01*
X207185585Y-102930952D01*
X207184728Y-102919688D01*
X207184658Y-102919657D01*
X207172406Y-102915292D01*
X207139887Y-102903838D01*
X207088210Y-102885685D01*
X207018483Y-102861220D01*
X206931816Y-102830832D01*
X206829316Y-102794910D01*
X206712093Y-102753841D01*
X206581255Y-102708014D01*
X206437911Y-102657817D01*
X206283170Y-102603639D01*
X206118141Y-102545868D01*
X205943932Y-102484893D01*
X205761652Y-102421101D01*
X205572411Y-102354882D01*
X205377316Y-102286623D01*
X205363909Y-102281932D01*
X205169116Y-102213762D01*
X204980222Y-102147620D01*
X204798340Y-102083898D01*
X204624580Y-102022986D01*
X204460054Y-101965275D01*
X204305872Y-101911155D01*
X204163146Y-101861017D01*
X204032988Y-101815253D01*
X203916508Y-101774251D01*
X203814817Y-101738404D01*
X203729028Y-101708102D01*
X203660250Y-101683736D01*
X203609596Y-101665696D01*
X203578176Y-101654373D01*
X203567101Y-101650157D01*
X203566300Y-101647618D01*
X203563205Y-101627426D01*
X203558817Y-101590981D01*
X203553577Y-101542800D01*
X203547928Y-101487401D01*
X203542310Y-101429302D01*
X203537165Y-101373021D01*
X203532936Y-101323076D01*
X203530063Y-101283985D01*
X203528989Y-101260267D01*
X203529284Y-101257953D01*
X203533063Y-101251591D01*
X203542428Y-101243711D01*
X203558931Y-101233621D01*
X203584122Y-101220628D01*
X203619555Y-101204038D01*
X203666781Y-101183161D01*
X203727351Y-101157303D01*
X203802818Y-101125771D01*
X203894732Y-101087874D01*
X204004645Y-101042919D01*
X204134110Y-100990213D01*
X204222701Y-100954253D01*
X204329021Y-100911243D01*
X204427627Y-100871514D01*
X204516616Y-100835824D01*
X204594082Y-100804932D01*
X204658122Y-100779597D01*
X204706831Y-100760579D01*
X204738306Y-100748634D01*
X204750643Y-100744524D01*
X204755209Y-100747972D01*
X204771352Y-100766614D01*
X204796122Y-100798368D01*
X204827048Y-100839754D01*
X204861658Y-100887294D01*
X204897478Y-100937510D01*
X204932038Y-100986923D01*
X204962865Y-101032054D01*
X204987486Y-101069426D01*
X205003431Y-101095558D01*
X205008226Y-101106974D01*
X204998242Y-101113385D01*
X204970582Y-101128833D01*
X204927957Y-101151820D01*
X204873054Y-101180911D01*
X204808556Y-101214674D01*
X204737151Y-101251675D01*
X204667220Y-101288118D01*
X204604242Y-101321682D01*
X204551471Y-101350584D01*
X204511423Y-101373422D01*
X204486617Y-101388791D01*
X204479568Y-101395289D01*
X204489416Y-101399121D01*
X204519477Y-101410297D01*
X204568426Y-101428307D01*
X204634964Y-101452680D01*
X204717791Y-101482941D01*
X204815610Y-101518618D01*
X204927121Y-101559238D01*
X205051025Y-101604328D01*
X205186024Y-101653414D01*
X205330818Y-101706023D01*
X205484109Y-101761683D01*
X205644597Y-101819919D01*
X205810984Y-101880260D01*
X205961938Y-101934989D01*
X206123268Y-101993485D01*
X206277612Y-102049454D01*
X206423663Y-102102421D01*
X206560113Y-102151912D01*
X206685654Y-102197451D01*
X206798979Y-102238566D01*
X206898781Y-102274781D01*
X206983752Y-102305621D01*
X207052584Y-102330614D01*
X207103969Y-102349284D01*
X207136602Y-102361157D01*
X207149172Y-102365758D01*
X207153345Y-102366573D01*
X207159527Y-102361262D01*
X207163277Y-102343773D01*
X207165132Y-102310593D01*
X207165632Y-102258211D01*
X207165632Y-102144347D01*
X207208249Y-102138155D01*
X207209863Y-102138008D01*
X207230486Y-102137343D01*
X207272466Y-102136635D01*
X207334686Y-102135890D01*
X207416034Y-102135113D01*
X207515393Y-102134312D01*
X207631650Y-102133492D01*
X207763689Y-102132659D01*
X207910397Y-102131820D01*
X208070657Y-102130981D01*
X208243356Y-102130148D01*
X208427379Y-102129326D01*
X208621611Y-102128523D01*
X208824938Y-102127744D01*
X209036245Y-102126996D01*
X209254416Y-102126285D01*
X209478339Y-102125616D01*
X209518352Y-102125501D01*
X209742561Y-102124818D01*
X209961440Y-102124088D01*
X210173831Y-102123317D01*
X210378573Y-102122512D01*
X210574506Y-102121679D01*
X210760470Y-102120824D01*
X210935305Y-102119955D01*
X211097852Y-102119078D01*
X211246949Y-102118198D01*
X211381437Y-102117323D01*
X211500157Y-102116460D01*
X211601947Y-102115614D01*
X211685648Y-102114792D01*
X211750100Y-102114001D01*
X211794142Y-102113246D01*
X211816616Y-102112536D01*
X211927421Y-102105804D01*
X211927421Y-101921340D01*
X211927421Y-101736876D01*
X211677455Y-101181022D01*
X211654013Y-101128829D01*
X211607930Y-101025839D01*
X211565204Y-100929842D01*
X211526694Y-100842798D01*
X211493259Y-100766665D01*
X211465756Y-100703404D01*
X211445045Y-100654973D01*
X211431985Y-100623333D01*
X211427433Y-100610442D01*
X211429731Y-100601712D01*
X211438763Y-100572808D01*
X211454094Y-100525542D01*
X211475142Y-100461660D01*
X211501322Y-100382910D01*
X211532053Y-100291038D01*
X211566750Y-100187792D01*
X211604832Y-100074919D01*
X211645714Y-99954165D01*
X211688815Y-99827279D01*
X211724042Y-99723589D01*
X211765177Y-99602124D01*
X211803532Y-99488445D01*
X211838536Y-99384267D01*
X211869618Y-99291306D01*
X211896206Y-99211276D01*
X211917728Y-99145893D01*
X211933613Y-99096871D01*
X211943290Y-99065928D01*
X211946187Y-99054776D01*
X211944270Y-99055854D01*
X211927684Y-99068104D01*
X211895108Y-99093197D01*
X211847754Y-99130172D01*
X211786836Y-99178069D01*
X211713565Y-99235927D01*
X211629157Y-99302787D01*
X211534822Y-99377688D01*
X211431775Y-99459670D01*
X211321229Y-99547773D01*
X211204396Y-99641036D01*
X211082489Y-99738499D01*
X211029884Y-99780573D01*
X210909797Y-99876504D01*
X210795197Y-99967894D01*
X210687309Y-100053773D01*
X210587357Y-100133175D01*
X210496565Y-100205131D01*
X210416157Y-100268672D01*
X210347358Y-100322832D01*
X210291391Y-100366641D01*
X210249481Y-100399132D01*
X210222852Y-100419337D01*
X210212729Y-100426287D01*
X210211969Y-100425956D01*
X210200432Y-100413979D01*
X210177523Y-100386467D01*
X210145052Y-100345716D01*
X210104828Y-100294021D01*
X210058658Y-100233677D01*
X210008352Y-100166978D01*
X209814103Y-99907670D01*
X210012352Y-99443050D01*
X210043084Y-99370873D01*
X210081934Y-99279154D01*
X210117095Y-99195607D01*
X210147687Y-99122349D01*
X210172831Y-99061502D01*
X210191647Y-99015183D01*
X210203256Y-98985511D01*
X210206778Y-98974607D01*
X210197306Y-98976756D01*
X210168211Y-98985288D01*
X210121622Y-98999620D01*
X210059682Y-99019076D01*
X209984533Y-99042976D01*
X209898316Y-99070644D01*
X209803173Y-99101401D01*
X209701247Y-99134570D01*
X209199539Y-99298356D01*
X209074710Y-99090635D01*
X209061577Y-99068727D01*
X209025950Y-99008716D01*
X208995259Y-98956177D01*
X208971220Y-98914099D01*
X208955548Y-98885470D01*
X208949959Y-98873281D01*
X208953529Y-98871510D01*
X208975698Y-98863486D01*
X209016419Y-98849715D01*
X209073695Y-98830828D01*
X209145525Y-98807456D01*
X209229912Y-98780228D01*
X209324858Y-98749777D01*
X209428363Y-98716731D01*
X209538429Y-98681721D01*
X209653058Y-98645378D01*
X209770250Y-98608333D01*
X209888009Y-98571215D01*
X210004334Y-98534655D01*
X210117227Y-98499285D01*
X210224690Y-98465733D01*
X210324725Y-98434631D01*
X210415332Y-98406609D01*
X210494514Y-98382298D01*
X210560271Y-98362328D01*
X210610606Y-98347329D01*
X210643518Y-98337933D01*
X210657011Y-98334768D01*
X210661597Y-98338086D01*
X210679373Y-98355597D01*
X210707615Y-98385585D01*
X210743612Y-98425149D01*
X210784651Y-98471386D01*
X210827434Y-98520578D01*
X210860159Y-98559738D01*
X210881242Y-98587722D01*
X210892623Y-98607403D01*
X210896240Y-98621649D01*
X210894031Y-98633332D01*
X210892709Y-98636616D01*
X210883419Y-98659263D01*
X210866737Y-98699677D01*
X210843654Y-98755469D01*
X210815159Y-98824253D01*
X210782240Y-98903639D01*
X210745886Y-98991241D01*
X210707087Y-99084671D01*
X210691698Y-99121774D01*
X210654578Y-99211772D01*
X210620868Y-99294208D01*
X210591464Y-99366847D01*
X210567260Y-99427456D01*
X210549150Y-99473801D01*
X210538031Y-99503649D01*
X210534795Y-99514764D01*
X210543186Y-99509172D01*
X210568100Y-99490340D01*
X210608258Y-99459215D01*
X210662393Y-99416801D01*
X210729238Y-99364099D01*
X210807526Y-99302115D01*
X210895989Y-99231851D01*
X210993361Y-99154311D01*
X211098373Y-99070499D01*
X211209759Y-98981417D01*
X211326252Y-98888070D01*
X212113202Y-98256869D01*
X212193623Y-98313902D01*
G37*
%TD*%
D11*
%TO.C,R11*%
X179600000Y-114750000D03*
X179600000Y-113100000D03*
%TD*%
D12*
%TO.C,R10*%
X171800000Y-108575000D03*
X171800000Y-110225000D03*
%TD*%
D13*
%TO.C,R9*%
X173875000Y-113300000D03*
X175525000Y-113300000D03*
%TD*%
D14*
%TO.C,H7*%
X198700000Y-91080000D03*
X197700000Y-91080000D03*
X196700000Y-91080000D03*
D15*
X195400000Y-87200000D03*
X200000000Y-87200000D03*
%TD*%
D16*
%TO.C,H1*%
X214932500Y-110900000D03*
X214932500Y-109900000D03*
X214932500Y-108900000D03*
D17*
X218812500Y-107600000D03*
X218812500Y-112200000D03*
%TD*%
D18*
%TO.C,REF\u002A\u002A*%
X207200000Y-119200000D03*
%TD*%
D13*
%TO.C,R4*%
X153680000Y-99775000D03*
X155330000Y-99775000D03*
%TD*%
D19*
%TO.C,C1*%
X158700000Y-92600000D03*
X157700000Y-92600000D03*
%TD*%
%TO.C,C1*%
X184700000Y-92600000D03*
X183700000Y-92600000D03*
%TD*%
D14*
%TO.C,H14*%
X153200000Y-91080000D03*
X152200000Y-91080000D03*
X151200000Y-91080000D03*
D15*
X149900000Y-87200000D03*
X154500000Y-87200000D03*
%TD*%
D19*
%TO.C,C1*%
X164100000Y-92600000D03*
X165100000Y-92600000D03*
%TD*%
%TO.C,C1*%
X178100000Y-92600000D03*
X177100000Y-92600000D03*
%TD*%
D14*
%TO.C,H4*%
X218200000Y-91080000D03*
X217200000Y-91080000D03*
X216200000Y-91080000D03*
D15*
X214900000Y-87200000D03*
X219500000Y-87200000D03*
%TD*%
D19*
%TO.C,C1*%
X213372500Y-103400000D03*
X213372500Y-102400000D03*
%TD*%
D14*
%TO.C,H15*%
X146700000Y-91080000D03*
X145700000Y-91080000D03*
X144700000Y-91080000D03*
D15*
X143400000Y-87200000D03*
X148000000Y-87200000D03*
%TD*%
D14*
%TO.C,H10*%
X179200000Y-91080000D03*
X178200000Y-91080000D03*
X177200000Y-91080000D03*
D15*
X175900000Y-87200000D03*
X180500000Y-87200000D03*
%TD*%
D19*
%TO.C,C1*%
X171700000Y-92600000D03*
X170700000Y-92600000D03*
%TD*%
D11*
%TO.C,R6*%
X182300000Y-111825000D03*
X182300000Y-110175000D03*
%TD*%
%TO.C,R1*%
X163000000Y-119050000D03*
X163000000Y-117400000D03*
%TD*%
D19*
%TO.C,C1*%
X191211159Y-92608076D03*
X190211159Y-92608076D03*
%TD*%
D20*
%TO.C,C2*%
X167275000Y-118700000D03*
X168825000Y-118700000D03*
%TD*%
D14*
%TO.C,H12*%
X166200000Y-91080000D03*
X164200000Y-91080000D03*
X165200000Y-91080000D03*
D15*
X162900000Y-87200000D03*
X167500000Y-87200000D03*
%TD*%
D19*
%TO.C,C2*%
X213372500Y-109900000D03*
X213372500Y-108900000D03*
%TD*%
%TO.C,C3*%
X213200000Y-116400000D03*
X213200000Y-115400000D03*
%TD*%
%TO.C,C1*%
X210700000Y-92600000D03*
X209700000Y-92600000D03*
%TD*%
D15*
%TO.C,U2*%
X168100000Y-106400000D03*
X165800000Y-106400000D03*
D21*
X165800000Y-112700000D03*
D15*
X163500000Y-106400000D03*
%TD*%
D22*
%TO.C,U3*%
X184320000Y-107780000D03*
X185590000Y-107780000D03*
X186860000Y-107780000D03*
X188130000Y-107780000D03*
X189400000Y-107780000D03*
X190680000Y-107780000D03*
X191940000Y-107780000D03*
X193210000Y-107780000D03*
X194480000Y-107780000D03*
X195750000Y-107780000D03*
X197020000Y-107780000D03*
X198300000Y-107780000D03*
X198300000Y-98300000D03*
X197020000Y-98300000D03*
X195750000Y-98300000D03*
X194480000Y-98300000D03*
X193210000Y-98300000D03*
X191940000Y-98300000D03*
X190680000Y-98300000D03*
X189400000Y-98300000D03*
X188130000Y-98300000D03*
X186860000Y-98300000D03*
X185590000Y-98300000D03*
X184320000Y-98300000D03*
%TD*%
D13*
%TO.C,R8*%
X176950000Y-116700000D03*
X178600000Y-116700000D03*
%TD*%
D23*
%TO.C,U1*%
X159850000Y-120475000D03*
X159850000Y-118975000D03*
X159850000Y-117475000D03*
X159850000Y-115975000D03*
X159850000Y-114475000D03*
X159850000Y-112975000D03*
X159850000Y-111475000D03*
X159850000Y-109975000D03*
X159850000Y-108475000D03*
X142350000Y-108475000D03*
X142350000Y-109975000D03*
X142350000Y-111475000D03*
X142350000Y-112975000D03*
X142350000Y-114475000D03*
X142350000Y-115975000D03*
X142350000Y-117475000D03*
X142350000Y-118975000D03*
X142350000Y-120475000D03*
D24*
X151240000Y-115375000D03*
X151240000Y-114275000D03*
X151240000Y-113175000D03*
X150190000Y-115375000D03*
X150190000Y-114275000D03*
X150190000Y-113175000D03*
X149040000Y-115375000D03*
X149040000Y-114275000D03*
X149040000Y-113175000D03*
%TD*%
D19*
%TO.C,C1*%
X217200000Y-92600000D03*
X216200000Y-92600000D03*
%TD*%
D14*
%TO.C,H5*%
X211700000Y-91080000D03*
X210700000Y-91080000D03*
X209700000Y-91080000D03*
D15*
X208400000Y-87200000D03*
X213000000Y-87200000D03*
%TD*%
D14*
%TO.C,U4*%
X173590000Y-110000000D03*
X177400000Y-104600000D03*
X176130000Y-104600000D03*
X174860000Y-104600000D03*
X173590000Y-104600000D03*
X174860000Y-110000000D03*
X176130000Y-110000000D03*
X177400000Y-110000000D03*
%TD*%
%TO.C,H13*%
X159700000Y-91080000D03*
X158700000Y-91080000D03*
X157700000Y-91080000D03*
D15*
X156400000Y-87200000D03*
X161000000Y-87200000D03*
%TD*%
D25*
%TO.C,R5*%
X155330000Y-98275000D03*
X153680000Y-98275000D03*
%TD*%
D20*
%TO.C,C1*%
X167250000Y-120500000D03*
X168800000Y-120500000D03*
%TD*%
D19*
%TO.C,C1*%
X204100000Y-92600000D03*
X203100000Y-92600000D03*
%TD*%
D25*
%TO.C,R7*%
X173500000Y-115300000D03*
X171850000Y-115300000D03*
%TD*%
D26*
%TO.C,F1*%
X162415000Y-98675000D03*
X162415000Y-100550000D03*
%TD*%
D14*
%TO.C,H11*%
X172700000Y-91080000D03*
X171700000Y-91080000D03*
X170700000Y-91080000D03*
D15*
X169400000Y-87200000D03*
X174000000Y-87200000D03*
%TD*%
D27*
%TO.C,C3*%
X163200000Y-103000000D03*
X161650000Y-103000000D03*
%TD*%
D19*
%TO.C,C1*%
X152300000Y-92600000D03*
X151300000Y-92600000D03*
%TD*%
D25*
%TO.C,R3*%
X155330000Y-101275000D03*
X153680000Y-101275000D03*
%TD*%
D20*
%TO.C,C3*%
X167325000Y-117100000D03*
X168875000Y-117100000D03*
%TD*%
D14*
%TO.C,H8*%
X192200000Y-91080000D03*
X191200000Y-91080000D03*
X190200000Y-91080000D03*
D15*
X188900000Y-87200000D03*
X193500000Y-87200000D03*
%TD*%
D18*
%TO.C,REF\u002A\u002A*%
X174700000Y-94400000D03*
%TD*%
D19*
%TO.C,C0*%
X213372500Y-96900000D03*
X213372500Y-95900000D03*
%TD*%
%TO.C,C9*%
X145600000Y-92600000D03*
X144600000Y-92600000D03*
%TD*%
D28*
%TO.C,J1*%
X147250000Y-96810000D03*
X147250000Y-102590000D03*
D29*
X148310000Y-96500000D03*
X148310000Y-97300000D03*
D30*
X148310000Y-98450000D03*
X148310000Y-99450000D03*
X148310000Y-99950000D03*
X148310000Y-100950000D03*
D29*
X148310000Y-102100000D03*
X148310000Y-102900000D03*
X148310000Y-102900000D03*
X148310000Y-102100000D03*
D30*
X148310000Y-101450000D03*
X148310000Y-100450000D03*
X148310000Y-98950000D03*
X148310000Y-97950000D03*
D29*
X148310000Y-97300000D03*
X148310000Y-96500000D03*
D31*
X147730000Y-95380000D03*
D32*
X143560000Y-95380000D03*
D31*
X147730000Y-104020000D03*
D32*
X143560000Y-104020000D03*
%TD*%
D16*
%TO.C,H2*%
X214932500Y-104400000D03*
X214932500Y-103400000D03*
X214932500Y-102400000D03*
D17*
X218812500Y-101100000D03*
X218812500Y-105700000D03*
%TD*%
D14*
%TO.C,H9*%
X185700000Y-91080000D03*
X184700000Y-91080000D03*
X183700000Y-91080000D03*
D15*
X182400000Y-87200000D03*
X187000000Y-87200000D03*
%TD*%
D18*
%TO.C,REF\u002A\u002A*%
X174700000Y-119200000D03*
%TD*%
%TO.C,REF\u002A\u002A*%
X207100000Y-94400000D03*
%TD*%
D14*
%TO.C,H6*%
X205200000Y-91080000D03*
X204200000Y-91080000D03*
X203200000Y-91080000D03*
D15*
X201900000Y-87200000D03*
X206500000Y-87200000D03*
%TD*%
D16*
%TO.C,H0*%
X214932500Y-117400000D03*
X214932500Y-116400000D03*
X214932500Y-115400000D03*
D17*
X218812500Y-114100000D03*
X218812500Y-118700000D03*
%TD*%
D16*
%TO.C,H3*%
X214920000Y-97900000D03*
X214920000Y-95900000D03*
X214920000Y-96900000D03*
D17*
X218800000Y-94600000D03*
X218800000Y-99200000D03*
%TD*%
D19*
%TO.C,C1*%
X197700000Y-92600000D03*
X196700000Y-92600000D03*
%TD*%
M02*
