%TF.GenerationSoftware,KiCad,Pcbnew,8.0.8-8.0.8-0~ubuntu22.04.1*%
%TF.CreationDate,2025-04-02T13:33:07+02:00*%
%TF.ProjectId,desk_display,6465736b-5f64-4697-9370-6c61792e6b69,rev?*%
%TF.SameCoordinates,Original*%
%TF.FileFunction,Copper,L1,Top*%
%TF.FilePolarity,Positive*%
%FSLAX46Y46*%
G04 Gerber Fmt 4.6, Leading zero omitted, Abs format (unit mm)*
G04 Created by KiCad (PCBNEW 8.0.8-8.0.8-0~ubuntu22.04.1) date 2025-04-02 13:33:07*
%MOMM*%
%LPD*%
G01*
G04 APERTURE LIST*
G04 Aperture macros list*
%AMRoundRect*
0 Rectangle with rounded corners*
0 $1 Rounding radius*
0 $2 $3 $4 $5 $6 $7 $8 $9 X,Y pos of 4 corners*
0 Add a 4 corners polygon primitive as box body*
4,1,4,$2,$3,$4,$5,$6,$7,$8,$9,$2,$3,0*
0 Add four circle primitives for the rounded corners*
1,1,$1+$1,$2,$3*
1,1,$1+$1,$4,$5*
1,1,$1+$1,$6,$7*
1,1,$1+$1,$8,$9*
0 Add four rect primitives between the rounded corners*
20,1,$1+$1,$2,$3,$4,$5,0*
20,1,$1+$1,$4,$5,$6,$7,0*
20,1,$1+$1,$6,$7,$8,$9,0*
20,1,$1+$1,$8,$9,$2,$3,0*%
G04 Aperture macros list end*
%TA.AperFunction,SMDPad,CuDef*%
%ADD10RoundRect,0.200000X0.275000X-0.200000X0.275000X0.200000X-0.275000X0.200000X-0.275000X-0.200000X0*%
%TD*%
%TA.AperFunction,SMDPad,CuDef*%
%ADD11RoundRect,0.200000X-0.275000X0.200000X-0.275000X-0.200000X0.275000X-0.200000X0.275000X0.200000X0*%
%TD*%
%TA.AperFunction,SMDPad,CuDef*%
%ADD12RoundRect,0.200000X-0.200000X-0.275000X0.200000X-0.275000X0.200000X0.275000X-0.200000X0.275000X0*%
%TD*%
%TA.AperFunction,SMDPad,CuDef*%
%ADD13R,0.600000X1.550000*%
%TD*%
%TA.AperFunction,SMDPad,CuDef*%
%ADD14R,1.500000X2.000000*%
%TD*%
%TA.AperFunction,SMDPad,CuDef*%
%ADD15R,1.550000X0.600000*%
%TD*%
%TA.AperFunction,SMDPad,CuDef*%
%ADD16R,2.000000X1.500000*%
%TD*%
%TA.AperFunction,ComponentPad*%
%ADD17C,3.800000*%
%TD*%
%TA.AperFunction,SMDPad,CuDef*%
%ADD18R,0.600000X0.600000*%
%TD*%
%TA.AperFunction,SMDPad,CuDef*%
%ADD19RoundRect,0.225000X-0.225000X-0.250000X0.225000X-0.250000X0.225000X0.250000X-0.225000X0.250000X0*%
%TD*%
%TA.AperFunction,SMDPad,CuDef*%
%ADD20R,3.800000X2.000000*%
%TD*%
%TA.AperFunction,SMDPad,CuDef*%
%ADD21O,0.570000X2.390000*%
%TD*%
%TA.AperFunction,SMDPad,CuDef*%
%ADD22R,1.500000X0.900000*%
%TD*%
%TA.AperFunction,SMDPad,CuDef*%
%ADD23R,0.700000X0.700000*%
%TD*%
%TA.AperFunction,SMDPad,CuDef*%
%ADD24RoundRect,0.200000X0.200000X0.275000X-0.200000X0.275000X-0.200000X-0.275000X0.200000X-0.275000X0*%
%TD*%
%TA.AperFunction,SMDPad,CuDef*%
%ADD25RoundRect,0.243750X-0.456250X0.243750X-0.456250X-0.243750X0.456250X-0.243750X0.456250X0.243750X0*%
%TD*%
%TA.AperFunction,SMDPad,CuDef*%
%ADD26RoundRect,0.225000X0.225000X0.250000X-0.225000X0.250000X-0.225000X-0.250000X0.225000X-0.250000X0*%
%TD*%
%TA.AperFunction,SMDPad,CuDef*%
%ADD27R,1.160000X0.600000*%
%TD*%
%TA.AperFunction,SMDPad,CuDef*%
%ADD28R,1.160000X0.300000*%
%TD*%
%TA.AperFunction,ComponentPad*%
%ADD29O,2.000000X0.900000*%
%TD*%
%TA.AperFunction,ComponentPad*%
%ADD30O,1.700000X0.900000*%
%TD*%
%TA.AperFunction,ViaPad*%
%ADD31C,0.450000*%
%TD*%
%TA.AperFunction,ViaPad*%
%ADD32C,0.800000*%
%TD*%
%TA.AperFunction,Conductor*%
%ADD33C,0.250000*%
%TD*%
%TA.AperFunction,Conductor*%
%ADD34C,0.248920*%
%TD*%
%TA.AperFunction,Conductor*%
%ADD35C,0.177800*%
%TD*%
%TA.AperFunction,Conductor*%
%ADD36C,0.249936*%
%TD*%
%TA.AperFunction,Conductor*%
%ADD37C,0.500000*%
%TD*%
%TA.AperFunction,Conductor*%
%ADD38C,0.497840*%
%TD*%
%TA.AperFunction,Conductor*%
%ADD39C,0.200000*%
%TD*%
%TA.AperFunction,Conductor*%
%ADD40C,0.500380*%
%TD*%
%TA.AperFunction,Conductor*%
%ADD41C,0.499872*%
%TD*%
G04 APERTURE END LIST*
D10*
%TO.P,R11,1*%
%TO.N,GND*%
X179600000Y-114750000D03*
%TO.P,R11,2*%
%TO.N,+IN*%
X179600000Y-113100000D03*
%TD*%
D11*
%TO.P,R10,1*%
%TO.N,MUX_OUT*%
X171800000Y-108575000D03*
%TO.P,R10,2*%
%TO.N,-IN*%
X171800000Y-110225000D03*
%TD*%
D12*
%TO.P,R9,1*%
%TO.N,-IN*%
X173875000Y-113300000D03*
%TO.P,R9,2*%
X175525000Y-113300000D03*
%TD*%
D13*
%TO.P,H7,1,1*%
%TO.N,HALL_7*%
X198700000Y-91080000D03*
%TO.P,H7,2,2*%
%TO.N,GND*%
X197700000Y-91080000D03*
%TO.P,H7,3,3*%
%TO.N,+5VD*%
X196700000Y-91080000D03*
D14*
%TO.P,H7,4*%
%TO.N,N/C*%
X195400000Y-87200000D03*
%TO.P,H7,5*%
X200000000Y-87200000D03*
%TD*%
D15*
%TO.P,H1,1,1*%
%TO.N,HALL_1*%
X214932500Y-110900000D03*
%TO.P,H1,2,2*%
%TO.N,GND*%
X214932500Y-109900000D03*
%TO.P,H1,3,3*%
%TO.N,+5VD*%
X214932500Y-108900000D03*
D16*
%TO.P,H1,4*%
%TO.N,N/C*%
X218812500Y-107600000D03*
%TO.P,H1,5*%
X218812500Y-112200000D03*
%TD*%
D17*
%TO.P,REF\u002A\u002A,1*%
%TO.N,N/C*%
X207200000Y-119200000D03*
%TD*%
D12*
%TO.P,R4,1*%
%TO.N,Net-(J1-PadB5)*%
X153680000Y-99775000D03*
%TO.P,R4,2*%
%TO.N,GND*%
X155330000Y-99775000D03*
%TD*%
D18*
%TO.P,C1,1*%
%TO.N,GND*%
X158700000Y-92600000D03*
%TO.P,C1,2*%
%TO.N,+5VD*%
X157700000Y-92600000D03*
%TD*%
%TO.P,C1,1*%
%TO.N,GND*%
X184700000Y-92600000D03*
%TO.P,C1,2*%
%TO.N,+5VD*%
X183700000Y-92600000D03*
%TD*%
D13*
%TO.P,H14,1,1*%
%TO.N,HALL_14*%
X153200000Y-91080000D03*
%TO.P,H14,2,2*%
%TO.N,GND*%
X152200000Y-91080000D03*
%TO.P,H14,3,3*%
%TO.N,+5VD*%
X151200000Y-91080000D03*
D14*
%TO.P,H14,4*%
%TO.N,N/C*%
X149900000Y-87200000D03*
%TO.P,H14,5*%
X154500000Y-87200000D03*
%TD*%
D18*
%TO.P,C1,*%
%TO.N,+5VD*%
X164100000Y-92600000D03*
%TO.P,C1,1*%
%TO.N,GND*%
X165100000Y-92600000D03*
%TD*%
%TO.P,C1,1*%
%TO.N,GND*%
X178100000Y-92600000D03*
%TO.P,C1,2*%
%TO.N,+5VD*%
X177100000Y-92600000D03*
%TD*%
D13*
%TO.P,H4,1,1*%
%TO.N,HALL_4*%
X218200000Y-91080000D03*
%TO.P,H4,2,2*%
%TO.N,GND*%
X217200000Y-91080000D03*
%TO.P,H4,3,3*%
%TO.N,+5VD*%
X216200000Y-91080000D03*
D14*
%TO.P,H4,4*%
%TO.N,N/C*%
X214900000Y-87200000D03*
%TO.P,H4,5*%
X219500000Y-87200000D03*
%TD*%
D18*
%TO.P,C1,1*%
%TO.N,GND*%
X213372500Y-103400000D03*
%TO.P,C1,2*%
%TO.N,+5VD*%
X213372500Y-102400000D03*
%TD*%
D13*
%TO.P,H15,1,1*%
%TO.N,HALL_15*%
X146700000Y-91080000D03*
%TO.P,H15,2,2*%
%TO.N,GND*%
X145700000Y-91080000D03*
%TO.P,H15,3,3*%
%TO.N,+5VD*%
X144700000Y-91080000D03*
D14*
%TO.P,H15,4*%
%TO.N,N/C*%
X143400000Y-87200000D03*
%TO.P,H15,5*%
X148000000Y-87200000D03*
%TD*%
D13*
%TO.P,H10,1,1*%
%TO.N,HALL_10*%
X179200000Y-91080000D03*
%TO.P,H10,2,2*%
%TO.N,GND*%
X178200000Y-91080000D03*
%TO.P,H10,3,3*%
%TO.N,+5VD*%
X177200000Y-91080000D03*
D14*
%TO.P,H10,4*%
%TO.N,N/C*%
X175900000Y-87200000D03*
%TO.P,H10,5*%
X180500000Y-87200000D03*
%TD*%
D18*
%TO.P,C1,1*%
%TO.N,GND*%
X171700000Y-92600000D03*
%TO.P,C1,2*%
%TO.N,+5VD*%
X170700000Y-92600000D03*
%TD*%
D10*
%TO.P,R6,1*%
%TO.N,+IN*%
X182300000Y-111825000D03*
%TO.P,R6,2*%
%TO.N,MUX_OUT*%
X182300000Y-110175000D03*
%TD*%
%TO.P,R1,1*%
%TO.N,+3.3V*%
X163000000Y-119050000D03*
%TO.P,R1,2*%
%TO.N,EN*%
X163000000Y-117400000D03*
%TD*%
D18*
%TO.P,C1,1*%
%TO.N,GND*%
X191211159Y-92608076D03*
%TO.P,C1,2*%
%TO.N,+5VD*%
X190211159Y-92608076D03*
%TD*%
D19*
%TO.P,C2,1*%
%TO.N,+3.3V*%
X167275000Y-118700000D03*
%TO.P,C2,2*%
%TO.N,GND*%
X168825000Y-118700000D03*
%TD*%
D13*
%TO.P,H12,1,1*%
%TO.N,HALL_12*%
X166200000Y-91080000D03*
%TO.P,H12,1,3*%
%TO.N,+5VD*%
X164200000Y-91080000D03*
%TO.P,H12,2,2*%
%TO.N,GND*%
X165200000Y-91080000D03*
D14*
%TO.P,H12,4*%
%TO.N,N/C*%
X162900000Y-87200000D03*
%TO.P,H12,5*%
X167500000Y-87200000D03*
%TD*%
D18*
%TO.P,C2,1*%
%TO.N,GND*%
X213372500Y-109900000D03*
%TO.P,C2,2*%
%TO.N,+5VD*%
X213372500Y-108900000D03*
%TD*%
%TO.P,C3,1*%
%TO.N,GND*%
X213200000Y-116400000D03*
%TO.P,C3,2*%
%TO.N,+5VD*%
X213200000Y-115400000D03*
%TD*%
%TO.P,C1,1*%
%TO.N,GND*%
X210700000Y-92600000D03*
%TO.P,C1,2*%
%TO.N,+5VD*%
X209700000Y-92600000D03*
%TD*%
D14*
%TO.P,U2,1,GND*%
%TO.N,GND*%
X168100000Y-106400000D03*
%TO.P,U2,2,VO*%
%TO.N,+3.3V*%
X165800000Y-106400000D03*
D20*
X165800000Y-112700000D03*
D14*
%TO.P,U2,3,VI*%
%TO.N,+5VD*%
X163500000Y-106400000D03*
%TD*%
D21*
%TO.P,U3,1,COMMONINPUT/OUTPUT*%
%TO.N,MUX_OUT*%
X184320000Y-107780000D03*
%TO.P,U3,2,I7*%
%TO.N,HALL_0*%
X185590000Y-107780000D03*
%TO.P,U3,3,I6*%
%TO.N,HALL_1*%
X186860000Y-107780000D03*
%TO.P,U3,4,I5*%
%TO.N,HALL_2*%
X188130000Y-107780000D03*
%TO.P,U3,5,I4*%
%TO.N,HALL_3*%
X189400000Y-107780000D03*
%TO.P,U3,6,I3*%
%TO.N,HALL_4*%
X190680000Y-107780000D03*
%TO.P,U3,7,I2*%
%TO.N,HALL_5*%
X191940000Y-107780000D03*
%TO.P,U3,8,I1*%
%TO.N,HALL_6*%
X193210000Y-107780000D03*
%TO.P,U3,9,I0*%
%TO.N,HALL_7*%
X194480000Y-107780000D03*
%TO.P,U3,10,S0*%
%TO.N,S0*%
X195750000Y-107780000D03*
%TO.P,U3,11,S1*%
%TO.N,S1*%
X197020000Y-107780000D03*
%TO.P,U3,12,GND*%
%TO.N,GND*%
X198300000Y-107780000D03*
%TO.P,U3,13,S3*%
%TO.N,S2*%
X198300000Y-98300000D03*
%TO.P,U3,14,S2*%
%TO.N,S3*%
X197020000Y-98300000D03*
%TO.P,U3,15,~{E}*%
%TO.N,GND*%
X195750000Y-98300000D03*
%TO.P,U3,16,I15*%
%TO.N,HALL_8*%
X194480000Y-98300000D03*
%TO.P,U3,17,I14*%
%TO.N,HALL_9*%
X193210000Y-98300000D03*
%TO.P,U3,18,I13*%
%TO.N,HALL_10*%
X191940000Y-98300000D03*
%TO.P,U3,19,I12*%
%TO.N,HALL_11*%
X190680000Y-98300000D03*
%TO.P,U3,20,I11*%
%TO.N,HALL_12*%
X189400000Y-98300000D03*
%TO.P,U3,21,I10*%
%TO.N,HALL_13*%
X188130000Y-98300000D03*
%TO.P,U3,22,I9*%
%TO.N,HALL_14*%
X186860000Y-98300000D03*
%TO.P,U3,23,I8*%
%TO.N,HALL_15*%
X185590000Y-98300000D03*
%TO.P,U3,24,VCC*%
%TO.N,+5VD*%
X184320000Y-98300000D03*
%TD*%
D12*
%TO.P,R8,1*%
%TO.N,-IN*%
X176950000Y-116700000D03*
%TO.P,R8,2*%
%TO.N,GND*%
X178600000Y-116700000D03*
%TD*%
D22*
%TO.P,U1,1,3V3*%
%TO.N,+3.3V*%
X159850000Y-120475000D03*
%TO.P,U1,2,EN/CHIP_PU*%
%TO.N,EN*%
X159850000Y-118975000D03*
%TO.P,U1,3,GPIO4/ADC1_CH4*%
%TO.N,MUX_OUT*%
X159850000Y-117475000D03*
%TO.P,U1,4,GPIO5/ADC2_CH0*%
%TO.N,S0*%
X159850000Y-115975000D03*
%TO.P,U1,5,GPIO6*%
%TO.N,S1*%
X159850000Y-114475000D03*
%TO.P,U1,6,GPIO7*%
%TO.N,S2*%
X159850000Y-112975000D03*
%TO.P,U1,7,GPIO8*%
%TO.N,S3*%
X159850000Y-111475000D03*
%TO.P,U1,8,GPIO9*%
%TO.N,GPIO9*%
X159850000Y-109975000D03*
%TO.P,U1,9,GND*%
%TO.N,GND*%
X159850000Y-108475000D03*
%TO.P,U1,10,GPIO10*%
%TO.N,GPIO10*%
X142350000Y-108475000D03*
%TO.P,U1,11,GPIO20/U0RXD*%
%TO.N,RX*%
X142350000Y-109975000D03*
%TO.P,U1,12,GPIO21/U0TXD*%
%TO.N,TX*%
X142350000Y-111475000D03*
%TO.P,U1,13,GPIO18/USB_D-*%
%TO.N,D-*%
X142350000Y-112975000D03*
%TO.P,U1,14,GPIO19/USB_D+*%
%TO.N,D+*%
X142350000Y-114475000D03*
%TO.P,U1,15,GPIO3/ADC1_CH3*%
%TO.N,BTN_ACTION*%
X142350000Y-115975000D03*
%TO.P,U1,16,GPIO2/ADC1_CH2*%
%TO.N,DIN*%
X142350000Y-117475000D03*
%TO.P,U1,17,GPIO1/ADC1_CH1/XTAL_32K_N*%
%TO.N,GPIO1*%
X142350000Y-118975000D03*
%TO.P,U1,18,GPIO0/ADC1_CH0/XTAL_32K_P*%
%TO.N,GPIO0*%
X142350000Y-120475000D03*
D23*
%TO.P,U1,19,GND*%
%TO.N,GND*%
X151240000Y-115375000D03*
X151240000Y-114275000D03*
X151240000Y-113175000D03*
X150190000Y-115375000D03*
X150190000Y-114275000D03*
X150190000Y-113175000D03*
X149040000Y-115375000D03*
X149040000Y-114275000D03*
X149040000Y-113175000D03*
%TD*%
D18*
%TO.P,C1,1*%
%TO.N,GND*%
X217200000Y-92600000D03*
%TO.P,C1,2*%
%TO.N,+5VD*%
X216200000Y-92600000D03*
%TD*%
D13*
%TO.P,H5,1,1*%
%TO.N,HALL_5*%
X211700000Y-91080000D03*
%TO.P,H5,2,2*%
%TO.N,GND*%
X210700000Y-91080000D03*
%TO.P,H5,3,3*%
%TO.N,+5VD*%
X209700000Y-91080000D03*
D14*
%TO.P,H5,4*%
%TO.N,N/C*%
X208400000Y-87200000D03*
%TO.P,H5,5*%
X213000000Y-87200000D03*
%TD*%
D13*
%TO.P,U4,*%
%TO.N,NC*%
X173590000Y-110000000D03*
%TO.P,U4,1*%
X177400000Y-104600000D03*
%TO.P,U4,2*%
%TO.N,MUX_OUT*%
X176130000Y-104600000D03*
%TO.P,U4,3*%
%TO.N,+5VD*%
X174860000Y-104600000D03*
%TO.P,U4,4*%
%TO.N,NC*%
X173590000Y-104600000D03*
%TO.P,U4,6*%
%TO.N,-IN*%
X174860000Y-110000000D03*
%TO.P,U4,7*%
%TO.N,+IN*%
X176130000Y-110000000D03*
%TO.P,U4,8*%
%TO.N,GND*%
X177400000Y-110000000D03*
%TD*%
%TO.P,H13,1,1*%
%TO.N,HALL_13*%
X159700000Y-91080000D03*
%TO.P,H13,2,2*%
%TO.N,GND*%
X158700000Y-91080000D03*
%TO.P,H13,3,3*%
%TO.N,+5VD*%
X157700000Y-91080000D03*
D14*
%TO.P,H13,4*%
%TO.N,N/C*%
X156400000Y-87200000D03*
%TO.P,H13,5*%
X161000000Y-87200000D03*
%TD*%
D24*
%TO.P,R5,1*%
%TO.N,Net-(J1-PadA5)*%
X155330000Y-98275000D03*
%TO.P,R5,2*%
%TO.N,GND*%
X153680000Y-98275000D03*
%TD*%
D19*
%TO.P,C1,1*%
%TO.N,+3.3V*%
X167250000Y-120500000D03*
%TO.P,C1,2*%
%TO.N,GND*%
X168800000Y-120500000D03*
%TD*%
D18*
%TO.P,C1,1*%
%TO.N,GND*%
X204100000Y-92600000D03*
%TO.P,C1,2*%
%TO.N,+5VD*%
X203100000Y-92600000D03*
%TD*%
D24*
%TO.P,R7,1*%
%TO.N,-IN*%
X173500000Y-115300000D03*
%TO.P,R7,2*%
%TO.N,+3.3V*%
X171850000Y-115300000D03*
%TD*%
D25*
%TO.P,F1,1*%
%TO.N,+5VD*%
X162415000Y-98675000D03*
%TO.P,F1,2*%
X162415000Y-100550000D03*
%TD*%
D13*
%TO.P,H11,1,1*%
%TO.N,HALL_11*%
X172700000Y-91080000D03*
%TO.P,H11,2,2*%
%TO.N,GND*%
X171700000Y-91080000D03*
%TO.P,H11,3,3*%
%TO.N,+5VD*%
X170700000Y-91080000D03*
D14*
%TO.P,H11,4*%
%TO.N,N/C*%
X169400000Y-87200000D03*
%TO.P,H11,5*%
X174000000Y-87200000D03*
%TD*%
D26*
%TO.P,C3,1*%
%TO.N,+5VD*%
X163200000Y-103000000D03*
%TO.P,C3,2*%
%TO.N,GND*%
X161650000Y-103000000D03*
%TD*%
D18*
%TO.P,C1,1*%
%TO.N,GND*%
X152300000Y-92600000D03*
%TO.P,C1,2*%
%TO.N,+5VD*%
X151300000Y-92600000D03*
%TD*%
D24*
%TO.P,R3,1*%
%TO.N,Net-(J1-PadS1)*%
X155330000Y-101275000D03*
%TO.P,R3,2*%
%TO.N,GND*%
X153680000Y-101275000D03*
%TD*%
D19*
%TO.P,C3,1*%
%TO.N,+3.3V*%
X167325000Y-117100000D03*
%TO.P,C3,2*%
%TO.N,GND*%
X168875000Y-117100000D03*
%TD*%
D13*
%TO.P,H8,1,1*%
%TO.N,HALL_8*%
X192200000Y-91080000D03*
%TO.P,H8,2,2*%
%TO.N,GND*%
X191200000Y-91080000D03*
%TO.P,H8,3,3*%
%TO.N,+5VD*%
X190200000Y-91080000D03*
D14*
%TO.P,H8,4*%
%TO.N,N/C*%
X188900000Y-87200000D03*
%TO.P,H8,5*%
X193500000Y-87200000D03*
%TD*%
D17*
%TO.P,REF\u002A\u002A,1*%
%TO.N,N/C*%
X174700000Y-94400000D03*
%TD*%
D18*
%TO.P,C0,1*%
%TO.N,GND*%
X213372500Y-96900000D03*
%TO.P,C0,2*%
%TO.N,+5VD*%
X213372500Y-95900000D03*
%TD*%
%TO.P,C9,1*%
%TO.N,GND*%
X145600000Y-92600000D03*
%TO.P,C9,2*%
%TO.N,+5VD*%
X144600000Y-92600000D03*
%TD*%
D27*
%TO.P,J1,A1,GND*%
%TO.N,GND*%
X148310000Y-96500000D03*
%TO.P,J1,A4,VBUS*%
%TO.N,+5VD*%
X148310000Y-97300000D03*
D28*
%TO.P,J1,A5,CC1*%
%TO.N,Net-(J1-PadA5)*%
X148310000Y-98450000D03*
%TO.P,J1,A6,D+*%
%TO.N,D+*%
X148310000Y-99450000D03*
%TO.P,J1,A7,D-*%
%TO.N,D-*%
X148310000Y-99950000D03*
%TO.P,J1,A8,SBU1*%
%TO.N,unconnected-(J1-PadA8)*%
X148310000Y-100950000D03*
D27*
%TO.P,J1,A9,VBUS*%
%TO.N,+5VD*%
X148310000Y-102100000D03*
%TO.P,J1,A12,GND*%
%TO.N,GND*%
X148310000Y-102900000D03*
%TO.P,J1,B1,GND*%
X148310000Y-102900000D03*
%TO.P,J1,B4,VBUS*%
%TO.N,+5VD*%
X148310000Y-102100000D03*
D28*
%TO.P,J1,B5,CC2*%
%TO.N,Net-(J1-PadB5)*%
X148310000Y-101450000D03*
%TO.P,J1,B6,D+*%
%TO.N,D+*%
X148310000Y-100450000D03*
%TO.P,J1,B7,D-*%
%TO.N,D-*%
X148310000Y-98950000D03*
%TO.P,J1,B8,SBU2*%
%TO.N,unconnected-(J1-PadB8)*%
X148310000Y-97950000D03*
D27*
%TO.P,J1,B9,VBUS*%
%TO.N,+5VD*%
X148310000Y-97300000D03*
%TO.P,J1,B12,GND*%
%TO.N,GND*%
X148310000Y-96500000D03*
D29*
%TO.P,J1,S1,SHIELD*%
%TO.N,Net-(J1-PadS1)*%
X147730000Y-95380000D03*
D30*
X143560000Y-95380000D03*
D29*
X147730000Y-104020000D03*
D30*
X143560000Y-104020000D03*
%TD*%
D15*
%TO.P,H2,1,1*%
%TO.N,HALL_2*%
X214932500Y-104400000D03*
%TO.P,H2,2,2*%
%TO.N,GND*%
X214932500Y-103400000D03*
%TO.P,H2,3,3*%
%TO.N,+5VD*%
X214932500Y-102400000D03*
D16*
%TO.P,H2,4*%
%TO.N,N/C*%
X218812500Y-101100000D03*
%TO.P,H2,5*%
X218812500Y-105700000D03*
%TD*%
D13*
%TO.P,H9,1,1*%
%TO.N,HALL_9*%
X185700000Y-91080000D03*
%TO.P,H9,2,2*%
%TO.N,GND*%
X184700000Y-91080000D03*
%TO.P,H9,3,3*%
%TO.N,+5VD*%
X183700000Y-91080000D03*
D14*
%TO.P,H9,4*%
%TO.N,N/C*%
X182400000Y-87200000D03*
%TO.P,H9,5*%
X187000000Y-87200000D03*
%TD*%
D17*
%TO.P,REF\u002A\u002A,1*%
%TO.N,N/C*%
X174700000Y-119200000D03*
%TD*%
%TO.P,REF\u002A\u002A,1*%
%TO.N,N/C*%
X207100000Y-94400000D03*
%TD*%
D13*
%TO.P,H6,1,1*%
%TO.N,HALL_6*%
X205200000Y-91080000D03*
%TO.P,H6,2,2*%
%TO.N,GND*%
X204200000Y-91080000D03*
%TO.P,H6,3,3*%
%TO.N,+5VD*%
X203200000Y-91080000D03*
D14*
%TO.P,H6,4*%
%TO.N,N/C*%
X201900000Y-87200000D03*
%TO.P,H6,5*%
X206500000Y-87200000D03*
%TD*%
D15*
%TO.P,H0,1,1*%
%TO.N,HALL_0*%
X214932500Y-117400000D03*
%TO.P,H0,2,2*%
%TO.N,GND*%
X214932500Y-116400000D03*
%TO.P,H0,3,3*%
%TO.N,+5VD*%
X214932500Y-115400000D03*
D16*
%TO.P,H0,4*%
%TO.N,N/C*%
X218812500Y-114100000D03*
%TO.P,H0,5*%
X218812500Y-118700000D03*
%TD*%
D15*
%TO.P,H3,1,1*%
%TO.N,HALL_3*%
X214920000Y-97900000D03*
%TO.P,H3,1,3*%
%TO.N,+5VD*%
X214920000Y-95900000D03*
%TO.P,H3,2,2*%
%TO.N,GND*%
X214920000Y-96900000D03*
D16*
%TO.P,H3,4*%
%TO.N,N/C*%
X218800000Y-94600000D03*
%TO.P,H3,5*%
X218800000Y-99200000D03*
%TD*%
D18*
%TO.P,C1,1*%
%TO.N,GND*%
X197700000Y-92600000D03*
%TO.P,C1,2*%
%TO.N,+5VD*%
X196700000Y-92600000D03*
%TD*%
D31*
%TO.N,+5VD*%
X170700000Y-91080000D03*
D32*
X151655000Y-98275000D03*
X162015000Y-96275000D03*
D31*
X164200000Y-91080000D03*
X151200000Y-91080000D03*
X196700000Y-91080000D03*
X203200000Y-91080000D03*
X157700000Y-91080000D03*
X214920000Y-95900000D03*
X216200000Y-91080000D03*
X183700000Y-91080000D03*
X190200000Y-91080000D03*
X214932500Y-115400000D03*
X144700000Y-91080000D03*
X177200000Y-91080000D03*
X214932500Y-108900000D03*
X209700000Y-91080000D03*
X214932500Y-102400000D03*
D32*
%TO.N,Net-(J1-PadA5)*%
X146800000Y-97900000D03*
X156455000Y-98275000D03*
%TO.N,D+*%
X146400000Y-105600000D03*
X146400000Y-114600000D03*
%TO.N,D-*%
X144200000Y-105600000D03*
X144200000Y-113000000D03*
%TO.N,Net-(J1-PadB5)*%
X152180000Y-100275000D03*
X147000000Y-101500000D03*
%TO.N,Net-(J1-PadS1)*%
X156455000Y-101475000D03*
%TO.N,MUX_OUT*%
X158200000Y-117400000D03*
X170100000Y-106887347D03*
%TO.N,S0*%
X180600000Y-107800000D03*
X158200000Y-116000000D03*
%TO.N,S1*%
X180535054Y-106802109D03*
X158200000Y-114400000D03*
%TO.N,S2*%
X178100000Y-101675190D03*
X158200000Y-113000000D03*
%TO.N,S3*%
X180900000Y-100950190D03*
X158200000Y-111400000D03*
%TD*%
D33*
%TO.N,HALL_3*%
X201300000Y-109645584D02*
X201222792Y-109722792D01*
X201222792Y-109722792D02*
X199545584Y-111400000D01*
D34*
X204000000Y-97900000D02*
X202995680Y-98904320D01*
X202995680Y-98904320D02*
X202995680Y-107949904D01*
X202995680Y-107949904D02*
X201222792Y-109722792D01*
D33*
%TO.N,HALL_4*%
X204100000Y-97350000D02*
X206100000Y-97350000D01*
X199359188Y-110950000D02*
X200704594Y-109604594D01*
X200704594Y-109604594D02*
X200850000Y-109459188D01*
D34*
X204100000Y-97350000D02*
X203913604Y-97350000D01*
X202546760Y-107762428D02*
X200704594Y-109604594D01*
X203913604Y-97350000D02*
X202546760Y-98716844D01*
X202546760Y-98716844D02*
X202546760Y-107762428D01*
%TO.N,HALL_5*%
X202097840Y-107573425D02*
X202097840Y-107574188D01*
D33*
X204000000Y-96900000D02*
X203727208Y-96900000D01*
X208100000Y-96900000D02*
X204000000Y-96900000D01*
D34*
X202097840Y-107574188D02*
X199836014Y-109836014D01*
X204000000Y-96900000D02*
X203600000Y-96900000D01*
X203600000Y-96900000D02*
X202097840Y-98402160D01*
X202097840Y-98402160D02*
X202097840Y-107573425D01*
D33*
%TO.N,HALL_6*%
X199950000Y-109086396D02*
X199868198Y-109168198D01*
X199868198Y-109168198D02*
X198986396Y-110050000D01*
D34*
X205200000Y-92800000D02*
X201648920Y-96351080D01*
X201648920Y-96351080D02*
X201648920Y-107387476D01*
X201648920Y-107387476D02*
X199868198Y-109168198D01*
%TO.N,HALL_7*%
X198700000Y-92500000D02*
X201200000Y-95000000D01*
X198700000Y-91080000D02*
X198700000Y-92500000D01*
D33*
X199500000Y-108900000D02*
X199300000Y-109100000D01*
X199300000Y-109100000D02*
X198800000Y-109600000D01*
D34*
X201200000Y-95000000D02*
X201200000Y-107200000D01*
X201200000Y-107200000D02*
X199300000Y-109100000D01*
%TO.N,S2*%
X178100000Y-101675190D02*
X195834810Y-101675190D01*
D35*
X198300000Y-99210000D02*
X198300000Y-98300000D01*
D34*
X195834810Y-101675190D02*
X198300000Y-99210000D01*
%TO.N,S3*%
X180900000Y-100950190D02*
X195279810Y-100950190D01*
X195279810Y-100950190D02*
X197020000Y-99210000D01*
D35*
X197020000Y-99210000D02*
X197020000Y-98300000D01*
D34*
%TO.N,S1*%
X180535054Y-106802109D02*
X181863601Y-106802109D01*
X181863601Y-106802109D02*
X183343510Y-105322200D01*
X183343510Y-105322200D02*
X195472200Y-105322200D01*
X195472200Y-105322200D02*
X197020000Y-106870000D01*
D35*
X197020000Y-106870000D02*
X197020000Y-107780000D01*
D34*
%TO.N,S0*%
X181400000Y-107800000D02*
X183500000Y-105700000D01*
X180600000Y-107800000D02*
X181400000Y-107800000D01*
X183500000Y-105700000D02*
X194580000Y-105700000D01*
X194580000Y-105700000D02*
X195750000Y-106870000D01*
D35*
X195750000Y-106870000D02*
X195750000Y-107780000D01*
D34*
%TO.N,+IN*%
X179600000Y-113100000D02*
X178755000Y-113100000D01*
X178755000Y-113100000D02*
X176130000Y-110475000D01*
D35*
X176130000Y-110475000D02*
X176130000Y-110000000D01*
D34*
X182300000Y-111825000D02*
X180875000Y-111825000D01*
X180875000Y-111825000D02*
X179600000Y-113100000D01*
D33*
%TO.N,HALL_0*%
X188500000Y-111600000D02*
X185590000Y-108690000D01*
X189650000Y-112750000D02*
X188500000Y-111600000D01*
D36*
%TO.N,MUX_OUT*%
X184320000Y-107780000D02*
X182300000Y-109800000D01*
D35*
X182300000Y-109800000D02*
X182300000Y-110175000D01*
D33*
%TO.N,-IN*%
X173875000Y-113300000D02*
X173875000Y-112800000D01*
X173875000Y-112800000D02*
X173875000Y-112225000D01*
X171800000Y-110225000D02*
X171800000Y-110725000D01*
X171800000Y-110725000D02*
X173875000Y-112800000D01*
%TO.N,MUX_OUT*%
X170100000Y-106887347D02*
X171000000Y-106887347D01*
X171000000Y-106887347D02*
X174297653Y-106887347D01*
X171800000Y-108575000D02*
X171800000Y-107687347D01*
X171800000Y-107687347D02*
X171000000Y-106887347D01*
X174297653Y-106887347D02*
X176130000Y-105055000D01*
X176130000Y-105055000D02*
X176130000Y-104600000D01*
%TO.N,-IN*%
X173875000Y-112225000D02*
X174860000Y-111240000D01*
X174860000Y-111240000D02*
X174860000Y-110000000D01*
X175550000Y-115300000D02*
X175550000Y-115250000D01*
X175550000Y-115250000D02*
X175525000Y-115225000D01*
X175525000Y-115225000D02*
X175525000Y-113300000D01*
X173500000Y-115300000D02*
X175550000Y-115300000D01*
X175550000Y-115300000D02*
X176950000Y-116700000D01*
D37*
%TO.N,+5VD*%
X150680000Y-97300000D02*
X148310000Y-97300000D01*
D38*
X172400000Y-102800000D02*
X172800000Y-102800000D01*
D37*
X149925000Y-99075000D02*
X149800000Y-99200000D01*
D39*
X203100000Y-91705000D02*
X203200000Y-91605000D01*
X183700000Y-92600000D02*
X183700000Y-91605000D01*
X213372500Y-115400000D02*
X214932500Y-115400000D01*
X190211159Y-91616159D02*
X190200000Y-91605000D01*
X151300000Y-91705000D02*
X151200000Y-91605000D01*
D37*
X163240000Y-101375000D02*
X163240000Y-103200000D01*
D39*
X144600000Y-91705000D02*
X144700000Y-91605000D01*
D33*
X184100000Y-98300000D02*
X184320000Y-98300000D01*
D37*
X149290000Y-102100000D02*
X148310000Y-102100000D01*
D39*
X213372500Y-108900000D02*
X214932500Y-108900000D01*
X203100000Y-92600000D02*
X203100000Y-91705000D01*
X151300000Y-92600000D02*
X151300000Y-91705000D01*
D37*
X162015000Y-96275000D02*
X162015000Y-98275000D01*
X163500000Y-104660000D02*
X163500000Y-106400000D01*
D39*
X157700000Y-92600000D02*
X157700000Y-91605000D01*
X170700000Y-92600000D02*
X170700000Y-91605000D01*
X144600000Y-92600000D02*
X144600000Y-91705000D01*
D37*
X150855000Y-99075000D02*
X149925000Y-99075000D01*
D38*
X182300000Y-100100000D02*
X184100000Y-98300000D01*
D37*
X167600000Y-104400000D02*
X168200000Y-104400000D01*
X151655000Y-98275000D02*
X150855000Y-99075000D01*
D39*
X196700000Y-92600000D02*
X196700000Y-91605000D01*
D38*
X174860000Y-103560000D02*
X174860000Y-104600000D01*
X167600000Y-104400000D02*
X170800000Y-104400000D01*
D39*
X214920000Y-95900000D02*
X213372500Y-95900000D01*
X209700000Y-92600000D02*
X209700000Y-91605000D01*
D37*
X149800000Y-101590000D02*
X149290000Y-102100000D01*
D39*
X164100000Y-91705000D02*
X164200000Y-91605000D01*
X177100000Y-92600000D02*
X177100000Y-91705000D01*
D37*
X162415000Y-100550000D02*
X163240000Y-101375000D01*
D38*
X170800000Y-104400000D02*
X172400000Y-102800000D01*
X174100000Y-102800000D02*
X174860000Y-103560000D01*
D33*
X214932500Y-102400000D02*
X215400000Y-102400000D01*
D39*
X216200000Y-92600000D02*
X216200000Y-91605000D01*
D40*
X172800000Y-102800000D02*
X175500000Y-100100000D01*
D37*
X162015000Y-98275000D02*
X162415000Y-98675000D01*
X163240000Y-104400000D02*
X167600000Y-104400000D01*
D40*
X175500000Y-100100000D02*
X182300000Y-100100000D01*
D39*
X164100000Y-92600000D02*
X164100000Y-91705000D01*
X213372500Y-102400000D02*
X214932500Y-102400000D01*
D37*
X163240000Y-104400000D02*
X163500000Y-104660000D01*
D39*
X177100000Y-91705000D02*
X177200000Y-91605000D01*
D37*
X163240000Y-103200000D02*
X163240000Y-104400000D01*
X149800000Y-99200000D02*
X149800000Y-101590000D01*
X151655000Y-98275000D02*
X150680000Y-97300000D01*
D39*
X190211159Y-92608076D02*
X190211159Y-91616159D01*
D38*
X172800000Y-102800000D02*
X174100000Y-102800000D01*
D37*
%TO.N,GND*%
X152815000Y-112385000D02*
X152025000Y-113175000D01*
X158250000Y-108475000D02*
X159850000Y-108475000D01*
D39*
X158700000Y-92600000D02*
X158700000Y-91080000D01*
D37*
X157455000Y-95115000D02*
X159415000Y-97075000D01*
D39*
X165100000Y-92600000D02*
X165100000Y-91180000D01*
D37*
X157240000Y-96500000D02*
X158560000Y-97820000D01*
X158560000Y-97820000D02*
X158560000Y-101130000D01*
X149000000Y-111800000D02*
X149040000Y-111840000D01*
X152025000Y-113175000D02*
X151240000Y-113175000D01*
X157015000Y-104475000D02*
X157015000Y-107215000D01*
X159415000Y-97075000D02*
X159415000Y-102075000D01*
D39*
X171700000Y-92600000D02*
X171700000Y-91080000D01*
X191211159Y-91091159D02*
X191200000Y-91080000D01*
X210700000Y-92600000D02*
X210700000Y-91080000D01*
X191211159Y-92608076D02*
X191211159Y-91091159D01*
X178100000Y-91180000D02*
X178200000Y-91080000D01*
D33*
X155105000Y-99727940D02*
X155227060Y-99727940D01*
D39*
X214932500Y-103400000D02*
X213372500Y-103400000D01*
D37*
X149040000Y-111840000D02*
X149040000Y-113175000D01*
D39*
X217200000Y-92600000D02*
X217200000Y-91080000D01*
D37*
X158250000Y-108450000D02*
X158250000Y-108475000D01*
D39*
X184700000Y-92600000D02*
X184700000Y-91080000D01*
X204100000Y-91180000D02*
X204200000Y-91080000D01*
X214932500Y-116400000D02*
X213372500Y-116400000D01*
D37*
X158560000Y-101130000D02*
X152815000Y-106875000D01*
D39*
X178100000Y-92600000D02*
X178100000Y-91180000D01*
D37*
X157455000Y-95100000D02*
X157455000Y-95115000D01*
D39*
X152300000Y-91180000D02*
X152200000Y-91080000D01*
X214932500Y-109900000D02*
X213372500Y-109900000D01*
X145600000Y-92600000D02*
X145600000Y-91180000D01*
X204100000Y-92600000D02*
X204100000Y-91180000D01*
X152300000Y-92600000D02*
X152300000Y-91180000D01*
D37*
X151015000Y-109785000D02*
X149000000Y-111800000D01*
X149400000Y-95100000D02*
X157455000Y-95100000D01*
D39*
X214920000Y-96900000D02*
X213372500Y-96900000D01*
D37*
X159415000Y-102075000D02*
X157015000Y-104475000D01*
X151015000Y-104465000D02*
X151015000Y-109785000D01*
X157015000Y-107215000D02*
X158250000Y-108450000D01*
X149450000Y-102900000D02*
X151015000Y-104465000D01*
X152815000Y-106875000D02*
X152815000Y-112385000D01*
D39*
X165100000Y-91180000D02*
X165200000Y-91080000D01*
D37*
X148310000Y-96500000D02*
X149400000Y-96500000D01*
X148310000Y-102900000D02*
X149450000Y-102900000D01*
X149400000Y-96500000D02*
X157240000Y-96500000D01*
X149400000Y-96500000D02*
X149400000Y-95100000D01*
D39*
X197700000Y-92600000D02*
X197700000Y-91080000D01*
X145600000Y-91180000D02*
X145700000Y-91080000D01*
D33*
%TO.N,+3.3V*%
X167325000Y-117100000D02*
X167100000Y-117100000D01*
D37*
X164400000Y-120475000D02*
X164775000Y-120475000D01*
X165600000Y-120475000D02*
X164400000Y-120475000D01*
X164000000Y-120475000D02*
X164400000Y-120475000D01*
X164575000Y-113400000D02*
X167325000Y-116150000D01*
X165675000Y-120300000D02*
X167275000Y-118700000D01*
X164775000Y-120475000D02*
X165125000Y-120475000D01*
X167325000Y-116150000D02*
X167325000Y-117100000D01*
D33*
X165800000Y-112700000D02*
X169250000Y-112700000D01*
D37*
X159850000Y-120475000D02*
X162200000Y-120475000D01*
X165800000Y-112700000D02*
X167300000Y-112700000D01*
D33*
X167325000Y-117100000D02*
X167325000Y-117150000D01*
D37*
X167250000Y-120500000D02*
X165875000Y-120500000D01*
X162200000Y-120475000D02*
X164000000Y-120475000D01*
D33*
X169250000Y-112700000D02*
X171850000Y-115300000D01*
D41*
X167325000Y-117150000D02*
X164000000Y-120475000D01*
D37*
X159850000Y-120475000D02*
X159350000Y-120475000D01*
D39*
X163000000Y-120275000D02*
X163000000Y-119050000D01*
D33*
%TO.N,BTN_ACTION*%
X142350000Y-115975000D02*
X142050000Y-115975000D01*
%TO.N,DIN*%
X142700000Y-117475000D02*
X142350000Y-117475000D01*
%TO.N,Net-(J1-PadA5)*%
X147350000Y-98450000D02*
X148310000Y-98450000D01*
X146800000Y-97900000D02*
X147350000Y-98450000D01*
X155330000Y-98275000D02*
X156455000Y-98275000D01*
D39*
%TO.N,D+*%
X148310000Y-99450000D02*
X149140000Y-99450000D01*
X145632843Y-101877207D02*
X147060050Y-100450000D01*
X142350000Y-114475000D02*
X146275000Y-114475000D01*
X149140000Y-100450000D02*
X148310000Y-100450000D01*
X149190000Y-99500000D02*
X149190000Y-100400000D01*
X145632843Y-101877207D02*
X145632843Y-104632843D01*
X149140000Y-99450000D02*
X149190000Y-99500000D01*
X147060050Y-100450000D02*
X148310000Y-100450000D01*
X146275000Y-114475000D02*
X146400000Y-114600000D01*
X145632843Y-104632843D02*
X146400000Y-105400000D01*
X149190000Y-100400000D02*
X149140000Y-100450000D01*
%TO.N,D-*%
X145082843Y-104717157D02*
X144400000Y-105400000D01*
X147650000Y-98950000D02*
X145200000Y-101400000D01*
X147530000Y-99950000D02*
X147430000Y-99850000D01*
X145200000Y-101400000D02*
X145082843Y-101517157D01*
X148310000Y-99950000D02*
X147530000Y-99950000D01*
X147430000Y-99850000D02*
X147430000Y-99170000D01*
X144175000Y-112975000D02*
X144200000Y-113000000D01*
X147430000Y-99170000D02*
X147650000Y-98950000D01*
X145082843Y-101517157D02*
X145082843Y-104717157D01*
X147650000Y-98950000D02*
X148310000Y-98950000D01*
X142350000Y-112975000D02*
X144175000Y-112975000D01*
D33*
%TO.N,Net-(J1-PadB5)*%
X153180000Y-100275000D02*
X153680000Y-99775000D01*
X147000000Y-101500000D02*
X147025000Y-101475000D01*
X152180000Y-100275000D02*
X153180000Y-100275000D01*
X148285000Y-101475000D02*
X148310000Y-101450000D01*
X147025000Y-101475000D02*
X148285000Y-101475000D01*
%TO.N,Net-(J1-PadS1)*%
X156455000Y-101475000D02*
X155530000Y-101475000D01*
X155330000Y-101275000D02*
X155455000Y-101275000D01*
X155530000Y-101475000D02*
X155330000Y-101275000D01*
%TO.N,HALL_15*%
X180000000Y-96000000D02*
X184200000Y-96000000D01*
X166400000Y-98800000D02*
X177200000Y-98800000D01*
X185590000Y-97390000D02*
X185590000Y-98300000D01*
X146700000Y-93100000D02*
X147800000Y-94200000D01*
X184200000Y-96000000D02*
X185590000Y-97390000D01*
X146700000Y-92800000D02*
X146700000Y-93100000D01*
D39*
X146700000Y-91080000D02*
X146700000Y-91340000D01*
D33*
X147800000Y-94200000D02*
X153200000Y-94200000D01*
D39*
X146700000Y-91080000D02*
X146700000Y-92800000D01*
D33*
X162125000Y-94525000D02*
X166400000Y-98800000D01*
X153200000Y-94200000D02*
X153525000Y-94525000D01*
X177200000Y-98800000D02*
X180000000Y-96000000D01*
X153525000Y-94525000D02*
X162125000Y-94525000D01*
%TO.N,HALL_13*%
X162472792Y-93600000D02*
X166036396Y-97163604D01*
X162375000Y-93625000D02*
X162400000Y-93600000D01*
X185826396Y-95086396D02*
X188130000Y-97390000D01*
X176636396Y-97900000D02*
X179450000Y-95086396D01*
X179450000Y-95086396D02*
X185826396Y-95086396D01*
X159700000Y-92700000D02*
X160625000Y-93625000D01*
X188130000Y-97390000D02*
X188130000Y-98300000D01*
X159700000Y-92600000D02*
X159700000Y-92700000D01*
X166036396Y-97163604D02*
X166063604Y-97163604D01*
X160625000Y-93625000D02*
X162375000Y-93625000D01*
X166036396Y-97163604D02*
X166772792Y-97900000D01*
D39*
X159700000Y-91080000D02*
X159700000Y-92600000D01*
D33*
X162400000Y-93600000D02*
X162472792Y-93600000D01*
X166772792Y-97900000D02*
X176636396Y-97900000D01*
%TO.N,HALL_14*%
X176822792Y-98350000D02*
X179636396Y-95536396D01*
X153200000Y-92600000D02*
X154675000Y-94075000D01*
X162311396Y-94075000D02*
X166586396Y-98350000D01*
X153200000Y-92500000D02*
X153200000Y-92600000D01*
X166586396Y-98350000D02*
X176822792Y-98350000D01*
X179636396Y-95536396D02*
X185006396Y-95536396D01*
X186860000Y-97390000D02*
X186860000Y-98300000D01*
X154675000Y-94075000D02*
X162311396Y-94075000D01*
D39*
X153200000Y-92500000D02*
X153200000Y-91080000D01*
D33*
X185006396Y-95536396D02*
X186860000Y-97390000D01*
%TO.N,HALL_12*%
X170750000Y-97450000D02*
X176450000Y-97450000D01*
X176450000Y-97450000D02*
X179300000Y-94600000D01*
X166200000Y-91080000D02*
X166200000Y-92900000D01*
X166200000Y-92900000D02*
X170750000Y-97450000D01*
X189400000Y-97390000D02*
X189400000Y-98300000D01*
X179300000Y-94600000D02*
X186610000Y-94600000D01*
X186610000Y-94600000D02*
X189400000Y-97390000D01*
%TO.N,HALL_11*%
X172700000Y-93100000D02*
X172100000Y-93700000D01*
X172700000Y-91850000D02*
X172700000Y-93100000D01*
X187390000Y-94100000D02*
X190680000Y-97390000D01*
X179100000Y-94100000D02*
X187390000Y-94100000D01*
X172100000Y-95400000D02*
X173700000Y-97000000D01*
D39*
X172700000Y-91080000D02*
X172700000Y-91850000D01*
D33*
X173700000Y-97000000D02*
X176200000Y-97000000D01*
X190680000Y-97390000D02*
X190680000Y-98300000D01*
X176200000Y-97000000D02*
X179100000Y-94100000D01*
X172100000Y-93700000D02*
X172100000Y-95400000D01*
%TO.N,HALL_10*%
X179200000Y-91080000D02*
X179200000Y-92800000D01*
X191940000Y-97390000D02*
X191940000Y-98300000D01*
X188150000Y-93600000D02*
X191940000Y-97390000D01*
D39*
X179200000Y-91080000D02*
X179200000Y-91800000D01*
D33*
X179200000Y-92800000D02*
X180000000Y-93600000D01*
X180000000Y-93600000D02*
X188150000Y-93600000D01*
%TO.N,HALL_9*%
X185700000Y-92300000D02*
X186200000Y-92800000D01*
X185700000Y-91080000D02*
X185700000Y-92300000D01*
X186200000Y-92800000D02*
X188620000Y-92800000D01*
X193210000Y-97390000D02*
X193210000Y-98300000D01*
X188620000Y-92800000D02*
X193210000Y-97390000D01*
%TO.N,HALL_8*%
X194480000Y-95177330D02*
X194480000Y-98300000D01*
X192200000Y-91080000D02*
X192200000Y-92897330D01*
X192200000Y-92897330D02*
X194480000Y-95177330D01*
%TO.N,HALL_7*%
X194480000Y-108690000D02*
X194480000Y-107780000D01*
X195390000Y-109600000D02*
X194480000Y-108690000D01*
X198800000Y-109600000D02*
X195390000Y-109600000D01*
%TO.N,HALL_6*%
X193210000Y-108690000D02*
X193210000Y-107780000D01*
X205200000Y-91080000D02*
X205200000Y-92700000D01*
X194570000Y-110050000D02*
X193210000Y-108690000D01*
X198986396Y-110050000D02*
X194570000Y-110050000D01*
X205200000Y-92700000D02*
X205200000Y-92800000D01*
%TO.N,HALL_5*%
X210900000Y-94800000D02*
X210200000Y-94800000D01*
X191940000Y-108690000D02*
X191940000Y-107780000D01*
X211700000Y-92850000D02*
X211550000Y-93000000D01*
X211700000Y-91080000D02*
X211700000Y-92850000D01*
X211550000Y-93000000D02*
X211550000Y-94150000D01*
X200400000Y-109272792D02*
X199172792Y-110500000D01*
X210200000Y-94800000D02*
X208100000Y-96900000D01*
X199172792Y-110500000D02*
X193750000Y-110500000D01*
X211550000Y-94150000D02*
X210900000Y-94800000D01*
X193750000Y-110500000D02*
X191940000Y-108690000D01*
%TO.N,HALL_4*%
X190680000Y-108690000D02*
X192940000Y-110950000D01*
X217600000Y-93400000D02*
X212936396Y-93400000D01*
X218200000Y-91080000D02*
X218200000Y-92800000D01*
X212936396Y-93400000D02*
X208986396Y-97350000D01*
X190680000Y-107780000D02*
X190680000Y-108690000D01*
X218200000Y-92800000D02*
X217600000Y-93400000D01*
X208986396Y-97350000D02*
X205800000Y-97350000D01*
X192940000Y-110950000D02*
X199359188Y-110950000D01*
%TO.N,HALL_3*%
X199545584Y-111400000D02*
X192110000Y-111400000D01*
X214920000Y-97900000D02*
X204000000Y-97900000D01*
X189400000Y-108690000D02*
X189400000Y-107780000D01*
D39*
X214920000Y-97900000D02*
X214172500Y-97900000D01*
D33*
X192110000Y-111400000D02*
X189400000Y-108690000D01*
%TO.N,HALL_2*%
X199731980Y-111850000D02*
X191290000Y-111850000D01*
X214932500Y-104400000D02*
X210832500Y-108500000D01*
X188130000Y-108690000D02*
X188130000Y-107780000D01*
X210832500Y-108500000D02*
X203081980Y-108500000D01*
X203081980Y-108500000D02*
X199731980Y-111850000D01*
X191290000Y-111850000D02*
X188130000Y-108690000D01*
%TO.N,HALL_1*%
X203268376Y-108950000D02*
X199918376Y-112300000D01*
X186860000Y-108690000D02*
X186860000Y-107780000D01*
X199918376Y-112300000D02*
X190470000Y-112300000D01*
X213122500Y-110900000D02*
X211172500Y-108950000D01*
X214932500Y-110900000D02*
X213122500Y-110900000D01*
X190470000Y-112300000D02*
X186860000Y-108690000D01*
X211172500Y-108950000D02*
X203268376Y-108950000D01*
%TO.N,HALL_0*%
X185590000Y-108690000D02*
X185590000Y-107780000D01*
X214932500Y-117400000D02*
X212950000Y-117400000D01*
X212950000Y-117400000D02*
X212300000Y-116750000D01*
X210400000Y-109500000D02*
X203400000Y-109500000D01*
X212300000Y-111400000D02*
X210400000Y-109500000D01*
X200150000Y-112750000D02*
X189650000Y-112750000D01*
X212300000Y-116750000D02*
X212300000Y-111400000D01*
X203400000Y-109500000D02*
X200150000Y-112750000D01*
%TO.N,MUX_OUT*%
X158275000Y-117475000D02*
X158200000Y-117400000D01*
X159850000Y-117475000D02*
X158275000Y-117475000D01*
%TO.N,S0*%
X159850000Y-115975000D02*
X158225000Y-115975000D01*
X158225000Y-115975000D02*
X158200000Y-116000000D01*
%TO.N,S1*%
X158275000Y-114475000D02*
X158200000Y-114400000D01*
X159850000Y-114475000D02*
X158275000Y-114475000D01*
%TO.N,S2*%
X159850000Y-112975000D02*
X158225000Y-112975000D01*
X158225000Y-112975000D02*
X158200000Y-113000000D01*
%TO.N,S3*%
X158275000Y-111475000D02*
X158200000Y-111400000D01*
X160325000Y-111475000D02*
X160425000Y-111575000D01*
X159850000Y-111475000D02*
X158275000Y-111475000D01*
%TO.N,EN*%
X159850000Y-118975000D02*
X161425000Y-118975000D01*
D39*
X163000000Y-117400000D02*
X161425000Y-118975000D01*
D33*
%TO.N,-IN*%
X176950000Y-116350000D02*
X176950000Y-116700000D01*
%TD*%
%TA.AperFunction,Conductor*%
%TO.N,GND*%
G36*
X142141003Y-85830185D02*
G01*
X142186758Y-85882989D01*
X142196702Y-85952147D01*
X142190145Y-85977835D01*
X142148011Y-86090795D01*
X142148011Y-86090797D01*
X142141500Y-86151345D01*
X142141500Y-88248654D01*
X142148011Y-88309202D01*
X142148011Y-88309204D01*
X142199111Y-88446204D01*
X142286739Y-88563261D01*
X142403796Y-88650889D01*
X142540799Y-88701989D01*
X142568050Y-88704918D01*
X142601345Y-88708499D01*
X142601362Y-88708500D01*
X144198638Y-88708500D01*
X144198654Y-88708499D01*
X144225692Y-88705591D01*
X144259201Y-88701989D01*
X144396204Y-88650889D01*
X144513261Y-88563261D01*
X144600889Y-88446204D01*
X144651989Y-88309201D01*
X144655591Y-88275692D01*
X144658499Y-88248654D01*
X144658500Y-88248637D01*
X144658500Y-86151362D01*
X144658499Y-86151345D01*
X144655157Y-86120270D01*
X144651989Y-86090799D01*
X144609854Y-85977834D01*
X144604870Y-85908143D01*
X144638354Y-85846820D01*
X144699677Y-85813334D01*
X144726036Y-85810500D01*
X146673964Y-85810500D01*
X146741003Y-85830185D01*
X146786758Y-85882989D01*
X146796702Y-85952147D01*
X146790145Y-85977835D01*
X146748011Y-86090795D01*
X146748011Y-86090797D01*
X146741500Y-86151345D01*
X146741500Y-88248654D01*
X146748011Y-88309202D01*
X146748011Y-88309204D01*
X146799111Y-88446204D01*
X146886739Y-88563261D01*
X147003796Y-88650889D01*
X147140799Y-88701989D01*
X147168050Y-88704918D01*
X147201345Y-88708499D01*
X147201362Y-88708500D01*
X148798638Y-88708500D01*
X148798654Y-88708499D01*
X148845277Y-88703485D01*
X148859201Y-88701989D01*
X148906666Y-88684284D01*
X148976357Y-88679300D01*
X148993329Y-88684283D01*
X149040799Y-88701989D01*
X149047760Y-88702737D01*
X149101345Y-88708499D01*
X149101362Y-88708500D01*
X150698638Y-88708500D01*
X150698654Y-88708499D01*
X150725692Y-88705591D01*
X150759201Y-88701989D01*
X150896204Y-88650889D01*
X151013261Y-88563261D01*
X151100889Y-88446204D01*
X151151989Y-88309201D01*
X151155591Y-88275692D01*
X151158499Y-88248654D01*
X151158500Y-88248637D01*
X151158500Y-86151362D01*
X151158499Y-86151345D01*
X151155157Y-86120270D01*
X151151989Y-86090799D01*
X151109854Y-85977834D01*
X151104870Y-85908143D01*
X151138354Y-85846820D01*
X151199677Y-85813334D01*
X151226036Y-85810500D01*
X153173964Y-85810500D01*
X153241003Y-85830185D01*
X153286758Y-85882989D01*
X153296702Y-85952147D01*
X153290145Y-85977835D01*
X153248011Y-86090795D01*
X153248011Y-86090797D01*
X153241500Y-86151345D01*
X153241500Y-88248654D01*
X153248011Y-88309202D01*
X153248011Y-88309204D01*
X153299111Y-88446204D01*
X153386739Y-88563261D01*
X153503796Y-88650889D01*
X153640799Y-88701989D01*
X153668050Y-88704918D01*
X153701345Y-88708499D01*
X153701362Y-88708500D01*
X155298638Y-88708500D01*
X155298654Y-88708499D01*
X155345277Y-88703485D01*
X155359201Y-88701989D01*
X155406666Y-88684284D01*
X155476357Y-88679300D01*
X155493329Y-88684283D01*
X155540799Y-88701989D01*
X155547760Y-88702737D01*
X155601345Y-88708499D01*
X155601362Y-88708500D01*
X157198638Y-88708500D01*
X157198654Y-88708499D01*
X157225692Y-88705591D01*
X157259201Y-88701989D01*
X157396204Y-88650889D01*
X157513261Y-88563261D01*
X157600889Y-88446204D01*
X157651989Y-88309201D01*
X157655591Y-88275692D01*
X157658499Y-88248654D01*
X157658500Y-88248637D01*
X157658500Y-86151362D01*
X157658499Y-86151345D01*
X157655157Y-86120270D01*
X157651989Y-86090799D01*
X157609854Y-85977834D01*
X157604870Y-85908143D01*
X157638354Y-85846820D01*
X157699677Y-85813334D01*
X157726036Y-85810500D01*
X159673964Y-85810500D01*
X159741003Y-85830185D01*
X159786758Y-85882989D01*
X159796702Y-85952147D01*
X159790145Y-85977835D01*
X159748011Y-86090795D01*
X159748011Y-86090797D01*
X159741500Y-86151345D01*
X159741500Y-88248654D01*
X159748011Y-88309202D01*
X159748011Y-88309204D01*
X159799111Y-88446204D01*
X159886739Y-88563261D01*
X160003796Y-88650889D01*
X160140799Y-88701989D01*
X160168050Y-88704918D01*
X160201345Y-88708499D01*
X160201362Y-88708500D01*
X161798638Y-88708500D01*
X161798654Y-88708499D01*
X161845277Y-88703485D01*
X161859201Y-88701989D01*
X161906666Y-88684284D01*
X161976357Y-88679300D01*
X161993329Y-88684283D01*
X162040799Y-88701989D01*
X162047760Y-88702737D01*
X162101345Y-88708499D01*
X162101362Y-88708500D01*
X163698638Y-88708500D01*
X163698654Y-88708499D01*
X163725692Y-88705591D01*
X163759201Y-88701989D01*
X163896204Y-88650889D01*
X164013261Y-88563261D01*
X164100889Y-88446204D01*
X164151989Y-88309201D01*
X164155591Y-88275692D01*
X164158499Y-88248654D01*
X164158500Y-88248637D01*
X164158500Y-86151362D01*
X164158499Y-86151345D01*
X164155157Y-86120270D01*
X164151989Y-86090799D01*
X164109854Y-85977834D01*
X164104870Y-85908143D01*
X164138354Y-85846820D01*
X164199677Y-85813334D01*
X164226036Y-85810500D01*
X166173964Y-85810500D01*
X166241003Y-85830185D01*
X166286758Y-85882989D01*
X166296702Y-85952147D01*
X166290145Y-85977835D01*
X166248011Y-86090795D01*
X166248011Y-86090797D01*
X166241500Y-86151345D01*
X166241500Y-88248654D01*
X166248011Y-88309202D01*
X166248011Y-88309204D01*
X166299111Y-88446204D01*
X166386739Y-88563261D01*
X166503796Y-88650889D01*
X166640799Y-88701989D01*
X166668050Y-88704918D01*
X166701345Y-88708499D01*
X166701362Y-88708500D01*
X168298638Y-88708500D01*
X168298654Y-88708499D01*
X168345277Y-88703485D01*
X168359201Y-88701989D01*
X168406666Y-88684284D01*
X168476357Y-88679300D01*
X168493329Y-88684283D01*
X168540799Y-88701989D01*
X168547760Y-88702737D01*
X168601345Y-88708499D01*
X168601362Y-88708500D01*
X170198638Y-88708500D01*
X170198654Y-88708499D01*
X170225692Y-88705591D01*
X170259201Y-88701989D01*
X170396204Y-88650889D01*
X170513261Y-88563261D01*
X170600889Y-88446204D01*
X170651989Y-88309201D01*
X170655591Y-88275692D01*
X170658499Y-88248654D01*
X170658500Y-88248637D01*
X170658500Y-86151362D01*
X170658499Y-86151345D01*
X170655157Y-86120270D01*
X170651989Y-86090799D01*
X170609854Y-85977834D01*
X170604870Y-85908143D01*
X170638354Y-85846820D01*
X170699677Y-85813334D01*
X170726036Y-85810500D01*
X172673964Y-85810500D01*
X172741003Y-85830185D01*
X172786758Y-85882989D01*
X172796702Y-85952147D01*
X172790145Y-85977835D01*
X172748011Y-86090795D01*
X172748011Y-86090797D01*
X172741500Y-86151345D01*
X172741500Y-88248654D01*
X172748011Y-88309202D01*
X172748011Y-88309204D01*
X172799111Y-88446204D01*
X172886739Y-88563261D01*
X173003796Y-88650889D01*
X173140799Y-88701989D01*
X173168050Y-88704918D01*
X173201345Y-88708499D01*
X173201362Y-88708500D01*
X174798638Y-88708500D01*
X174798654Y-88708499D01*
X174845277Y-88703485D01*
X174859201Y-88701989D01*
X174906666Y-88684284D01*
X174976357Y-88679300D01*
X174993329Y-88684283D01*
X175040799Y-88701989D01*
X175047760Y-88702737D01*
X175101345Y-88708499D01*
X175101362Y-88708500D01*
X176698638Y-88708500D01*
X176698654Y-88708499D01*
X176725692Y-88705591D01*
X176759201Y-88701989D01*
X176896204Y-88650889D01*
X177013261Y-88563261D01*
X177100889Y-88446204D01*
X177151989Y-88309201D01*
X177155591Y-88275692D01*
X177158499Y-88248654D01*
X177158500Y-88248637D01*
X177158500Y-86151362D01*
X177158499Y-86151345D01*
X177155157Y-86120270D01*
X177151989Y-86090799D01*
X177109854Y-85977834D01*
X177104870Y-85908143D01*
X177138354Y-85846820D01*
X177199677Y-85813334D01*
X177226036Y-85810500D01*
X179173964Y-85810500D01*
X179241003Y-85830185D01*
X179286758Y-85882989D01*
X179296702Y-85952147D01*
X179290145Y-85977835D01*
X179248011Y-86090795D01*
X179248011Y-86090797D01*
X179241500Y-86151345D01*
X179241500Y-88248654D01*
X179248011Y-88309202D01*
X179248011Y-88309204D01*
X179299111Y-88446204D01*
X179386739Y-88563261D01*
X179503796Y-88650889D01*
X179640799Y-88701989D01*
X179668050Y-88704918D01*
X179701345Y-88708499D01*
X179701362Y-88708500D01*
X181298638Y-88708500D01*
X181298654Y-88708499D01*
X181345277Y-88703485D01*
X181359201Y-88701989D01*
X181406666Y-88684284D01*
X181476357Y-88679300D01*
X181493329Y-88684283D01*
X181540799Y-88701989D01*
X181547760Y-88702737D01*
X181601345Y-88708499D01*
X181601362Y-88708500D01*
X183198638Y-88708500D01*
X183198654Y-88708499D01*
X183225692Y-88705591D01*
X183259201Y-88701989D01*
X183396204Y-88650889D01*
X183513261Y-88563261D01*
X183600889Y-88446204D01*
X183651989Y-88309201D01*
X183655591Y-88275692D01*
X183658499Y-88248654D01*
X183658500Y-88248637D01*
X183658500Y-86151362D01*
X183658499Y-86151345D01*
X183655157Y-86120270D01*
X183651989Y-86090799D01*
X183609854Y-85977834D01*
X183604870Y-85908143D01*
X183638354Y-85846820D01*
X183699677Y-85813334D01*
X183726036Y-85810500D01*
X185673964Y-85810500D01*
X185741003Y-85830185D01*
X185786758Y-85882989D01*
X185796702Y-85952147D01*
X185790145Y-85977835D01*
X185748011Y-86090795D01*
X185748011Y-86090797D01*
X185741500Y-86151345D01*
X185741500Y-88248654D01*
X185748011Y-88309202D01*
X185748011Y-88309204D01*
X185799111Y-88446204D01*
X185886739Y-88563261D01*
X186003796Y-88650889D01*
X186140799Y-88701989D01*
X186168050Y-88704918D01*
X186201345Y-88708499D01*
X186201362Y-88708500D01*
X187798638Y-88708500D01*
X187798654Y-88708499D01*
X187845277Y-88703485D01*
X187859201Y-88701989D01*
X187906666Y-88684284D01*
X187976357Y-88679300D01*
X187993329Y-88684283D01*
X188040799Y-88701989D01*
X188047760Y-88702737D01*
X188101345Y-88708499D01*
X188101362Y-88708500D01*
X189698638Y-88708500D01*
X189698654Y-88708499D01*
X189725692Y-88705591D01*
X189759201Y-88701989D01*
X189896204Y-88650889D01*
X190013261Y-88563261D01*
X190100889Y-88446204D01*
X190151989Y-88309201D01*
X190155591Y-88275692D01*
X190158499Y-88248654D01*
X190158500Y-88248637D01*
X190158500Y-86151362D01*
X190158499Y-86151345D01*
X190155157Y-86120270D01*
X190151989Y-86090799D01*
X190109854Y-85977834D01*
X190104870Y-85908143D01*
X190138354Y-85846820D01*
X190199677Y-85813334D01*
X190226036Y-85810500D01*
X192173964Y-85810500D01*
X192241003Y-85830185D01*
X192286758Y-85882989D01*
X192296702Y-85952147D01*
X192290145Y-85977835D01*
X192248011Y-86090795D01*
X192248011Y-86090797D01*
X192241500Y-86151345D01*
X192241500Y-88248654D01*
X192248011Y-88309202D01*
X192248011Y-88309204D01*
X192299111Y-88446204D01*
X192386739Y-88563261D01*
X192503796Y-88650889D01*
X192640799Y-88701989D01*
X192668050Y-88704918D01*
X192701345Y-88708499D01*
X192701362Y-88708500D01*
X194298638Y-88708500D01*
X194298654Y-88708499D01*
X194345277Y-88703485D01*
X194359201Y-88701989D01*
X194406666Y-88684284D01*
X194476357Y-88679300D01*
X194493329Y-88684283D01*
X194540799Y-88701989D01*
X194547760Y-88702737D01*
X194601345Y-88708499D01*
X194601362Y-88708500D01*
X196198638Y-88708500D01*
X196198654Y-88708499D01*
X196225692Y-88705591D01*
X196259201Y-88701989D01*
X196396204Y-88650889D01*
X196513261Y-88563261D01*
X196600889Y-88446204D01*
X196651989Y-88309201D01*
X196655591Y-88275692D01*
X196658499Y-88248654D01*
X196658500Y-88248637D01*
X196658500Y-86151362D01*
X196658499Y-86151345D01*
X196655157Y-86120270D01*
X196651989Y-86090799D01*
X196609854Y-85977834D01*
X196604870Y-85908143D01*
X196638354Y-85846820D01*
X196699677Y-85813334D01*
X196726036Y-85810500D01*
X198673964Y-85810500D01*
X198741003Y-85830185D01*
X198786758Y-85882989D01*
X198796702Y-85952147D01*
X198790145Y-85977835D01*
X198748011Y-86090795D01*
X198748011Y-86090797D01*
X198741500Y-86151345D01*
X198741500Y-88248654D01*
X198748011Y-88309202D01*
X198748011Y-88309204D01*
X198799111Y-88446204D01*
X198886739Y-88563261D01*
X199003796Y-88650889D01*
X199140799Y-88701989D01*
X199168050Y-88704918D01*
X199201345Y-88708499D01*
X199201362Y-88708500D01*
X200798638Y-88708500D01*
X200798654Y-88708499D01*
X200845277Y-88703485D01*
X200859201Y-88701989D01*
X200906666Y-88684284D01*
X200976357Y-88679300D01*
X200993329Y-88684283D01*
X201040799Y-88701989D01*
X201047760Y-88702737D01*
X201101345Y-88708499D01*
X201101362Y-88708500D01*
X202698638Y-88708500D01*
X202698654Y-88708499D01*
X202725692Y-88705591D01*
X202759201Y-88701989D01*
X202896204Y-88650889D01*
X203013261Y-88563261D01*
X203100889Y-88446204D01*
X203151989Y-88309201D01*
X203155591Y-88275692D01*
X203158499Y-88248654D01*
X203158500Y-88248637D01*
X203158500Y-86151362D01*
X203158499Y-86151345D01*
X203155157Y-86120270D01*
X203151989Y-86090799D01*
X203109854Y-85977834D01*
X203104870Y-85908143D01*
X203138354Y-85846820D01*
X203199677Y-85813334D01*
X203226036Y-85810500D01*
X205173964Y-85810500D01*
X205241003Y-85830185D01*
X205286758Y-85882989D01*
X205296702Y-85952147D01*
X205290145Y-85977835D01*
X205248011Y-86090795D01*
X205248011Y-86090797D01*
X205241500Y-86151345D01*
X205241500Y-88248654D01*
X205248011Y-88309202D01*
X205248011Y-88309204D01*
X205299111Y-88446204D01*
X205386739Y-88563261D01*
X205503796Y-88650889D01*
X205640799Y-88701989D01*
X205668050Y-88704918D01*
X205701345Y-88708499D01*
X205701362Y-88708500D01*
X207298638Y-88708500D01*
X207298654Y-88708499D01*
X207345277Y-88703485D01*
X207359201Y-88701989D01*
X207406666Y-88684284D01*
X207476357Y-88679300D01*
X207493329Y-88684283D01*
X207540799Y-88701989D01*
X207547760Y-88702737D01*
X207601345Y-88708499D01*
X207601362Y-88708500D01*
X209198638Y-88708500D01*
X209198654Y-88708499D01*
X209225692Y-88705591D01*
X209259201Y-88701989D01*
X209396204Y-88650889D01*
X209513261Y-88563261D01*
X209600889Y-88446204D01*
X209651989Y-88309201D01*
X209655591Y-88275692D01*
X209658499Y-88248654D01*
X209658500Y-88248637D01*
X209658500Y-86151362D01*
X209658499Y-86151345D01*
X209655157Y-86120270D01*
X209651989Y-86090799D01*
X209609854Y-85977834D01*
X209604870Y-85908143D01*
X209638354Y-85846820D01*
X209699677Y-85813334D01*
X209726036Y-85810500D01*
X211673964Y-85810500D01*
X211741003Y-85830185D01*
X211786758Y-85882989D01*
X211796702Y-85952147D01*
X211790145Y-85977835D01*
X211748011Y-86090795D01*
X211748011Y-86090797D01*
X211741500Y-86151345D01*
X211741500Y-88248654D01*
X211748011Y-88309202D01*
X211748011Y-88309204D01*
X211799111Y-88446204D01*
X211886739Y-88563261D01*
X212003796Y-88650889D01*
X212140799Y-88701989D01*
X212168050Y-88704918D01*
X212201345Y-88708499D01*
X212201362Y-88708500D01*
X213798638Y-88708500D01*
X213798654Y-88708499D01*
X213845277Y-88703485D01*
X213859201Y-88701989D01*
X213906666Y-88684284D01*
X213976357Y-88679300D01*
X213993329Y-88684283D01*
X214040799Y-88701989D01*
X214047760Y-88702737D01*
X214101345Y-88708499D01*
X214101362Y-88708500D01*
X215698638Y-88708500D01*
X215698654Y-88708499D01*
X215725692Y-88705591D01*
X215759201Y-88701989D01*
X215896204Y-88650889D01*
X216013261Y-88563261D01*
X216100889Y-88446204D01*
X216151989Y-88309201D01*
X216155591Y-88275692D01*
X216158499Y-88248654D01*
X216158500Y-88248637D01*
X216158500Y-86151362D01*
X216158499Y-86151345D01*
X216155157Y-86120270D01*
X216151989Y-86090799D01*
X216109854Y-85977834D01*
X216104870Y-85908143D01*
X216138354Y-85846820D01*
X216199677Y-85813334D01*
X216226036Y-85810500D01*
X218173964Y-85810500D01*
X218241003Y-85830185D01*
X218286758Y-85882989D01*
X218296702Y-85952147D01*
X218290145Y-85977835D01*
X218248011Y-86090795D01*
X218248011Y-86090797D01*
X218241500Y-86151345D01*
X218241500Y-88248654D01*
X218248011Y-88309202D01*
X218248011Y-88309204D01*
X218299111Y-88446204D01*
X218386739Y-88563261D01*
X218503796Y-88650889D01*
X218640799Y-88701989D01*
X218668050Y-88704918D01*
X218701345Y-88708499D01*
X218701362Y-88708500D01*
X220298638Y-88708500D01*
X220298654Y-88708499D01*
X220352244Y-88702737D01*
X220421003Y-88715141D01*
X220472141Y-88762751D01*
X220489500Y-88826026D01*
X220489500Y-93556252D01*
X220469815Y-93623291D01*
X220417011Y-93669046D01*
X220347853Y-93678990D01*
X220284297Y-93649965D01*
X220256953Y-93610583D01*
X220255137Y-93611576D01*
X220250889Y-93603797D01*
X220250889Y-93603796D01*
X220163261Y-93486739D01*
X220046204Y-93399111D01*
X220042129Y-93397591D01*
X219909203Y-93348011D01*
X219848654Y-93341500D01*
X219848638Y-93341500D01*
X218832073Y-93341500D01*
X218765034Y-93321815D01*
X218719279Y-93269011D01*
X218709335Y-93199853D01*
X218728971Y-93148609D01*
X218761396Y-93100081D01*
X218761396Y-93100080D01*
X218761400Y-93100075D01*
X218809155Y-92984785D01*
X218833500Y-92862394D01*
X218833500Y-92737606D01*
X218833500Y-92299288D01*
X218853185Y-92232249D01*
X218858233Y-92224977D01*
X218863261Y-92218261D01*
X218950889Y-92101204D01*
X219001989Y-91964201D01*
X219005591Y-91930692D01*
X219008499Y-91903654D01*
X219008500Y-91903637D01*
X219008500Y-90256362D01*
X219008499Y-90256345D01*
X219005157Y-90225270D01*
X219001989Y-90195799D01*
X218950889Y-90058796D01*
X218863261Y-89941739D01*
X218746204Y-89854111D01*
X218609203Y-89803011D01*
X218548654Y-89796500D01*
X218548638Y-89796500D01*
X217851362Y-89796500D01*
X217851345Y-89796500D01*
X217790797Y-89803011D01*
X217790795Y-89803011D01*
X217653795Y-89854111D01*
X217536739Y-89941739D01*
X217449111Y-90058795D01*
X217398011Y-90195795D01*
X217398011Y-90195797D01*
X217391500Y-90256345D01*
X217391500Y-91903654D01*
X217398011Y-91964202D01*
X217398011Y-91964204D01*
X217436196Y-92066578D01*
X217449111Y-92101204D01*
X217536607Y-92218085D01*
X217541767Y-92224977D01*
X217566184Y-92290442D01*
X217566500Y-92299288D01*
X217566500Y-92486234D01*
X217546815Y-92553273D01*
X217530181Y-92573915D01*
X217373915Y-92730181D01*
X217312592Y-92763666D01*
X217286234Y-92766500D01*
X217132500Y-92766500D01*
X217065461Y-92746815D01*
X217019706Y-92694011D01*
X217008500Y-92642500D01*
X217008500Y-92251362D01*
X217008499Y-92251345D01*
X217001989Y-92190800D01*
X217001988Y-92190797D01*
X217001987Y-92190795D01*
X216975893Y-92120833D01*
X216970908Y-92051143D01*
X216975893Y-92034166D01*
X216988947Y-91999167D01*
X217001989Y-91964201D01*
X217003485Y-91950277D01*
X217008499Y-91903654D01*
X217008500Y-91903637D01*
X217008500Y-90256362D01*
X217008499Y-90256345D01*
X217005157Y-90225270D01*
X217001989Y-90195799D01*
X216950889Y-90058796D01*
X216863261Y-89941739D01*
X216746204Y-89854111D01*
X216609203Y-89803011D01*
X216548654Y-89796500D01*
X216548638Y-89796500D01*
X215851362Y-89796500D01*
X215851345Y-89796500D01*
X215790797Y-89803011D01*
X215790795Y-89803011D01*
X215653795Y-89854111D01*
X215536739Y-89941739D01*
X215449111Y-90058795D01*
X215398011Y-90195795D01*
X215398011Y-90195797D01*
X215391500Y-90256345D01*
X215391500Y-91903654D01*
X215398010Y-91964197D01*
X215398012Y-91964205D01*
X215424106Y-92034167D01*
X215429090Y-92103859D01*
X215424106Y-92120833D01*
X215398012Y-92190794D01*
X215398010Y-92190802D01*
X215391500Y-92251345D01*
X215391500Y-92642500D01*
X215371815Y-92709539D01*
X215319011Y-92755294D01*
X215267500Y-92766500D01*
X212873997Y-92766500D01*
X212751618Y-92790843D01*
X212751606Y-92790846D01*
X212729945Y-92799819D01*
X212636320Y-92838599D01*
X212636317Y-92838600D01*
X212527498Y-92911312D01*
X212526117Y-92909245D01*
X212471822Y-92932288D01*
X212402958Y-92920478D01*
X212351410Y-92873313D01*
X212333500Y-92809118D01*
X212333500Y-92299288D01*
X212353185Y-92232249D01*
X212358233Y-92224977D01*
X212363261Y-92218261D01*
X212450889Y-92101204D01*
X212501989Y-91964201D01*
X212505591Y-91930692D01*
X212508499Y-91903654D01*
X212508500Y-91903637D01*
X212508500Y-90256362D01*
X212508499Y-90256345D01*
X212505157Y-90225270D01*
X212501989Y-90195799D01*
X212450889Y-90058796D01*
X212363261Y-89941739D01*
X212246204Y-89854111D01*
X212109203Y-89803011D01*
X212048654Y-89796500D01*
X212048638Y-89796500D01*
X211351362Y-89796500D01*
X211351345Y-89796500D01*
X211290797Y-89803011D01*
X211290795Y-89803011D01*
X211153795Y-89854111D01*
X211036739Y-89941739D01*
X210949111Y-90058795D01*
X210898011Y-90195795D01*
X210898011Y-90195797D01*
X210891500Y-90256345D01*
X210891500Y-91903654D01*
X210898011Y-91964202D01*
X210898011Y-91964204D01*
X210936196Y-92066578D01*
X210949111Y-92101204D01*
X211036607Y-92218085D01*
X211041767Y-92224977D01*
X211066184Y-92290442D01*
X211066500Y-92299288D01*
X211066500Y-92545724D01*
X211046815Y-92612763D01*
X211045602Y-92614615D01*
X210988603Y-92699918D01*
X210988598Y-92699927D01*
X210940845Y-92815214D01*
X210940843Y-92815222D01*
X210916500Y-92937601D01*
X210916500Y-93836234D01*
X210896815Y-93903273D01*
X210880181Y-93923915D01*
X210673915Y-94130181D01*
X210612592Y-94163666D01*
X210586234Y-94166500D01*
X210137601Y-94166500D01*
X210015222Y-94190843D01*
X210015214Y-94190845D01*
X209910656Y-94234155D01*
X209910655Y-94234155D01*
X209899929Y-94238597D01*
X209899922Y-94238601D01*
X209796171Y-94307925D01*
X209796168Y-94307927D01*
X209718749Y-94385346D01*
X209657425Y-94418830D01*
X209587734Y-94413846D01*
X209531800Y-94371974D01*
X209507384Y-94306509D01*
X209507313Y-94305449D01*
X209503107Y-94238597D01*
X209498393Y-94163666D01*
X209494234Y-94097549D01*
X209494233Y-94097544D01*
X209494233Y-94097538D01*
X209437445Y-93799846D01*
X209363029Y-93570818D01*
X209361034Y-93500977D01*
X209397114Y-93441144D01*
X209459815Y-93410316D01*
X209480960Y-93408500D01*
X210048638Y-93408500D01*
X210048654Y-93408499D01*
X210075692Y-93405591D01*
X210109201Y-93401989D01*
X210114317Y-93400081D01*
X210123768Y-93396555D01*
X210246204Y-93350889D01*
X210363261Y-93263261D01*
X210450889Y-93146204D01*
X210501989Y-93009201D01*
X210507308Y-92959728D01*
X210508499Y-92948654D01*
X210508500Y-92948637D01*
X210508500Y-92251362D01*
X210508499Y-92251345D01*
X210501989Y-92190800D01*
X210501988Y-92190797D01*
X210501987Y-92190795D01*
X210475893Y-92120833D01*
X210470908Y-92051143D01*
X210475893Y-92034166D01*
X210488947Y-91999167D01*
X210501989Y-91964201D01*
X210503485Y-91950277D01*
X210508499Y-91903654D01*
X210508500Y-91903637D01*
X210508500Y-90256362D01*
X210508499Y-90256345D01*
X210505157Y-90225270D01*
X210501989Y-90195799D01*
X210450889Y-90058796D01*
X210363261Y-89941739D01*
X210246204Y-89854111D01*
X210109203Y-89803011D01*
X210048654Y-89796500D01*
X210048638Y-89796500D01*
X209351362Y-89796500D01*
X209351345Y-89796500D01*
X209290797Y-89803011D01*
X209290795Y-89803011D01*
X209153795Y-89854111D01*
X209036739Y-89941739D01*
X208949111Y-90058795D01*
X208898011Y-90195795D01*
X208898011Y-90195797D01*
X208891500Y-90256345D01*
X208891500Y-91903654D01*
X208898010Y-91964197D01*
X208898012Y-91964205D01*
X208924106Y-92034167D01*
X208929090Y-92103859D01*
X208924106Y-92120833D01*
X208898012Y-92190794D01*
X208898010Y-92190802D01*
X208891500Y-92251345D01*
X208891500Y-92491800D01*
X208871815Y-92558839D01*
X208819011Y-92604594D01*
X208749853Y-92614538D01*
X208686297Y-92585513D01*
X208682617Y-92582193D01*
X208638272Y-92540551D01*
X208638262Y-92540543D01*
X208393101Y-92362423D01*
X208393094Y-92362418D01*
X208393090Y-92362416D01*
X208127517Y-92216415D01*
X208127514Y-92216413D01*
X208127509Y-92216411D01*
X208127508Y-92216410D01*
X207845742Y-92104851D01*
X207845739Y-92104850D01*
X207552197Y-92029483D01*
X207251539Y-91991500D01*
X207251530Y-91991500D01*
X206948470Y-91991500D01*
X206948460Y-91991500D01*
X206647802Y-92029483D01*
X206354265Y-92104849D01*
X206138687Y-92190202D01*
X206069109Y-92196578D01*
X206007129Y-92164325D01*
X205972425Y-92103683D01*
X205976015Y-92033906D01*
X205976817Y-92031687D01*
X206001989Y-91964201D01*
X206002546Y-91959019D01*
X206008499Y-91903654D01*
X206008500Y-91903637D01*
X206008500Y-90256362D01*
X206008499Y-90256345D01*
X206005157Y-90225270D01*
X206001989Y-90195799D01*
X205950889Y-90058796D01*
X205863261Y-89941739D01*
X205746204Y-89854111D01*
X205609203Y-89803011D01*
X205548654Y-89796500D01*
X205548638Y-89796500D01*
X204851362Y-89796500D01*
X204851345Y-89796500D01*
X204790797Y-89803011D01*
X204790795Y-89803011D01*
X204653795Y-89854111D01*
X204536739Y-89941739D01*
X204449111Y-90058795D01*
X204398011Y-90195795D01*
X204398011Y-90195797D01*
X204391500Y-90256345D01*
X204391500Y-91903654D01*
X204398011Y-91964202D01*
X204398011Y-91964204D01*
X204436196Y-92066578D01*
X204449111Y-92101204D01*
X204536607Y-92218085D01*
X204541767Y-92224977D01*
X204566184Y-92290442D01*
X204566500Y-92299288D01*
X204566500Y-92486997D01*
X204546815Y-92554036D01*
X204530181Y-92574678D01*
X204120181Y-92984678D01*
X204058858Y-93018163D01*
X203989166Y-93013179D01*
X203933233Y-92971307D01*
X203908816Y-92905843D01*
X203908500Y-92896997D01*
X203908500Y-92251362D01*
X203908499Y-92251350D01*
X203905943Y-92227576D01*
X203904922Y-92218083D01*
X203917326Y-92149326D01*
X203928944Y-92130518D01*
X203950889Y-92101204D01*
X204001989Y-91964201D01*
X204005591Y-91930692D01*
X204008499Y-91903654D01*
X204008500Y-91903637D01*
X204008500Y-90256362D01*
X204008499Y-90256345D01*
X204005157Y-90225270D01*
X204001989Y-90195799D01*
X203950889Y-90058796D01*
X203863261Y-89941739D01*
X203746204Y-89854111D01*
X203609203Y-89803011D01*
X203548654Y-89796500D01*
X203548638Y-89796500D01*
X202851362Y-89796500D01*
X202851345Y-89796500D01*
X202790797Y-89803011D01*
X202790795Y-89803011D01*
X202653795Y-89854111D01*
X202536739Y-89941739D01*
X202449111Y-90058795D01*
X202398011Y-90195795D01*
X202398011Y-90195797D01*
X202391500Y-90256345D01*
X202391500Y-91903654D01*
X202395077Y-91936915D01*
X202382672Y-92005675D01*
X202371056Y-92024480D01*
X202349113Y-92053792D01*
X202349110Y-92053799D01*
X202298011Y-92190795D01*
X202298011Y-92190797D01*
X202291500Y-92251345D01*
X202291500Y-92948654D01*
X202298011Y-93009202D01*
X202298011Y-93009204D01*
X202349111Y-93146204D01*
X202436739Y-93263261D01*
X202553796Y-93350889D01*
X202660197Y-93390575D01*
X202685683Y-93400081D01*
X202690799Y-93401989D01*
X202718050Y-93404918D01*
X202751345Y-93408499D01*
X202751362Y-93408500D01*
X203396997Y-93408500D01*
X203464036Y-93428185D01*
X203509791Y-93480989D01*
X203519735Y-93550147D01*
X203490710Y-93613703D01*
X203484678Y-93620181D01*
X202044641Y-95060218D01*
X201983318Y-95093703D01*
X201913626Y-95088719D01*
X201857693Y-95046847D01*
X201833276Y-94981383D01*
X201832960Y-94972537D01*
X201832960Y-94937658D01*
X201832959Y-94937654D01*
X201820944Y-94877248D01*
X201808636Y-94815372D01*
X201760922Y-94700181D01*
X201760921Y-94700180D01*
X201760918Y-94700174D01*
X201691652Y-94596511D01*
X201691649Y-94596507D01*
X201599170Y-94504028D01*
X201599147Y-94504007D01*
X199417892Y-92322751D01*
X199384407Y-92261428D01*
X199389391Y-92191736D01*
X199406304Y-92160761D01*
X199450889Y-92101204D01*
X199501989Y-91964201D01*
X199505591Y-91930692D01*
X199508499Y-91903654D01*
X199508500Y-91903637D01*
X199508500Y-90256362D01*
X199508499Y-90256345D01*
X199505157Y-90225270D01*
X199501989Y-90195799D01*
X199450889Y-90058796D01*
X199363261Y-89941739D01*
X199246204Y-89854111D01*
X199109203Y-89803011D01*
X199048654Y-89796500D01*
X199048638Y-89796500D01*
X198351362Y-89796500D01*
X198351345Y-89796500D01*
X198290797Y-89803011D01*
X198290795Y-89803011D01*
X198153795Y-89854111D01*
X198036739Y-89941739D01*
X197949111Y-90058795D01*
X197898011Y-90195795D01*
X197898011Y-90195797D01*
X197891500Y-90256345D01*
X197891500Y-91903654D01*
X197898011Y-91964202D01*
X197898011Y-91964204D01*
X197936196Y-92066578D01*
X197949111Y-92101204D01*
X198036739Y-92218261D01*
X198036740Y-92218262D01*
X198042054Y-92225360D01*
X198039093Y-92227576D01*
X198064206Y-92273566D01*
X198067040Y-92299924D01*
X198067040Y-92562345D01*
X198091362Y-92684620D01*
X198091364Y-92684628D01*
X198139076Y-92799816D01*
X198139081Y-92799825D01*
X198208347Y-92903488D01*
X198208350Y-92903492D01*
X200530721Y-95225861D01*
X200564206Y-95287184D01*
X200567040Y-95313542D01*
X200567040Y-106886456D01*
X200547355Y-106953495D01*
X200530721Y-106974137D01*
X199104729Y-108400128D01*
X199096572Y-108407522D01*
X198992429Y-108511666D01*
X198896169Y-108607926D01*
X198896167Y-108607928D01*
X198719141Y-108784955D01*
X198573915Y-108930181D01*
X198512592Y-108963666D01*
X198486234Y-108966500D01*
X197925141Y-108966500D01*
X197858102Y-108946815D01*
X197812347Y-108894011D01*
X197802403Y-108824853D01*
X197803524Y-108818309D01*
X197813499Y-108768157D01*
X197813500Y-108768155D01*
X197813500Y-106791844D01*
X197783007Y-106638550D01*
X197783006Y-106638549D01*
X197783006Y-106638545D01*
X197725061Y-106498654D01*
X197723191Y-106494139D01*
X197723186Y-106494130D01*
X197636351Y-106364173D01*
X197636348Y-106364169D01*
X197525830Y-106253651D01*
X197525826Y-106253648D01*
X197395869Y-106166813D01*
X197395860Y-106166808D01*
X197251455Y-106106994D01*
X197251447Y-106106992D01*
X197164364Y-106089670D01*
X197102453Y-106057285D01*
X197100874Y-106055734D01*
X195875692Y-104830550D01*
X195875688Y-104830547D01*
X195772025Y-104761281D01*
X195772016Y-104761276D01*
X195656828Y-104713564D01*
X195656820Y-104713562D01*
X195534545Y-104689240D01*
X195534541Y-104689240D01*
X183405850Y-104689240D01*
X183281169Y-104689240D01*
X183281164Y-104689240D01*
X183158889Y-104713562D01*
X183158881Y-104713564D01*
X183043693Y-104761276D01*
X183043684Y-104761281D01*
X182940021Y-104830547D01*
X182940017Y-104830550D01*
X181637739Y-106132830D01*
X181576416Y-106166315D01*
X181550058Y-106169149D01*
X181242850Y-106169149D01*
X181175811Y-106149464D01*
X181150699Y-106128121D01*
X181146308Y-106123244D01*
X181123940Y-106106992D01*
X180991806Y-106010991D01*
X180817342Y-105933315D01*
X180817340Y-105933314D01*
X180630541Y-105893609D01*
X180439567Y-105893609D01*
X180252768Y-105933314D01*
X180078300Y-106010992D01*
X179923799Y-106123244D01*
X179796013Y-106265166D01*
X179700527Y-106430552D01*
X179700524Y-106430559D01*
X179658726Y-106559201D01*
X179641512Y-106612181D01*
X179621550Y-106802109D01*
X179641512Y-106992037D01*
X179641513Y-106992040D01*
X179700524Y-107173658D01*
X179700527Y-107173665D01*
X179770752Y-107295298D01*
X179787225Y-107363198D01*
X179770755Y-107419294D01*
X179765472Y-107428444D01*
X179717916Y-107574807D01*
X179706458Y-107610072D01*
X179686496Y-107800000D01*
X179706458Y-107989928D01*
X179706459Y-107989931D01*
X179765470Y-108171549D01*
X179765473Y-108171556D01*
X179860960Y-108336944D01*
X179988747Y-108478866D01*
X180143248Y-108591118D01*
X180317712Y-108668794D01*
X180504513Y-108708500D01*
X180695487Y-108708500D01*
X180882288Y-108668794D01*
X181056752Y-108591118D01*
X181211253Y-108478866D01*
X181215645Y-108473987D01*
X181275132Y-108437340D01*
X181307796Y-108432960D01*
X181462342Y-108432960D01*
X181462343Y-108432959D01*
X181584628Y-108408636D01*
X181699819Y-108360922D01*
X181803489Y-108291652D01*
X183314819Y-106780320D01*
X183376142Y-106746836D01*
X183445833Y-106751820D01*
X183501767Y-106793692D01*
X183526184Y-106859156D01*
X183526500Y-106868002D01*
X183526500Y-107626278D01*
X183506815Y-107693317D01*
X183490181Y-107713959D01*
X181966378Y-109237761D01*
X181905055Y-109271246D01*
X181902766Y-109271604D01*
X181902787Y-109271707D01*
X181896356Y-109272986D01*
X181896353Y-109272986D01*
X181896351Y-109272987D01*
X181790946Y-109305831D01*
X181732086Y-109324173D01*
X181584841Y-109413186D01*
X181463186Y-109534841D01*
X181374173Y-109682086D01*
X181322986Y-109846354D01*
X181316500Y-109917737D01*
X181316500Y-110432272D01*
X181322985Y-110503645D01*
X181322988Y-110503655D01*
X181374171Y-110667909D01*
X181374172Y-110667911D01*
X181374173Y-110667913D01*
X181414048Y-110733874D01*
X181463186Y-110815158D01*
X181560347Y-110912319D01*
X181593832Y-110973642D01*
X181588848Y-111043334D01*
X181560347Y-111087681D01*
X181492307Y-111155721D01*
X181430984Y-111189206D01*
X181404626Y-111192040D01*
X180812654Y-111192040D01*
X180690379Y-111216362D01*
X180690371Y-111216364D01*
X180575183Y-111264076D01*
X180575174Y-111264081D01*
X180471511Y-111333347D01*
X180471507Y-111333350D01*
X179649676Y-112155181D01*
X179588353Y-112188666D01*
X179561995Y-112191500D01*
X179267727Y-112191500D01*
X179196354Y-112197985D01*
X179196344Y-112197988D01*
X179032089Y-112249171D01*
X179032085Y-112249173D01*
X178970149Y-112286615D01*
X178902594Y-112304451D01*
X178836121Y-112282933D01*
X178818319Y-112268179D01*
X176974819Y-110424678D01*
X176941334Y-110363355D01*
X176938500Y-110336997D01*
X176938500Y-109176362D01*
X176938499Y-109176345D01*
X176935157Y-109145270D01*
X176931989Y-109115799D01*
X176880889Y-108978796D01*
X176793261Y-108861739D01*
X176676204Y-108774111D01*
X176660230Y-108768153D01*
X176539203Y-108723011D01*
X176478654Y-108716500D01*
X176478638Y-108716500D01*
X175781362Y-108716500D01*
X175781345Y-108716500D01*
X175720797Y-108723011D01*
X175720795Y-108723011D01*
X175583793Y-108774111D01*
X175569309Y-108784955D01*
X175503845Y-108809371D01*
X175435572Y-108794519D01*
X175420691Y-108784955D01*
X175406206Y-108774111D01*
X175269203Y-108723011D01*
X175208654Y-108716500D01*
X175208638Y-108716500D01*
X174511362Y-108716500D01*
X174511345Y-108716500D01*
X174450797Y-108723011D01*
X174450795Y-108723011D01*
X174313793Y-108774111D01*
X174299309Y-108784955D01*
X174233845Y-108809371D01*
X174165572Y-108794519D01*
X174150691Y-108784955D01*
X174136206Y-108774111D01*
X173999203Y-108723011D01*
X173938654Y-108716500D01*
X173938638Y-108716500D01*
X173241362Y-108716500D01*
X173241345Y-108716500D01*
X173180797Y-108723011D01*
X173180795Y-108723011D01*
X173043793Y-108774111D01*
X173043793Y-108774112D01*
X172981809Y-108820513D01*
X172916345Y-108844930D01*
X172848072Y-108830078D01*
X172798667Y-108780673D01*
X172783499Y-108721249D01*
X172783499Y-108317736D01*
X172783499Y-108317735D01*
X172783499Y-108317727D01*
X172777014Y-108246354D01*
X172777011Y-108246344D01*
X172725828Y-108082090D01*
X172725827Y-108082089D01*
X172725827Y-108082087D01*
X172636816Y-107934845D01*
X172636814Y-107934843D01*
X172636813Y-107934841D01*
X172515156Y-107813184D01*
X172493347Y-107800000D01*
X172446161Y-107748471D01*
X172433500Y-107693885D01*
X172433500Y-107644847D01*
X172453185Y-107577808D01*
X172505989Y-107532053D01*
X172557500Y-107520847D01*
X174360048Y-107520847D01*
X174360049Y-107520846D01*
X174482438Y-107496502D01*
X174597728Y-107448747D01*
X174701486Y-107379418D01*
X176161085Y-105919819D01*
X176222408Y-105886334D01*
X176248766Y-105883500D01*
X176478638Y-105883500D01*
X176478654Y-105883499D01*
X176505692Y-105880591D01*
X176539201Y-105876989D01*
X176539205Y-105876987D01*
X176539207Y-105876987D01*
X176663643Y-105830574D01*
X176676204Y-105825889D01*
X176690691Y-105815043D01*
X176756151Y-105790627D01*
X176824425Y-105805478D01*
X176839300Y-105815037D01*
X176853796Y-105825889D01*
X176853797Y-105825889D01*
X176853798Y-105825890D01*
X176853801Y-105825891D01*
X176990792Y-105876987D01*
X176990795Y-105876987D01*
X176990799Y-105876989D01*
X177020270Y-105880157D01*
X177051345Y-105883499D01*
X177051362Y-105883500D01*
X177748638Y-105883500D01*
X177748654Y-105883499D01*
X177775692Y-105880591D01*
X177809201Y-105876989D01*
X177809207Y-105876987D01*
X177837384Y-105866477D01*
X177946204Y-105825889D01*
X178063261Y-105738261D01*
X178150889Y-105621204D01*
X178201989Y-105484201D01*
X178205616Y-105450464D01*
X178208499Y-105423654D01*
X178208500Y-105423637D01*
X178208500Y-103776362D01*
X178208499Y-103776345D01*
X178204636Y-103740423D01*
X178201989Y-103715799D01*
X178196593Y-103701333D01*
X178161133Y-103606261D01*
X178150889Y-103578796D01*
X178063261Y-103461739D01*
X177946204Y-103374111D01*
X177935509Y-103370122D01*
X177809203Y-103323011D01*
X177748654Y-103316500D01*
X177748638Y-103316500D01*
X177051362Y-103316500D01*
X177051345Y-103316500D01*
X176990797Y-103323011D01*
X176990795Y-103323011D01*
X176853793Y-103374111D01*
X176839309Y-103384955D01*
X176773845Y-103409371D01*
X176705572Y-103394519D01*
X176690691Y-103384955D01*
X176676206Y-103374111D01*
X176539203Y-103323011D01*
X176478654Y-103316500D01*
X176478638Y-103316500D01*
X175781362Y-103316500D01*
X175781345Y-103316500D01*
X175720802Y-103323010D01*
X175720789Y-103323013D01*
X175712382Y-103326149D01*
X175642690Y-103331131D01*
X175581368Y-103297644D01*
X175554493Y-103257422D01*
X175531217Y-103201227D01*
X175531215Y-103201224D01*
X175531213Y-103201220D01*
X175448326Y-103077172D01*
X175448323Y-103077168D01*
X174695397Y-102324244D01*
X174695395Y-102324241D01*
X174609732Y-102238578D01*
X174576247Y-102177255D01*
X174581231Y-102107563D01*
X174609730Y-102063219D01*
X175777941Y-100895009D01*
X175839264Y-100861524D01*
X175865622Y-100858690D01*
X177334165Y-100858690D01*
X177401204Y-100878375D01*
X177446959Y-100931179D01*
X177456903Y-101000337D01*
X177427878Y-101063893D01*
X177426315Y-101065662D01*
X177360959Y-101138247D01*
X177265473Y-101303633D01*
X177265470Y-101303640D01*
X177238111Y-101387844D01*
X177206458Y-101485262D01*
X177186496Y-101675190D01*
X177206458Y-101865118D01*
X177206459Y-101865121D01*
X177265470Y-102046739D01*
X177265473Y-102046746D01*
X177360960Y-102212134D01*
X177488747Y-102354056D01*
X177643248Y-102466308D01*
X177817712Y-102543984D01*
X178004513Y-102583690D01*
X178195487Y-102583690D01*
X178382288Y-102543984D01*
X178556752Y-102466308D01*
X178711253Y-102354056D01*
X178715645Y-102349177D01*
X178775132Y-102312530D01*
X178807796Y-102308150D01*
X195897152Y-102308150D01*
X195897153Y-102308149D01*
X196019438Y-102283826D01*
X196134629Y-102236112D01*
X196238299Y-102166842D01*
X198380875Y-100024264D01*
X198442198Y-99990780D01*
X198444293Y-99990343D01*
X198531455Y-99973006D01*
X198675863Y-99913190D01*
X198805827Y-99826351D01*
X198916351Y-99715827D01*
X199003190Y-99585863D01*
X199063006Y-99441455D01*
X199092721Y-99292071D01*
X199093500Y-99288155D01*
X199093500Y-97311844D01*
X199063007Y-97158550D01*
X199063006Y-97158549D01*
X199063006Y-97158545D01*
X199016741Y-97046852D01*
X199003191Y-97014139D01*
X199003186Y-97014130D01*
X198916351Y-96884173D01*
X198916348Y-96884169D01*
X198805830Y-96773651D01*
X198805826Y-96773648D01*
X198675869Y-96686813D01*
X198675860Y-96686808D01*
X198531455Y-96626994D01*
X198531449Y-96626992D01*
X198378155Y-96596500D01*
X198378153Y-96596500D01*
X198221847Y-96596500D01*
X198221845Y-96596500D01*
X198068550Y-96626992D01*
X198068544Y-96626994D01*
X197924139Y-96686808D01*
X197924130Y-96686813D01*
X197794173Y-96773648D01*
X197794169Y-96773651D01*
X197747681Y-96820140D01*
X197686358Y-96853625D01*
X197616666Y-96848641D01*
X197572319Y-96820140D01*
X197525830Y-96773651D01*
X197525826Y-96773648D01*
X197395869Y-96686813D01*
X197395860Y-96686808D01*
X197251455Y-96626994D01*
X197251449Y-96626992D01*
X197098155Y-96596500D01*
X197098153Y-96596500D01*
X196941847Y-96596500D01*
X196941845Y-96596500D01*
X196788550Y-96626992D01*
X196788544Y-96626994D01*
X196644139Y-96686808D01*
X196644130Y-96686813D01*
X196514173Y-96773648D01*
X196514169Y-96773651D01*
X196403651Y-96884169D01*
X196403648Y-96884173D01*
X196316813Y-97014130D01*
X196316808Y-97014139D01*
X196256994Y-97158544D01*
X196256992Y-97158550D01*
X196226500Y-97311844D01*
X196226500Y-99056997D01*
X196206815Y-99124036D01*
X196190181Y-99144678D01*
X195053948Y-100280911D01*
X194992625Y-100314396D01*
X194966267Y-100317230D01*
X183453285Y-100317230D01*
X183386246Y-100297545D01*
X183340491Y-100244741D01*
X183330547Y-100175583D01*
X183359572Y-100112027D01*
X183365594Y-100105558D01*
X183641808Y-99829343D01*
X183703127Y-99795861D01*
X183772819Y-99800845D01*
X183808437Y-99823735D01*
X183809463Y-99822486D01*
X183814173Y-99826351D01*
X183944130Y-99913186D01*
X183944136Y-99913189D01*
X183944137Y-99913190D01*
X184088545Y-99973006D01*
X184088549Y-99973006D01*
X184088550Y-99973007D01*
X184241844Y-100003500D01*
X184241847Y-100003500D01*
X184398155Y-100003500D01*
X184501288Y-99982984D01*
X184551455Y-99973006D01*
X184695863Y-99913190D01*
X184825827Y-99826351D01*
X184867318Y-99784860D01*
X184928641Y-99751374D01*
X184998332Y-99756358D01*
X185042682Y-99784860D01*
X185084169Y-99826348D01*
X185084173Y-99826351D01*
X185214130Y-99913186D01*
X185214136Y-99913189D01*
X185214137Y-99913190D01*
X185358545Y-99973006D01*
X185358549Y-99973006D01*
X185358550Y-99973007D01*
X185511844Y-100003500D01*
X185511847Y-100003500D01*
X185668155Y-100003500D01*
X185771288Y-99982984D01*
X185821455Y-99973006D01*
X185965863Y-99913190D01*
X186095827Y-99826351D01*
X186137318Y-99784860D01*
X186198641Y-99751374D01*
X186268332Y-99756358D01*
X186312682Y-99784860D01*
X186354169Y-99826348D01*
X186354173Y-99826351D01*
X186484130Y-99913186D01*
X186484136Y-99913189D01*
X186484137Y-99913190D01*
X186628545Y-99973006D01*
X186628549Y-99973006D01*
X186628550Y-99973007D01*
X186781844Y-100003500D01*
X186781847Y-100003500D01*
X186938155Y-100003500D01*
X187041288Y-99982984D01*
X187091455Y-99973006D01*
X187235863Y-99913190D01*
X187365827Y-99826351D01*
X187407318Y-99784860D01*
X187468641Y-99751374D01*
X187538332Y-99756358D01*
X187582682Y-99784860D01*
X187624169Y-99826348D01*
X187624173Y-99826351D01*
X187754130Y-99913186D01*
X187754136Y-99913189D01*
X187754137Y-99913190D01*
X187898545Y-99973006D01*
X187898549Y-99973006D01*
X187898550Y-99973007D01*
X188051844Y-100003500D01*
X188051847Y-100003500D01*
X188208155Y-100003500D01*
X188311288Y-99982984D01*
X188361455Y-99973006D01*
X188505863Y-99913190D01*
X188635827Y-99826351D01*
X188677318Y-99784860D01*
X188738641Y-99751374D01*
X188808332Y-99756358D01*
X188852682Y-99784860D01*
X188894169Y-99826348D01*
X188894173Y-99826351D01*
X189024130Y-99913186D01*
X189024136Y-99913189D01*
X189024137Y-99913190D01*
X189168545Y-99973006D01*
X189168549Y-99973006D01*
X189168550Y-99973007D01*
X189321844Y-100003500D01*
X189321847Y-100003500D01*
X189478155Y-100003500D01*
X189581288Y-99982984D01*
X189631455Y-99973006D01*
X189775863Y-99913190D01*
X189905827Y-99826351D01*
X189927828Y-99804350D01*
X189952319Y-99779860D01*
X190013642Y-99746375D01*
X190083334Y-99751359D01*
X190127681Y-99779860D01*
X190174169Y-99826348D01*
X190174173Y-99826351D01*
X190304130Y-99913186D01*
X190304136Y-99913189D01*
X190304137Y-99913190D01*
X190448545Y-99973006D01*
X190448549Y-99973006D01*
X190448550Y-99973007D01*
X190601844Y-100003500D01*
X190601847Y-100003500D01*
X190758155Y-100003500D01*
X190861288Y-99982984D01*
X190911455Y-99973006D01*
X191055863Y-99913190D01*
X191185827Y-99826351D01*
X191222318Y-99789860D01*
X191283640Y-99756374D01*
X191353332Y-99761358D01*
X191397682Y-99789860D01*
X191434169Y-99826348D01*
X191434173Y-99826351D01*
X191564130Y-99913186D01*
X191564136Y-99913189D01*
X191564137Y-99913190D01*
X191708545Y-99973006D01*
X191708549Y-99973006D01*
X191708550Y-99973007D01*
X191861844Y-100003500D01*
X191861847Y-100003500D01*
X192018155Y-100003500D01*
X192121288Y-99982984D01*
X192171455Y-99973006D01*
X192315863Y-99913190D01*
X192445827Y-99826351D01*
X192487318Y-99784860D01*
X192548641Y-99751374D01*
X192618332Y-99756358D01*
X192662682Y-99784860D01*
X192704169Y-99826348D01*
X192704173Y-99826351D01*
X192834130Y-99913186D01*
X192834136Y-99913189D01*
X192834137Y-99913190D01*
X192978545Y-99973006D01*
X192978549Y-99973006D01*
X192978550Y-99973007D01*
X193131844Y-100003500D01*
X193131847Y-100003500D01*
X193288155Y-100003500D01*
X193391288Y-99982984D01*
X193441455Y-99973006D01*
X193585863Y-99913190D01*
X193715827Y-99826351D01*
X193757318Y-99784860D01*
X193818641Y-99751374D01*
X193888332Y-99756358D01*
X193932682Y-99784860D01*
X193974169Y-99826348D01*
X193974173Y-99826351D01*
X194104130Y-99913186D01*
X194104136Y-99913189D01*
X194104137Y-99913190D01*
X194248545Y-99973006D01*
X194248549Y-99973006D01*
X194248550Y-99973007D01*
X194401844Y-100003500D01*
X194401847Y-100003500D01*
X194558155Y-100003500D01*
X194661288Y-99982984D01*
X194711455Y-99973006D01*
X194855863Y-99913190D01*
X194985827Y-99826351D01*
X195096351Y-99715827D01*
X195183190Y-99585863D01*
X195243006Y-99441455D01*
X195272721Y-99292071D01*
X195273500Y-99288155D01*
X195273500Y-97311844D01*
X195243007Y-97158550D01*
X195243006Y-97158549D01*
X195243006Y-97158545D01*
X195200041Y-97054819D01*
X195183189Y-97014134D01*
X195134398Y-96941113D01*
X195113520Y-96874436D01*
X195113500Y-96872223D01*
X195113500Y-95114935D01*
X195113499Y-95114931D01*
X195110133Y-95098010D01*
X195089155Y-94992545D01*
X195041400Y-94877255D01*
X195041399Y-94877254D01*
X195041396Y-94877248D01*
X194972072Y-94773498D01*
X194967562Y-94768988D01*
X194883833Y-94685259D01*
X192869819Y-92671245D01*
X192836334Y-92609922D01*
X192833500Y-92583564D01*
X192833500Y-92299288D01*
X192853185Y-92232249D01*
X192858233Y-92224977D01*
X192863261Y-92218261D01*
X192950889Y-92101204D01*
X193001989Y-91964201D01*
X193005591Y-91930692D01*
X193008499Y-91903654D01*
X193008500Y-91903637D01*
X193008500Y-90256362D01*
X193008499Y-90256345D01*
X195891500Y-90256345D01*
X195891500Y-91903654D01*
X195898010Y-91964197D01*
X195898012Y-91964205D01*
X195924106Y-92034167D01*
X195929090Y-92103859D01*
X195924106Y-92120833D01*
X195898012Y-92190794D01*
X195898010Y-92190802D01*
X195891500Y-92251345D01*
X195891500Y-92948654D01*
X195898011Y-93009202D01*
X195898011Y-93009204D01*
X195949111Y-93146204D01*
X196036739Y-93263261D01*
X196153796Y-93350889D01*
X196260197Y-93390575D01*
X196285683Y-93400081D01*
X196290799Y-93401989D01*
X196318050Y-93404918D01*
X196351345Y-93408499D01*
X196351362Y-93408500D01*
X197048638Y-93408500D01*
X197048654Y-93408499D01*
X197075692Y-93405591D01*
X197109201Y-93401989D01*
X197114317Y-93400081D01*
X197123768Y-93396555D01*
X197246204Y-93350889D01*
X197363261Y-93263261D01*
X197450889Y-93146204D01*
X197501989Y-93009201D01*
X197507308Y-92959728D01*
X197508499Y-92948654D01*
X197508500Y-92948637D01*
X197508500Y-92251362D01*
X197508499Y-92251345D01*
X197501989Y-92190800D01*
X197501988Y-92190797D01*
X197501987Y-92190795D01*
X197475893Y-92120833D01*
X197470908Y-92051143D01*
X197475893Y-92034166D01*
X197488947Y-91999167D01*
X197501989Y-91964201D01*
X197503485Y-91950277D01*
X197508499Y-91903654D01*
X197508500Y-91903637D01*
X197508500Y-90256362D01*
X197508499Y-90256345D01*
X197505157Y-90225270D01*
X197501989Y-90195799D01*
X197450889Y-90058796D01*
X197363261Y-89941739D01*
X197246204Y-89854111D01*
X197109203Y-89803011D01*
X197048654Y-89796500D01*
X197048638Y-89796500D01*
X196351362Y-89796500D01*
X196351345Y-89796500D01*
X196290797Y-89803011D01*
X196290795Y-89803011D01*
X196153795Y-89854111D01*
X196036739Y-89941739D01*
X195949111Y-90058795D01*
X195898011Y-90195795D01*
X195898011Y-90195797D01*
X195891500Y-90256345D01*
X193008499Y-90256345D01*
X193005157Y-90225270D01*
X193001989Y-90195799D01*
X192950889Y-90058796D01*
X192863261Y-89941739D01*
X192746204Y-89854111D01*
X192609203Y-89803011D01*
X192548654Y-89796500D01*
X192548638Y-89796500D01*
X191851362Y-89796500D01*
X191851345Y-89796500D01*
X191790797Y-89803011D01*
X191790795Y-89803011D01*
X191653795Y-89854111D01*
X191536739Y-89941739D01*
X191449111Y-90058795D01*
X191398011Y-90195795D01*
X191398011Y-90195797D01*
X191391500Y-90256345D01*
X191391500Y-91903654D01*
X191398011Y-91964202D01*
X191398011Y-91964204D01*
X191436196Y-92066578D01*
X191449111Y-92101204D01*
X191536607Y-92218085D01*
X191541767Y-92224977D01*
X191566184Y-92290442D01*
X191566500Y-92299288D01*
X191566500Y-92959728D01*
X191590843Y-93082107D01*
X191590845Y-93082115D01*
X191638598Y-93197402D01*
X191638603Y-93197411D01*
X191707928Y-93301162D01*
X191707931Y-93301166D01*
X193810181Y-95403415D01*
X193843666Y-95464738D01*
X193846500Y-95491096D01*
X193846500Y-96628973D01*
X193826815Y-96696012D01*
X193774011Y-96741767D01*
X193704853Y-96751711D01*
X193653610Y-96732076D01*
X193585867Y-96686812D01*
X193585860Y-96686808D01*
X193441455Y-96626994D01*
X193441449Y-96626992D01*
X193355316Y-96609859D01*
X193293405Y-96577474D01*
X193291827Y-96575923D01*
X190344161Y-93628257D01*
X190310676Y-93566934D01*
X190315660Y-93497242D01*
X190357532Y-93441309D01*
X190422996Y-93416892D01*
X190431842Y-93416576D01*
X190559797Y-93416576D01*
X190559813Y-93416575D01*
X190586851Y-93413667D01*
X190620360Y-93410065D01*
X190757363Y-93358965D01*
X190874420Y-93271337D01*
X190962048Y-93154280D01*
X191013148Y-93017277D01*
X191019048Y-92962398D01*
X191019658Y-92956730D01*
X191019659Y-92956713D01*
X191019659Y-92259438D01*
X191019658Y-92259421D01*
X191013148Y-92198878D01*
X191013148Y-92198875D01*
X190979964Y-92109908D01*
X190974981Y-92040219D01*
X190979959Y-92023262D01*
X191001989Y-91964201D01*
X191004423Y-91941560D01*
X191008499Y-91903654D01*
X191008500Y-91903637D01*
X191008500Y-90256362D01*
X191008499Y-90256345D01*
X191005157Y-90225270D01*
X191001989Y-90195799D01*
X190950889Y-90058796D01*
X190863261Y-89941739D01*
X190746204Y-89854111D01*
X190609203Y-89803011D01*
X190548654Y-89796500D01*
X190548638Y-89796500D01*
X189851362Y-89796500D01*
X189851345Y-89796500D01*
X189790797Y-89803011D01*
X189790795Y-89803011D01*
X189653795Y-89854111D01*
X189536739Y-89941739D01*
X189449111Y-90058795D01*
X189398011Y-90195795D01*
X189398011Y-90195797D01*
X189391500Y-90256345D01*
X189391500Y-91903654D01*
X189398010Y-91964201D01*
X189431192Y-92053163D01*
X189436176Y-92122855D01*
X189431192Y-92139830D01*
X189409170Y-92198872D01*
X189409170Y-92198873D01*
X189402659Y-92259421D01*
X189402659Y-92387392D01*
X189382974Y-92454431D01*
X189330170Y-92500186D01*
X189261012Y-92510130D01*
X189197456Y-92481105D01*
X189190978Y-92475073D01*
X189023836Y-92307931D01*
X189023832Y-92307928D01*
X188920081Y-92238603D01*
X188920072Y-92238598D01*
X188804785Y-92190845D01*
X188804777Y-92190843D01*
X188682398Y-92166500D01*
X188682394Y-92166500D01*
X186605130Y-92166500D01*
X186538091Y-92146815D01*
X186492336Y-92094011D01*
X186482392Y-92024853D01*
X186488948Y-91999167D01*
X186501987Y-91964207D01*
X186501989Y-91964201D01*
X186505591Y-91930692D01*
X186508499Y-91903654D01*
X186508500Y-91903637D01*
X186508500Y-90256362D01*
X186508499Y-90256345D01*
X186505157Y-90225270D01*
X186501989Y-90195799D01*
X186450889Y-90058796D01*
X186363261Y-89941739D01*
X186246204Y-89854111D01*
X186109203Y-89803011D01*
X186048654Y-89796500D01*
X186048638Y-89796500D01*
X185351362Y-89796500D01*
X185351345Y-89796500D01*
X185290797Y-89803011D01*
X185290795Y-89803011D01*
X185153795Y-89854111D01*
X185036739Y-89941739D01*
X184949111Y-90058795D01*
X184898011Y-90195795D01*
X184898011Y-90195797D01*
X184891500Y-90256345D01*
X184891500Y-91903654D01*
X184898011Y-91964202D01*
X184898011Y-91964204D01*
X184936196Y-92066578D01*
X184949111Y-92101204D01*
X185036607Y-92218085D01*
X185041767Y-92224977D01*
X185066184Y-92290442D01*
X185066500Y-92299288D01*
X185066500Y-92362398D01*
X185090843Y-92484777D01*
X185090845Y-92484785D01*
X185138598Y-92600072D01*
X185138603Y-92600081D01*
X185207928Y-92703832D01*
X185207931Y-92703836D01*
X185258914Y-92754819D01*
X185292399Y-92816142D01*
X185287415Y-92885834D01*
X185245543Y-92941767D01*
X185180079Y-92966184D01*
X185171233Y-92966500D01*
X184632500Y-92966500D01*
X184565461Y-92946815D01*
X184519706Y-92894011D01*
X184508500Y-92842500D01*
X184508500Y-92251362D01*
X184508499Y-92251345D01*
X184501989Y-92190800D01*
X184501988Y-92190797D01*
X184501987Y-92190795D01*
X184475893Y-92120833D01*
X184470908Y-92051143D01*
X184475893Y-92034166D01*
X184488947Y-91999167D01*
X184501989Y-91964201D01*
X184503485Y-91950277D01*
X184508499Y-91903654D01*
X184508500Y-91903637D01*
X184508500Y-90256362D01*
X184508499Y-90256345D01*
X184505157Y-90225270D01*
X184501989Y-90195799D01*
X184450889Y-90058796D01*
X184363261Y-89941739D01*
X184246204Y-89854111D01*
X184109203Y-89803011D01*
X184048654Y-89796500D01*
X184048638Y-89796500D01*
X183351362Y-89796500D01*
X183351345Y-89796500D01*
X183290797Y-89803011D01*
X183290795Y-89803011D01*
X183153795Y-89854111D01*
X183036739Y-89941739D01*
X182949111Y-90058795D01*
X182898011Y-90195795D01*
X182898011Y-90195797D01*
X182891500Y-90256345D01*
X182891500Y-91903654D01*
X182898010Y-91964197D01*
X182898012Y-91964205D01*
X182924106Y-92034167D01*
X182929090Y-92103859D01*
X182924106Y-92120833D01*
X182898012Y-92190794D01*
X182898010Y-92190802D01*
X182891500Y-92251345D01*
X182891500Y-92842500D01*
X182871815Y-92909539D01*
X182819011Y-92955294D01*
X182767500Y-92966500D01*
X180313766Y-92966500D01*
X180246727Y-92946815D01*
X180226085Y-92930181D01*
X179869819Y-92573915D01*
X179836334Y-92512592D01*
X179833500Y-92486234D01*
X179833500Y-92299288D01*
X179853185Y-92232249D01*
X179858233Y-92224977D01*
X179863261Y-92218261D01*
X179950889Y-92101204D01*
X180001989Y-91964201D01*
X180005591Y-91930692D01*
X180008499Y-91903654D01*
X180008500Y-91903637D01*
X180008500Y-90256362D01*
X180008499Y-90256345D01*
X180005157Y-90225270D01*
X180001989Y-90195799D01*
X179950889Y-90058796D01*
X179863261Y-89941739D01*
X179746204Y-89854111D01*
X179609203Y-89803011D01*
X179548654Y-89796500D01*
X179548638Y-89796500D01*
X178851362Y-89796500D01*
X178851345Y-89796500D01*
X178790797Y-89803011D01*
X178790795Y-89803011D01*
X178653795Y-89854111D01*
X178536739Y-89941739D01*
X178449111Y-90058795D01*
X178398011Y-90195795D01*
X178398011Y-90195797D01*
X178391500Y-90256345D01*
X178391500Y-91903654D01*
X178398011Y-91964202D01*
X178398011Y-91964204D01*
X178436196Y-92066578D01*
X178449111Y-92101204D01*
X178536607Y-92218085D01*
X178541767Y-92224977D01*
X178566184Y-92290442D01*
X178566500Y-92299288D01*
X178566500Y-92862398D01*
X178590843Y-92984777D01*
X178590845Y-92984785D01*
X178638598Y-93100072D01*
X178638603Y-93100081D01*
X178707927Y-93203831D01*
X178707928Y-93203832D01*
X178707929Y-93203833D01*
X178840366Y-93336270D01*
X178873850Y-93397591D01*
X178868866Y-93467283D01*
X178826995Y-93523217D01*
X178805231Y-93535611D01*
X178805295Y-93535730D01*
X178800886Y-93538086D01*
X178800153Y-93538504D01*
X178799939Y-93538592D01*
X178799918Y-93538603D01*
X178696167Y-93607928D01*
X178696163Y-93607931D01*
X177259636Y-95044458D01*
X177198313Y-95077943D01*
X177128621Y-95072959D01*
X177072688Y-95031087D01*
X177048271Y-94965623D01*
X177050150Y-94933549D01*
X177094233Y-94702462D01*
X177094234Y-94702451D01*
X177113262Y-94400005D01*
X177113262Y-94399994D01*
X177094234Y-94097548D01*
X177094233Y-94097544D01*
X177094233Y-94097538D01*
X177037445Y-93799846D01*
X176963029Y-93570818D01*
X176961034Y-93500977D01*
X176997114Y-93441144D01*
X177059815Y-93410316D01*
X177080960Y-93408500D01*
X177448638Y-93408500D01*
X177448654Y-93408499D01*
X177475692Y-93405591D01*
X177509201Y-93401989D01*
X177514317Y-93400081D01*
X177523768Y-93396555D01*
X177646204Y-93350889D01*
X177763261Y-93263261D01*
X177850889Y-93146204D01*
X177901989Y-93009201D01*
X177907308Y-92959728D01*
X177908499Y-92948654D01*
X177908500Y-92948637D01*
X177908500Y-92251362D01*
X177908499Y-92251350D01*
X177905943Y-92227576D01*
X177904922Y-92218083D01*
X177917326Y-92149326D01*
X177928944Y-92130518D01*
X177950889Y-92101204D01*
X178001989Y-91964201D01*
X178005591Y-91930692D01*
X178008499Y-91903654D01*
X178008500Y-91903637D01*
X178008500Y-90256362D01*
X178008499Y-90256345D01*
X178005157Y-90225270D01*
X178001989Y-90195799D01*
X177950889Y-90058796D01*
X177863261Y-89941739D01*
X177746204Y-89854111D01*
X177609203Y-89803011D01*
X177548654Y-89796500D01*
X177548638Y-89796500D01*
X176851362Y-89796500D01*
X176851345Y-89796500D01*
X176790797Y-89803011D01*
X176790795Y-89803011D01*
X176653795Y-89854111D01*
X176536739Y-89941739D01*
X176449111Y-90058795D01*
X176398011Y-90195795D01*
X176398011Y-90195797D01*
X176391500Y-90256345D01*
X176391500Y-91903654D01*
X176395077Y-91936915D01*
X176382672Y-92005675D01*
X176371056Y-92024480D01*
X176349113Y-92053792D01*
X176349110Y-92053799D01*
X176298011Y-92190795D01*
X176298011Y-92190797D01*
X176291500Y-92251345D01*
X176291500Y-92335859D01*
X176271815Y-92402898D01*
X176219011Y-92448653D01*
X176149853Y-92458597D01*
X176094615Y-92436177D01*
X175993101Y-92362423D01*
X175993094Y-92362418D01*
X175993090Y-92362416D01*
X175727517Y-92216415D01*
X175727514Y-92216413D01*
X175727509Y-92216411D01*
X175727508Y-92216410D01*
X175445742Y-92104851D01*
X175445739Y-92104850D01*
X175152197Y-92029483D01*
X174851539Y-91991500D01*
X174851530Y-91991500D01*
X174548470Y-91991500D01*
X174548460Y-91991500D01*
X174247802Y-92029483D01*
X173954260Y-92104850D01*
X173954257Y-92104851D01*
X173672493Y-92216409D01*
X173632284Y-92238515D01*
X173564053Y-92253561D01*
X173498520Y-92229330D01*
X173456489Y-92173516D01*
X173451306Y-92103839D01*
X173456362Y-92086529D01*
X173501989Y-91964201D01*
X173505591Y-91930692D01*
X173508499Y-91903654D01*
X173508500Y-91903637D01*
X173508500Y-90256362D01*
X173508499Y-90256345D01*
X173505157Y-90225270D01*
X173501989Y-90195799D01*
X173450889Y-90058796D01*
X173363261Y-89941739D01*
X173246204Y-89854111D01*
X173109203Y-89803011D01*
X173048654Y-89796500D01*
X173048638Y-89796500D01*
X172351362Y-89796500D01*
X172351345Y-89796500D01*
X172290797Y-89803011D01*
X172290795Y-89803011D01*
X172153795Y-89854111D01*
X172036739Y-89941739D01*
X171949111Y-90058795D01*
X171898011Y-90195795D01*
X171898011Y-90195797D01*
X171891500Y-90256345D01*
X171891500Y-91903654D01*
X171898011Y-91964202D01*
X171898011Y-91964204D01*
X171936196Y-92066578D01*
X171949111Y-92101204D01*
X172036607Y-92218085D01*
X172041767Y-92224977D01*
X172066184Y-92290442D01*
X172066500Y-92299288D01*
X172066500Y-92786234D01*
X172046815Y-92853273D01*
X172030181Y-92873915D01*
X171696167Y-93207929D01*
X171684709Y-93219387D01*
X171671329Y-93232766D01*
X171610004Y-93266248D01*
X171540313Y-93261261D01*
X171484381Y-93219387D01*
X171459967Y-93153922D01*
X171467469Y-93101751D01*
X171501989Y-93009201D01*
X171502566Y-93003832D01*
X171508499Y-92948654D01*
X171508500Y-92948637D01*
X171508500Y-92251362D01*
X171508499Y-92251345D01*
X171501989Y-92190800D01*
X171501988Y-92190797D01*
X171501987Y-92190795D01*
X171475893Y-92120833D01*
X171470908Y-92051143D01*
X171475893Y-92034166D01*
X171488947Y-91999167D01*
X171501989Y-91964201D01*
X171503485Y-91950277D01*
X171508499Y-91903654D01*
X171508500Y-91903637D01*
X171508500Y-90256362D01*
X171508499Y-90256345D01*
X171505157Y-90225270D01*
X171501989Y-90195799D01*
X171450889Y-90058796D01*
X171363261Y-89941739D01*
X171246204Y-89854111D01*
X171109203Y-89803011D01*
X171048654Y-89796500D01*
X171048638Y-89796500D01*
X170351362Y-89796500D01*
X170351345Y-89796500D01*
X170290797Y-89803011D01*
X170290795Y-89803011D01*
X170153795Y-89854111D01*
X170036739Y-89941739D01*
X169949111Y-90058795D01*
X169898011Y-90195795D01*
X169898011Y-90195797D01*
X169891500Y-90256345D01*
X169891500Y-91903654D01*
X169898010Y-91964197D01*
X169898012Y-91964205D01*
X169924106Y-92034167D01*
X169929090Y-92103859D01*
X169924106Y-92120833D01*
X169898012Y-92190794D01*
X169898010Y-92190802D01*
X169891500Y-92251345D01*
X169891500Y-92948654D01*
X169898011Y-93009202D01*
X169898011Y-93009204D01*
X169949111Y-93146204D01*
X170036739Y-93263261D01*
X170153796Y-93350889D01*
X170260197Y-93390575D01*
X170285683Y-93400081D01*
X170290799Y-93401989D01*
X170318050Y-93404918D01*
X170351345Y-93408499D01*
X170351362Y-93408500D01*
X171048638Y-93408500D01*
X171048654Y-93408499D01*
X171075692Y-93405591D01*
X171109201Y-93401989D01*
X171114317Y-93400081D01*
X171123768Y-93396555D01*
X171246204Y-93350889D01*
X171337610Y-93282462D01*
X171403071Y-93258046D01*
X171471345Y-93272897D01*
X171520750Y-93322302D01*
X171535603Y-93390575D01*
X171526480Y-93429182D01*
X171490846Y-93515210D01*
X171490843Y-93515222D01*
X171466500Y-93637601D01*
X171466500Y-95462398D01*
X171490843Y-95584777D01*
X171490845Y-95584785D01*
X171538598Y-95700072D01*
X171538603Y-95700081D01*
X171607928Y-95803832D01*
X171607931Y-95803836D01*
X172408914Y-96604819D01*
X172442399Y-96666142D01*
X172437415Y-96735834D01*
X172395543Y-96791767D01*
X172330079Y-96816184D01*
X172321233Y-96816500D01*
X171063767Y-96816500D01*
X170996728Y-96796815D01*
X170976086Y-96780181D01*
X166869819Y-92673914D01*
X166836334Y-92612591D01*
X166833500Y-92586233D01*
X166833500Y-92299288D01*
X166853185Y-92232249D01*
X166858233Y-92224977D01*
X166863261Y-92218261D01*
X166950889Y-92101204D01*
X167001989Y-91964201D01*
X167005591Y-91930692D01*
X167008499Y-91903654D01*
X167008500Y-91903637D01*
X167008500Y-90256362D01*
X167008499Y-90256345D01*
X167005157Y-90225270D01*
X167001989Y-90195799D01*
X166950889Y-90058796D01*
X166863261Y-89941739D01*
X166746204Y-89854111D01*
X166609203Y-89803011D01*
X166548654Y-89796500D01*
X166548638Y-89796500D01*
X165851362Y-89796500D01*
X165851345Y-89796500D01*
X165790797Y-89803011D01*
X165790795Y-89803011D01*
X165653795Y-89854111D01*
X165536739Y-89941739D01*
X165449111Y-90058795D01*
X165398011Y-90195795D01*
X165398011Y-90195797D01*
X165391500Y-90256345D01*
X165391500Y-91903654D01*
X165398011Y-91964202D01*
X165398011Y-91964204D01*
X165436196Y-92066578D01*
X165449111Y-92101204D01*
X165536607Y-92218085D01*
X165541767Y-92224977D01*
X165566184Y-92290442D01*
X165566500Y-92299288D01*
X165566500Y-92962398D01*
X165590843Y-93084777D01*
X165590845Y-93084785D01*
X165638598Y-93200072D01*
X165638603Y-93200081D01*
X165707928Y-93303832D01*
X165707931Y-93303836D01*
X169458914Y-97054819D01*
X169492399Y-97116142D01*
X169487415Y-97185834D01*
X169445543Y-97241767D01*
X169380079Y-97266184D01*
X169371233Y-97266500D01*
X167086558Y-97266500D01*
X167019519Y-97246815D01*
X166998877Y-97230181D01*
X166619100Y-96850404D01*
X166603679Y-96831613D01*
X166555678Y-96759775D01*
X166555672Y-96759767D01*
X166467440Y-96671535D01*
X166467436Y-96671532D01*
X166395593Y-96623528D01*
X166376803Y-96608107D01*
X162876628Y-93107931D01*
X162876624Y-93107928D01*
X162772873Y-93038603D01*
X162772864Y-93038598D01*
X162657577Y-92990845D01*
X162657569Y-92990843D01*
X162535190Y-92966500D01*
X162535186Y-92966500D01*
X162462393Y-92966500D01*
X162337606Y-92966500D01*
X162337601Y-92966500D01*
X162223898Y-92989117D01*
X162199707Y-92991500D01*
X160938767Y-92991500D01*
X160871728Y-92971815D01*
X160851086Y-92955181D01*
X160344819Y-92448914D01*
X160311334Y-92387591D01*
X160308500Y-92361233D01*
X160308500Y-92321324D01*
X160328185Y-92254285D01*
X160330922Y-92251345D01*
X163291500Y-92251345D01*
X163291500Y-92948654D01*
X163298011Y-93009202D01*
X163298011Y-93009204D01*
X163349111Y-93146204D01*
X163436739Y-93263261D01*
X163553796Y-93350889D01*
X163660197Y-93390575D01*
X163685683Y-93400081D01*
X163690799Y-93401989D01*
X163718050Y-93404918D01*
X163751345Y-93408499D01*
X163751362Y-93408500D01*
X164448638Y-93408500D01*
X164448654Y-93408499D01*
X164475692Y-93405591D01*
X164509201Y-93401989D01*
X164514317Y-93400081D01*
X164523768Y-93396555D01*
X164646204Y-93350889D01*
X164763261Y-93263261D01*
X164850889Y-93146204D01*
X164901989Y-93009201D01*
X164907308Y-92959728D01*
X164908499Y-92948654D01*
X164908500Y-92948637D01*
X164908500Y-92251362D01*
X164908499Y-92251350D01*
X164905943Y-92227576D01*
X164904922Y-92218083D01*
X164917326Y-92149326D01*
X164928944Y-92130518D01*
X164950889Y-92101204D01*
X165001989Y-91964201D01*
X165005591Y-91930692D01*
X165008499Y-91903654D01*
X165008500Y-91903637D01*
X165008500Y-90256362D01*
X165008499Y-90256345D01*
X165005157Y-90225270D01*
X165001989Y-90195799D01*
X164950889Y-90058796D01*
X164863261Y-89941739D01*
X164746204Y-89854111D01*
X164609203Y-89803011D01*
X164548654Y-89796500D01*
X164548638Y-89796500D01*
X163851362Y-89796500D01*
X163851345Y-89796500D01*
X163790797Y-89803011D01*
X163790795Y-89803011D01*
X163653795Y-89854111D01*
X163536739Y-89941739D01*
X163449111Y-90058795D01*
X163398011Y-90195795D01*
X163398011Y-90195797D01*
X163391500Y-90256345D01*
X163391500Y-91903654D01*
X163395077Y-91936915D01*
X163382672Y-92005675D01*
X163371056Y-92024480D01*
X163349113Y-92053792D01*
X163349110Y-92053799D01*
X163298011Y-92190795D01*
X163298011Y-92190797D01*
X163291500Y-92251345D01*
X160330922Y-92251345D01*
X160358195Y-92222053D01*
X160360160Y-92220582D01*
X160363261Y-92218261D01*
X160450889Y-92101204D01*
X160501989Y-91964201D01*
X160505591Y-91930692D01*
X160508499Y-91903654D01*
X160508500Y-91903637D01*
X160508500Y-90256362D01*
X160508499Y-90256345D01*
X160505157Y-90225270D01*
X160501989Y-90195799D01*
X160450889Y-90058796D01*
X160363261Y-89941739D01*
X160246204Y-89854111D01*
X160109203Y-89803011D01*
X160048654Y-89796500D01*
X160048638Y-89796500D01*
X159351362Y-89796500D01*
X159351345Y-89796500D01*
X159290797Y-89803011D01*
X159290795Y-89803011D01*
X159153795Y-89854111D01*
X159036739Y-89941739D01*
X158949111Y-90058795D01*
X158898011Y-90195795D01*
X158898011Y-90195797D01*
X158891500Y-90256345D01*
X158891500Y-91903654D01*
X158898011Y-91964202D01*
X158898011Y-91964204D01*
X158936196Y-92066578D01*
X158949111Y-92101204D01*
X159036739Y-92218261D01*
X159038067Y-92219255D01*
X159041805Y-92222053D01*
X159083679Y-92277984D01*
X159091500Y-92321324D01*
X159091500Y-92399708D01*
X159089117Y-92423899D01*
X159066500Y-92537601D01*
X159066500Y-92762398D01*
X159090843Y-92884777D01*
X159090845Y-92884785D01*
X159138598Y-93000072D01*
X159138603Y-93000081D01*
X159207928Y-93103832D01*
X159207931Y-93103836D01*
X159333914Y-93229819D01*
X159367399Y-93291142D01*
X159362415Y-93360834D01*
X159320543Y-93416767D01*
X159255079Y-93441184D01*
X159246233Y-93441500D01*
X158477553Y-93441500D01*
X158410514Y-93421815D01*
X158364759Y-93369011D01*
X158354815Y-93299853D01*
X158378285Y-93243191D01*
X158450889Y-93146204D01*
X158501989Y-93009201D01*
X158507308Y-92959728D01*
X158508499Y-92948654D01*
X158508500Y-92948637D01*
X158508500Y-92251362D01*
X158508499Y-92251345D01*
X158501989Y-92190800D01*
X158501988Y-92190797D01*
X158501987Y-92190795D01*
X158475893Y-92120833D01*
X158470908Y-92051143D01*
X158475893Y-92034166D01*
X158488947Y-91999167D01*
X158501989Y-91964201D01*
X158503485Y-91950277D01*
X158508499Y-91903654D01*
X158508500Y-91903637D01*
X158508500Y-90256362D01*
X158508499Y-90256345D01*
X158505157Y-90225270D01*
X158501989Y-90195799D01*
X158450889Y-90058796D01*
X158363261Y-89941739D01*
X158246204Y-89854111D01*
X158109203Y-89803011D01*
X158048654Y-89796500D01*
X158048638Y-89796500D01*
X157351362Y-89796500D01*
X157351345Y-89796500D01*
X157290797Y-89803011D01*
X157290795Y-89803011D01*
X157153795Y-89854111D01*
X157036739Y-89941739D01*
X156949111Y-90058795D01*
X156898011Y-90195795D01*
X156898011Y-90195797D01*
X156891500Y-90256345D01*
X156891500Y-91903654D01*
X156898010Y-91964197D01*
X156898012Y-91964205D01*
X156924106Y-92034167D01*
X156929090Y-92103859D01*
X156924106Y-92120833D01*
X156898012Y-92190794D01*
X156898010Y-92190802D01*
X156891500Y-92251345D01*
X156891500Y-92948654D01*
X156898011Y-93009202D01*
X156898011Y-93009204D01*
X156949111Y-93146204D01*
X157021714Y-93243190D01*
X157046131Y-93308653D01*
X157031280Y-93376926D01*
X156981875Y-93426332D01*
X156922447Y-93441500D01*
X154988766Y-93441500D01*
X154921727Y-93421815D01*
X154901085Y-93405181D01*
X153875407Y-92379503D01*
X153841922Y-92318180D01*
X153846906Y-92248488D01*
X153863822Y-92217511D01*
X153864643Y-92216415D01*
X153948160Y-92104850D01*
X153950887Y-92101207D01*
X153950888Y-92101206D01*
X153950890Y-92101202D01*
X154001989Y-91964201D01*
X154005591Y-91930692D01*
X154008499Y-91903654D01*
X154008500Y-91903637D01*
X154008500Y-90256362D01*
X154008499Y-90256345D01*
X154005157Y-90225270D01*
X154001989Y-90195799D01*
X153950889Y-90058796D01*
X153863261Y-89941739D01*
X153746204Y-89854111D01*
X153609203Y-89803011D01*
X153548654Y-89796500D01*
X153548638Y-89796500D01*
X152851362Y-89796500D01*
X152851345Y-89796500D01*
X152790797Y-89803011D01*
X152790795Y-89803011D01*
X152653795Y-89854111D01*
X152536739Y-89941739D01*
X152449111Y-90058795D01*
X152398011Y-90195795D01*
X152398011Y-90195797D01*
X152391500Y-90256345D01*
X152391500Y-91903654D01*
X152398011Y-91964202D01*
X152398011Y-91964204D01*
X152436196Y-92066578D01*
X152449111Y-92101204D01*
X152536739Y-92218261D01*
X152536740Y-92218261D01*
X152536740Y-92218262D01*
X152538067Y-92219255D01*
X152539060Y-92220582D01*
X152543014Y-92224536D01*
X152542445Y-92225104D01*
X152579938Y-92275188D01*
X152585375Y-92342713D01*
X152574038Y-92399708D01*
X152569227Y-92423899D01*
X152566500Y-92437607D01*
X152566500Y-92662398D01*
X152590843Y-92784777D01*
X152590845Y-92784785D01*
X152638598Y-92900072D01*
X152638603Y-92900081D01*
X152707928Y-93003832D01*
X152707931Y-93003836D01*
X153058915Y-93354819D01*
X153092400Y-93416142D01*
X153087416Y-93485833D01*
X153045545Y-93541767D01*
X152980080Y-93566184D01*
X152971234Y-93566500D01*
X151930742Y-93566500D01*
X151863703Y-93546815D01*
X151817948Y-93494011D01*
X151808004Y-93424853D01*
X151837029Y-93361297D01*
X151856431Y-93343233D01*
X151865735Y-93336268D01*
X151963261Y-93263261D01*
X152050889Y-93146204D01*
X152101989Y-93009201D01*
X152107308Y-92959728D01*
X152108499Y-92948654D01*
X152108500Y-92948637D01*
X152108500Y-92251362D01*
X152108499Y-92251345D01*
X152104742Y-92216409D01*
X152101989Y-92190799D01*
X152101987Y-92190794D01*
X152069496Y-92103683D01*
X152050889Y-92053796D01*
X152028944Y-92024481D01*
X152004527Y-91959019D01*
X152004922Y-91936915D01*
X152008500Y-91903638D01*
X152008500Y-90256362D01*
X152008499Y-90256345D01*
X152005157Y-90225270D01*
X152001989Y-90195799D01*
X151950889Y-90058796D01*
X151863261Y-89941739D01*
X151746204Y-89854111D01*
X151609203Y-89803011D01*
X151548654Y-89796500D01*
X151548638Y-89796500D01*
X150851362Y-89796500D01*
X150851345Y-89796500D01*
X150790797Y-89803011D01*
X150790795Y-89803011D01*
X150653795Y-89854111D01*
X150536739Y-89941739D01*
X150449111Y-90058795D01*
X150398011Y-90195795D01*
X150398011Y-90195797D01*
X150391500Y-90256345D01*
X150391500Y-91903654D01*
X150398011Y-91964202D01*
X150398011Y-91964204D01*
X150449111Y-92101204D01*
X150471055Y-92130518D01*
X150495471Y-92195983D01*
X150495077Y-92218080D01*
X150491500Y-92251354D01*
X150491500Y-92948654D01*
X150498011Y-93009202D01*
X150498011Y-93009204D01*
X150549111Y-93146204D01*
X150636739Y-93263261D01*
X150734265Y-93336268D01*
X150743569Y-93343233D01*
X150785440Y-93399167D01*
X150790424Y-93468859D01*
X150756939Y-93530182D01*
X150695616Y-93563666D01*
X150669258Y-93566500D01*
X148113766Y-93566500D01*
X148046727Y-93546815D01*
X148026085Y-93530181D01*
X147369819Y-92873915D01*
X147336334Y-92812592D01*
X147333500Y-92786234D01*
X147333500Y-92737605D01*
X147333499Y-92737601D01*
X147310883Y-92623899D01*
X147308500Y-92599708D01*
X147308500Y-92321324D01*
X147328185Y-92254285D01*
X147358195Y-92222053D01*
X147360160Y-92220582D01*
X147363261Y-92218261D01*
X147450889Y-92101204D01*
X147501989Y-91964201D01*
X147505591Y-91930692D01*
X147508499Y-91903654D01*
X147508500Y-91903637D01*
X147508500Y-90256362D01*
X147508499Y-90256345D01*
X147505157Y-90225270D01*
X147501989Y-90195799D01*
X147450889Y-90058796D01*
X147363261Y-89941739D01*
X147246204Y-89854111D01*
X147109203Y-89803011D01*
X147048654Y-89796500D01*
X147048638Y-89796500D01*
X146351362Y-89796500D01*
X146351345Y-89796500D01*
X146290797Y-89803011D01*
X146290795Y-89803011D01*
X146153795Y-89854111D01*
X146036739Y-89941739D01*
X145949111Y-90058795D01*
X145898011Y-90195795D01*
X145898011Y-90195797D01*
X145891500Y-90256345D01*
X145891500Y-91903654D01*
X145898011Y-91964202D01*
X145898011Y-91964204D01*
X145936196Y-92066578D01*
X145949111Y-92101204D01*
X146036739Y-92218261D01*
X146038067Y-92219255D01*
X146041805Y-92222053D01*
X146083679Y-92277984D01*
X146091500Y-92321324D01*
X146091500Y-92599708D01*
X146089117Y-92623899D01*
X146066500Y-92737601D01*
X146066500Y-93162398D01*
X146090843Y-93284777D01*
X146090845Y-93284785D01*
X146138598Y-93400072D01*
X146138603Y-93400081D01*
X146207928Y-93503832D01*
X146207931Y-93503836D01*
X146955160Y-94251064D01*
X146988645Y-94312387D01*
X146983661Y-94382078D01*
X146941789Y-94438012D01*
X146903485Y-94457402D01*
X146900424Y-94458330D01*
X146725982Y-94530586D01*
X146725973Y-94530591D01*
X146568992Y-94635483D01*
X146568988Y-94635486D01*
X146435486Y-94768988D01*
X146435483Y-94768992D01*
X146330591Y-94925973D01*
X146330586Y-94925982D01*
X146258334Y-95100415D01*
X146258332Y-95100423D01*
X146221500Y-95285591D01*
X146221500Y-95474408D01*
X146258332Y-95659576D01*
X146258334Y-95659584D01*
X146330586Y-95834017D01*
X146330591Y-95834026D01*
X146435483Y-95991007D01*
X146435486Y-95991011D01*
X146568988Y-96124513D01*
X146568992Y-96124516D01*
X146725973Y-96229408D01*
X146725982Y-96229413D01*
X146857303Y-96283808D01*
X146911706Y-96327649D01*
X146933771Y-96393943D01*
X146916492Y-96461643D01*
X146897532Y-96486049D01*
X146867266Y-96516315D01*
X146867262Y-96516320D01*
X146804297Y-96625380D01*
X146804296Y-96625381D01*
X146796846Y-96653185D01*
X146771700Y-96747031D01*
X146771700Y-96747033D01*
X146771700Y-96876806D01*
X146752015Y-96943845D01*
X146699211Y-96989600D01*
X146673481Y-96998096D01*
X146517714Y-97031205D01*
X146343246Y-97108883D01*
X146188745Y-97221135D01*
X146060959Y-97363057D01*
X145965473Y-97528443D01*
X145965470Y-97528450D01*
X145907428Y-97707086D01*
X145906458Y-97710072D01*
X145886496Y-97900000D01*
X145906458Y-98089928D01*
X145906459Y-98089931D01*
X145965470Y-98271549D01*
X145965473Y-98271556D01*
X146060960Y-98436944D01*
X146188747Y-98578866D01*
X146343248Y-98691118D01*
X146517712Y-98768794D01*
X146517714Y-98768794D01*
X146517715Y-98768795D01*
X146573739Y-98780703D01*
X146667868Y-98800711D01*
X146729349Y-98833902D01*
X146763126Y-98895065D01*
X146758474Y-98964779D01*
X146729768Y-99009681D01*
X144713078Y-101026373D01*
X144595923Y-101143527D01*
X144595921Y-101143530D01*
X144526657Y-101263499D01*
X144515811Y-101282284D01*
X144510089Y-101303640D01*
X144498684Y-101346204D01*
X144474343Y-101437046D01*
X144474343Y-103009995D01*
X144454658Y-103077034D01*
X144401854Y-103122789D01*
X144332696Y-103132733D01*
X144302891Y-103124556D01*
X144239588Y-103098335D01*
X144239576Y-103098332D01*
X144054408Y-103061500D01*
X144054404Y-103061500D01*
X143065596Y-103061500D01*
X143065591Y-103061500D01*
X142880423Y-103098332D01*
X142880415Y-103098334D01*
X142705982Y-103170586D01*
X142705973Y-103170591D01*
X142548992Y-103275483D01*
X142548988Y-103275486D01*
X142415486Y-103408988D01*
X142415483Y-103408992D01*
X142310591Y-103565973D01*
X142310586Y-103565982D01*
X142238334Y-103740415D01*
X142238332Y-103740423D01*
X142201500Y-103925591D01*
X142201500Y-104114408D01*
X142238332Y-104299576D01*
X142238334Y-104299584D01*
X142310586Y-104474017D01*
X142310591Y-104474026D01*
X142415483Y-104631007D01*
X142415486Y-104631011D01*
X142548988Y-104764513D01*
X142548992Y-104764516D01*
X142705973Y-104869408D01*
X142705982Y-104869413D01*
X142745497Y-104885780D01*
X142880416Y-104941666D01*
X143065591Y-104978499D01*
X143065595Y-104978500D01*
X143065596Y-104978500D01*
X143295004Y-104978500D01*
X143362043Y-104998185D01*
X143407798Y-105050989D01*
X143417742Y-105120147D01*
X143402391Y-105164500D01*
X143365473Y-105228443D01*
X143365470Y-105228450D01*
X143325534Y-105351362D01*
X143306458Y-105410072D01*
X143286496Y-105600000D01*
X143306458Y-105789928D01*
X143306459Y-105789931D01*
X143365470Y-105971549D01*
X143365473Y-105971556D01*
X143460960Y-106136944D01*
X143525372Y-106208481D01*
X143576410Y-106265165D01*
X143588747Y-106278866D01*
X143743248Y-106391118D01*
X143917712Y-106468794D01*
X144104513Y-106508500D01*
X144295487Y-106508500D01*
X144482288Y-106468794D01*
X144656752Y-106391118D01*
X144811253Y-106278866D01*
X144939040Y-106136944D01*
X145034527Y-105971556D01*
X145093542Y-105789928D01*
X145113504Y-105600000D01*
X145113504Y-105599996D01*
X145113504Y-105598406D01*
X145113764Y-105597519D01*
X145114183Y-105593536D01*
X145114911Y-105593612D01*
X145133189Y-105531367D01*
X145149823Y-105510725D01*
X145250480Y-105410068D01*
X145288920Y-105371628D01*
X145350242Y-105338144D01*
X145419934Y-105343128D01*
X145475867Y-105385000D01*
X145500284Y-105450464D01*
X145499921Y-105472271D01*
X145486664Y-105598406D01*
X145486496Y-105600000D01*
X145506458Y-105789928D01*
X145506459Y-105789931D01*
X145565470Y-105971549D01*
X145565473Y-105971556D01*
X145660960Y-106136944D01*
X145725372Y-106208481D01*
X145776410Y-106265165D01*
X145788747Y-106278866D01*
X145943248Y-106391118D01*
X146117712Y-106468794D01*
X146304513Y-106508500D01*
X146495487Y-106508500D01*
X146682288Y-106468794D01*
X146856752Y-106391118D01*
X147011253Y-106278866D01*
X147139040Y-106136944D01*
X147234527Y-105971556D01*
X147293542Y-105789928D01*
X147313504Y-105600000D01*
X147293542Y-105410072D01*
X147234527Y-105228444D01*
X147197609Y-105164500D01*
X147181136Y-105096599D01*
X147203989Y-105030572D01*
X147258910Y-104987382D01*
X147304996Y-104978500D01*
X148374405Y-104978500D01*
X148374406Y-104978499D01*
X148559584Y-104941666D01*
X148734020Y-104869412D01*
X148891008Y-104764516D01*
X149024516Y-104631008D01*
X149129412Y-104474020D01*
X149201666Y-104299584D01*
X149238500Y-104114404D01*
X149238500Y-103925596D01*
X149201666Y-103740416D01*
X149134720Y-103578795D01*
X149129413Y-103565982D01*
X149129408Y-103565973D01*
X149024516Y-103408992D01*
X149024513Y-103408988D01*
X148891011Y-103275486D01*
X148891007Y-103275483D01*
X148734026Y-103170591D01*
X148734017Y-103170586D01*
X148677221Y-103147061D01*
X148622818Y-103103220D01*
X148600753Y-103036926D01*
X148618032Y-102969227D01*
X148669169Y-102921616D01*
X148724674Y-102908500D01*
X148938638Y-102908500D01*
X148938654Y-102908499D01*
X148985277Y-102903485D01*
X148999201Y-102901989D01*
X149072889Y-102874504D01*
X149094838Y-102866318D01*
X149138171Y-102858500D01*
X149364708Y-102858500D01*
X149402163Y-102851049D01*
X149458349Y-102839873D01*
X149511247Y-102829351D01*
X149649284Y-102772174D01*
X149773515Y-102689166D01*
X150389166Y-102073515D01*
X150472174Y-101949284D01*
X150529351Y-101811247D01*
X150555690Y-101678833D01*
X150558500Y-101664706D01*
X150558500Y-99957500D01*
X150578185Y-99890461D01*
X150630989Y-99844706D01*
X150682500Y-99833500D01*
X150929706Y-99833500D01*
X151002976Y-99818925D01*
X151002977Y-99818925D01*
X151021419Y-99815256D01*
X151076247Y-99804351D01*
X151176046Y-99763012D01*
X151245512Y-99755544D01*
X151307991Y-99786818D01*
X151343644Y-99846907D01*
X151341427Y-99915892D01*
X151294864Y-100059201D01*
X151286458Y-100085072D01*
X151266496Y-100275000D01*
X151286458Y-100464928D01*
X151286459Y-100464931D01*
X151345470Y-100646549D01*
X151345473Y-100646556D01*
X151440960Y-100811944D01*
X151527899Y-100908500D01*
X151558724Y-100942735D01*
X151568747Y-100953866D01*
X151723248Y-101066118D01*
X151897712Y-101143794D01*
X152084513Y-101183500D01*
X152275487Y-101183500D01*
X152462288Y-101143794D01*
X152636752Y-101066118D01*
X152791253Y-100953866D01*
X152795160Y-100949527D01*
X152854646Y-100912879D01*
X152887309Y-100908500D01*
X153242395Y-100908500D01*
X153242396Y-100908499D01*
X153364785Y-100884155D01*
X153480075Y-100836400D01*
X153565386Y-100779397D01*
X153632063Y-100758519D01*
X153634277Y-100758499D01*
X153937271Y-100758499D01*
X154008644Y-100752014D01*
X154008647Y-100752013D01*
X154008649Y-100752013D01*
X154172913Y-100700827D01*
X154272854Y-100640409D01*
X154340406Y-100622574D01*
X154406880Y-100644091D01*
X154451168Y-100698131D01*
X154459209Y-100767536D01*
X154455388Y-100783416D01*
X154427987Y-100871351D01*
X154426158Y-100891484D01*
X154421500Y-100942737D01*
X154421500Y-101607272D01*
X154427985Y-101678645D01*
X154427988Y-101678655D01*
X154479171Y-101842909D01*
X154479172Y-101842911D01*
X154479173Y-101842913D01*
X154568184Y-101990155D01*
X154568186Y-101990158D01*
X154689841Y-102111813D01*
X154689843Y-102111814D01*
X154689845Y-102111816D01*
X154837087Y-102200827D01*
X155001351Y-102252013D01*
X155072735Y-102258500D01*
X155587264Y-102258499D01*
X155587272Y-102258499D01*
X155658645Y-102252014D01*
X155658652Y-102252012D01*
X155671222Y-102248095D01*
X155822913Y-102200827D01*
X155822915Y-102200825D01*
X155823305Y-102200704D01*
X155893165Y-102199552D01*
X155933082Y-102218772D01*
X155998242Y-102266114D01*
X155998243Y-102266115D01*
X155998245Y-102266116D01*
X155998248Y-102266118D01*
X156172712Y-102343794D01*
X156359513Y-102383500D01*
X156550487Y-102383500D01*
X156737288Y-102343794D01*
X156911752Y-102266118D01*
X157066253Y-102153866D01*
X157194040Y-102011944D01*
X157289527Y-101846556D01*
X157348542Y-101664928D01*
X157368504Y-101475000D01*
X157348542Y-101285072D01*
X157289527Y-101103444D01*
X157194040Y-100938056D01*
X157066253Y-100796134D01*
X156911752Y-100683882D01*
X156737288Y-100606206D01*
X156737286Y-100606205D01*
X156550487Y-100566500D01*
X156359513Y-100566500D01*
X156359512Y-100566500D01*
X156210084Y-100598261D01*
X156140417Y-100592945D01*
X156096622Y-100564652D01*
X156091817Y-100559847D01*
X156091816Y-100559845D01*
X155970155Y-100438184D01*
X155822913Y-100349173D01*
X155658649Y-100297987D01*
X155658647Y-100297986D01*
X155658645Y-100297986D01*
X155608667Y-100293444D01*
X155587265Y-100291500D01*
X155587262Y-100291500D01*
X155072727Y-100291500D01*
X155001354Y-100297985D01*
X155001344Y-100297988D01*
X154837089Y-100349171D01*
X154737147Y-100409589D01*
X154669592Y-100427425D01*
X154603118Y-100405907D01*
X154558831Y-100351867D01*
X154550790Y-100282461D01*
X154554612Y-100266582D01*
X154582013Y-100178649D01*
X154588500Y-100107265D01*
X154588499Y-99442736D01*
X154588499Y-99442735D01*
X154588499Y-99442727D01*
X154582014Y-99371354D01*
X154582011Y-99371344D01*
X154554613Y-99283418D01*
X154553461Y-99213558D01*
X154590262Y-99154166D01*
X154653331Y-99124098D01*
X154722644Y-99132900D01*
X154737139Y-99140406D01*
X154837087Y-99200827D01*
X155001351Y-99252013D01*
X155072735Y-99258500D01*
X155587264Y-99258499D01*
X155587272Y-99258499D01*
X155658645Y-99252014D01*
X155658648Y-99252013D01*
X155658649Y-99252013D01*
X155822913Y-99200827D01*
X155970155Y-99111816D01*
X155970158Y-99111812D01*
X155970179Y-99111800D01*
X156037733Y-99093964D01*
X156084763Y-99104636D01*
X156172712Y-99143794D01*
X156359513Y-99183500D01*
X156550487Y-99183500D01*
X156737288Y-99143794D01*
X156911752Y-99066118D01*
X157066253Y-98953866D01*
X157194040Y-98811944D01*
X157289527Y-98646556D01*
X157348542Y-98464928D01*
X157368504Y-98275000D01*
X157348542Y-98085072D01*
X157289527Y-97903444D01*
X157194040Y-97738056D01*
X157078981Y-97610270D01*
X157066254Y-97596135D01*
X157016306Y-97559845D01*
X156911752Y-97483882D01*
X156737288Y-97406206D01*
X156737286Y-97406205D01*
X156550487Y-97366500D01*
X156359513Y-97366500D01*
X156172713Y-97406205D01*
X156172710Y-97406206D01*
X156084763Y-97445362D01*
X156015513Y-97454646D01*
X155970179Y-97438199D01*
X155970156Y-97438185D01*
X155970155Y-97438184D01*
X155822913Y-97349173D01*
X155658649Y-97297987D01*
X155658647Y-97297986D01*
X155658645Y-97297986D01*
X155608667Y-97293444D01*
X155587265Y-97291500D01*
X155587262Y-97291500D01*
X155072727Y-97291500D01*
X155001354Y-97297985D01*
X155001344Y-97297988D01*
X154837090Y-97349171D01*
X154689841Y-97438186D01*
X154568186Y-97559841D01*
X154479173Y-97707086D01*
X154427986Y-97871354D01*
X154421500Y-97942737D01*
X154421500Y-98607272D01*
X154427985Y-98678645D01*
X154427986Y-98678647D01*
X154455387Y-98766581D01*
X154456537Y-98836442D01*
X154419736Y-98895834D01*
X154356667Y-98925902D01*
X154287354Y-98917098D01*
X154272851Y-98909588D01*
X154250099Y-98895834D01*
X154172913Y-98849173D01*
X154008649Y-98797987D01*
X154008647Y-98797986D01*
X154008645Y-98797986D01*
X153958667Y-98793444D01*
X153937265Y-98791500D01*
X153937262Y-98791500D01*
X153422727Y-98791500D01*
X153351354Y-98797985D01*
X153351344Y-98797988D01*
X153187090Y-98849171D01*
X153039841Y-98938186D01*
X152918186Y-99059841D01*
X152829173Y-99207086D01*
X152777985Y-99371358D01*
X152776707Y-99377786D01*
X152774437Y-99377334D01*
X152752649Y-99432440D01*
X152695908Y-99473211D01*
X152626132Y-99476833D01*
X152604417Y-99469485D01*
X152513253Y-99428897D01*
X152462288Y-99406206D01*
X152462286Y-99406205D01*
X152275487Y-99366500D01*
X152084513Y-99366500D01*
X151924628Y-99400484D01*
X151854961Y-99395168D01*
X151799227Y-99353031D01*
X151775122Y-99287451D01*
X151790299Y-99219249D01*
X151811162Y-99191517D01*
X151811752Y-99190927D01*
X151873073Y-99157444D01*
X151873290Y-99157397D01*
X151937288Y-99143794D01*
X152111752Y-99066118D01*
X152266253Y-98953866D01*
X152394040Y-98811944D01*
X152489527Y-98646556D01*
X152548542Y-98464928D01*
X152568504Y-98275000D01*
X152548542Y-98085072D01*
X152489527Y-97903444D01*
X152394040Y-97738056D01*
X152278981Y-97610270D01*
X152266254Y-97596135D01*
X152111755Y-97483884D01*
X152111754Y-97483883D01*
X152111752Y-97483882D01*
X151937288Y-97406206D01*
X151937286Y-97406205D01*
X151873648Y-97392678D01*
X151812167Y-97359484D01*
X151811750Y-97359069D01*
X151163518Y-96710836D01*
X151163517Y-96710835D01*
X151079356Y-96654601D01*
X151039284Y-96627826D01*
X151039282Y-96627825D01*
X150901248Y-96570649D01*
X150887735Y-96567961D01*
X150819804Y-96554449D01*
X150819800Y-96554448D01*
X150754708Y-96541500D01*
X150754706Y-96541500D01*
X149138171Y-96541500D01*
X149094838Y-96533682D01*
X148999198Y-96498010D01*
X148999199Y-96498010D01*
X148938654Y-96491500D01*
X148938638Y-96491500D01*
X148724674Y-96491500D01*
X148657635Y-96471815D01*
X148611880Y-96419011D01*
X148601936Y-96349853D01*
X148630961Y-96286297D01*
X148677221Y-96252939D01*
X148687607Y-96248637D01*
X148734020Y-96229412D01*
X148891008Y-96124516D01*
X149024516Y-95991008D01*
X149129412Y-95834020D01*
X149201666Y-95659584D01*
X149238500Y-95474404D01*
X149238500Y-95285596D01*
X149201666Y-95100416D01*
X149195861Y-95086401D01*
X149162124Y-95004952D01*
X149154655Y-94935483D01*
X149185930Y-94873004D01*
X149246019Y-94837352D01*
X149276685Y-94833500D01*
X152886234Y-94833500D01*
X152953273Y-94853185D01*
X152973915Y-94869819D01*
X153032929Y-94928833D01*
X153085479Y-94981383D01*
X153121168Y-95017072D01*
X153224918Y-95086396D01*
X153224927Y-95086401D01*
X153237237Y-95091500D01*
X153340215Y-95134155D01*
X153462601Y-95158499D01*
X153462605Y-95158500D01*
X153462606Y-95158500D01*
X161718296Y-95158500D01*
X161785335Y-95178185D01*
X161831090Y-95230989D01*
X161841034Y-95300147D01*
X161812009Y-95363703D01*
X161753231Y-95401477D01*
X161744078Y-95403790D01*
X161732713Y-95406205D01*
X161558246Y-95483883D01*
X161403745Y-95596135D01*
X161275959Y-95738057D01*
X161180473Y-95903443D01*
X161180470Y-95903450D01*
X161132157Y-96052144D01*
X161121458Y-96085072D01*
X161101496Y-96275000D01*
X161121458Y-96464928D01*
X161121459Y-96464931D01*
X161180470Y-96646549D01*
X161180473Y-96646556D01*
X161235443Y-96741767D01*
X161239887Y-96749463D01*
X161256500Y-96811463D01*
X161256500Y-98138960D01*
X161250206Y-98177964D01*
X161217026Y-98278095D01*
X161206500Y-98381117D01*
X161206500Y-98968867D01*
X161206501Y-98968883D01*
X161217026Y-99071905D01*
X161272338Y-99238826D01*
X161272340Y-99238831D01*
X161284472Y-99258500D01*
X161354081Y-99371354D01*
X161364657Y-99388499D01*
X161489002Y-99512844D01*
X161492028Y-99515237D01*
X161493563Y-99517405D01*
X161494109Y-99517951D01*
X161494015Y-99518044D01*
X161532402Y-99572260D01*
X161535538Y-99642059D01*
X161500440Y-99702474D01*
X161492028Y-99709763D01*
X161489002Y-99712155D01*
X161364657Y-99836500D01*
X161272340Y-99986168D01*
X161272337Y-99986175D01*
X161217025Y-100153097D01*
X161206500Y-100256117D01*
X161206500Y-100843867D01*
X161206501Y-100843883D01*
X161217026Y-100946905D01*
X161272338Y-101113826D01*
X161272340Y-101113831D01*
X161287400Y-101138247D01*
X161364656Y-101263498D01*
X161489002Y-101387844D01*
X161638671Y-101480161D01*
X161805596Y-101535474D01*
X161908625Y-101546000D01*
X162286956Y-101545999D01*
X162353995Y-101565683D01*
X162374637Y-101582318D01*
X162445181Y-101652862D01*
X162478666Y-101714185D01*
X162481500Y-101740543D01*
X162481500Y-102154813D01*
X162461815Y-102221852D01*
X162445181Y-102242494D01*
X162395715Y-102291959D01*
X162395712Y-102291963D01*
X162305702Y-102437890D01*
X162305697Y-102437901D01*
X162251764Y-102600663D01*
X162241500Y-102701120D01*
X162241500Y-103298879D01*
X162251764Y-103399336D01*
X162305697Y-103562098D01*
X162305702Y-103562109D01*
X162395712Y-103708036D01*
X162395715Y-103708040D01*
X162445181Y-103757506D01*
X162478666Y-103818829D01*
X162481500Y-103845187D01*
X162481500Y-104474708D01*
X162485258Y-104493600D01*
X162510647Y-104621239D01*
X162510649Y-104621247D01*
X162567826Y-104759285D01*
X162569521Y-104761822D01*
X162569999Y-104763351D01*
X162570696Y-104764654D01*
X162570448Y-104764786D01*
X162590396Y-104828500D01*
X162571909Y-104895880D01*
X162519928Y-104942567D01*
X162509758Y-104946887D01*
X162503795Y-104949111D01*
X162386739Y-105036739D01*
X162299111Y-105153795D01*
X162248011Y-105290795D01*
X162248011Y-105290797D01*
X162241500Y-105351345D01*
X162241500Y-107448654D01*
X162248011Y-107509202D01*
X162248011Y-107509204D01*
X162285633Y-107610068D01*
X162299111Y-107646204D01*
X162386739Y-107763261D01*
X162503796Y-107850889D01*
X162640799Y-107901989D01*
X162668050Y-107904918D01*
X162701345Y-107908499D01*
X162701362Y-107908500D01*
X164298638Y-107908500D01*
X164298654Y-107908499D01*
X164325692Y-107905591D01*
X164359201Y-107901989D01*
X164496204Y-107850889D01*
X164496204Y-107850888D01*
X164496206Y-107850888D01*
X164496207Y-107850887D01*
X164549629Y-107810895D01*
X164575689Y-107791386D01*
X164641153Y-107766969D01*
X164709426Y-107781820D01*
X164724311Y-107791387D01*
X164803792Y-107850887D01*
X164803793Y-107850888D01*
X164892497Y-107883973D01*
X164940799Y-107901989D01*
X164968050Y-107904918D01*
X165001345Y-107908499D01*
X165001362Y-107908500D01*
X166598638Y-107908500D01*
X166598654Y-107908499D01*
X166625692Y-107905591D01*
X166659201Y-107901989D01*
X166796204Y-107850889D01*
X166913261Y-107763261D01*
X167000889Y-107646204D01*
X167051989Y-107509201D01*
X167055591Y-107475692D01*
X167058499Y-107448654D01*
X167058500Y-107448637D01*
X167058500Y-105351362D01*
X167058499Y-105351345D01*
X167052522Y-105295756D01*
X167064926Y-105226997D01*
X167112536Y-105175859D01*
X167175811Y-105158500D01*
X168274710Y-105158500D01*
X168279615Y-105158017D01*
X168291766Y-105157420D01*
X170874601Y-105157420D01*
X170874602Y-105157419D01*
X171020931Y-105128313D01*
X171158773Y-105071217D01*
X171170986Y-105063057D01*
X171268073Y-104998185D01*
X171282827Y-104988327D01*
X171388327Y-104882827D01*
X171388328Y-104882825D01*
X171395394Y-104875759D01*
X171395396Y-104875755D01*
X172569820Y-103701331D01*
X172631142Y-103667848D01*
X172700834Y-103672832D01*
X172756767Y-103714704D01*
X172781184Y-103780168D01*
X172781500Y-103789014D01*
X172781500Y-105423654D01*
X172788011Y-105484202D01*
X172788011Y-105484204D01*
X172830277Y-105597519D01*
X172839111Y-105621204D01*
X172926739Y-105738261D01*
X173043796Y-105825889D01*
X173132765Y-105859073D01*
X173180793Y-105876987D01*
X173180799Y-105876989D01*
X173208050Y-105879918D01*
X173241345Y-105883499D01*
X173241362Y-105883500D01*
X173938638Y-105883500D01*
X173938654Y-105883499D01*
X173965692Y-105880591D01*
X173999201Y-105876989D01*
X173999207Y-105876987D01*
X174123643Y-105830574D01*
X174193335Y-105825589D01*
X174254658Y-105859073D01*
X174288144Y-105920396D01*
X174283160Y-105990088D01*
X174254659Y-106034436D01*
X174071568Y-106217528D01*
X174010245Y-106251013D01*
X173983887Y-106253847D01*
X170807309Y-106253847D01*
X170740270Y-106234162D01*
X170715160Y-106212820D01*
X170711254Y-106208482D01*
X170653217Y-106166315D01*
X170556752Y-106096229D01*
X170382288Y-106018553D01*
X170382286Y-106018552D01*
X170195487Y-105978847D01*
X170004513Y-105978847D01*
X169817714Y-106018552D01*
X169643246Y-106096230D01*
X169488745Y-106208482D01*
X169360959Y-106350404D01*
X169265473Y-106515790D01*
X169265470Y-106515797D01*
X169207786Y-106693332D01*
X169206458Y-106697419D01*
X169186496Y-106887347D01*
X169206458Y-107077275D01*
X169206459Y-107077278D01*
X169265470Y-107258896D01*
X169265473Y-107258903D01*
X169360960Y-107424291D01*
X169488747Y-107566213D01*
X169643248Y-107678465D01*
X169817712Y-107756141D01*
X170004513Y-107795847D01*
X170195487Y-107795847D01*
X170382288Y-107756141D01*
X170556752Y-107678465D01*
X170667108Y-107598286D01*
X170732912Y-107574807D01*
X170800966Y-107590632D01*
X170827673Y-107610924D01*
X170969707Y-107752958D01*
X171003192Y-107814281D01*
X170998208Y-107883973D01*
X170969711Y-107928317D01*
X170963186Y-107934842D01*
X170874173Y-108082086D01*
X170822986Y-108246354D01*
X170816500Y-108317737D01*
X170816500Y-108832272D01*
X170822985Y-108903645D01*
X170822988Y-108903655D01*
X170874171Y-109067909D01*
X170963186Y-109215158D01*
X171060347Y-109312319D01*
X171093832Y-109373642D01*
X171088848Y-109443334D01*
X171060347Y-109487681D01*
X170963187Y-109584840D01*
X170963186Y-109584841D01*
X170874173Y-109732086D01*
X170822986Y-109896354D01*
X170816500Y-109967737D01*
X170816500Y-110482272D01*
X170822985Y-110553645D01*
X170822988Y-110553655D01*
X170874171Y-110717909D01*
X170874172Y-110717911D01*
X170874173Y-110717913D01*
X170961915Y-110863056D01*
X170963186Y-110865158D01*
X171084841Y-110986813D01*
X171084843Y-110986814D01*
X171084845Y-110986816D01*
X171232087Y-111075827D01*
X171241283Y-111078692D01*
X171299430Y-111117427D01*
X171307494Y-111128183D01*
X171307925Y-111128829D01*
X171307933Y-111128838D01*
X172944324Y-112765228D01*
X172977809Y-112826551D01*
X172975030Y-112889794D01*
X172972987Y-112896350D01*
X172966500Y-112967737D01*
X172966500Y-113632272D01*
X172972985Y-113703645D01*
X172972988Y-113703655D01*
X173024171Y-113867909D01*
X173024172Y-113867911D01*
X173024173Y-113867913D01*
X173113184Y-114015155D01*
X173113186Y-114015158D01*
X173216657Y-114118629D01*
X173250142Y-114179952D01*
X173245158Y-114249644D01*
X173203286Y-114305577D01*
X173165866Y-114324695D01*
X173007090Y-114374171D01*
X172859841Y-114463186D01*
X172859840Y-114463187D01*
X172762681Y-114560347D01*
X172701358Y-114593832D01*
X172631666Y-114588848D01*
X172587319Y-114560347D01*
X172490158Y-114463186D01*
X172402290Y-114410068D01*
X172342913Y-114374173D01*
X172178649Y-114322987D01*
X172178647Y-114322986D01*
X172178645Y-114322986D01*
X172128667Y-114318444D01*
X172107265Y-114316500D01*
X172107262Y-114316500D01*
X171813766Y-114316500D01*
X171746727Y-114296815D01*
X171726085Y-114280181D01*
X169653836Y-112207931D01*
X169653832Y-112207928D01*
X169550081Y-112138603D01*
X169550072Y-112138598D01*
X169434785Y-112090845D01*
X169434777Y-112090843D01*
X169312398Y-112066500D01*
X169312394Y-112066500D01*
X168332500Y-112066500D01*
X168265461Y-112046815D01*
X168219706Y-111994011D01*
X168208500Y-111942500D01*
X168208500Y-111651362D01*
X168208499Y-111651345D01*
X168204762Y-111616596D01*
X168201989Y-111590799D01*
X168201665Y-111589931D01*
X168166761Y-111496351D01*
X168150889Y-111453796D01*
X168063261Y-111336739D01*
X167946204Y-111249111D01*
X167944933Y-111248637D01*
X167809203Y-111198011D01*
X167748654Y-111191500D01*
X167748638Y-111191500D01*
X163851362Y-111191500D01*
X163851345Y-111191500D01*
X163790797Y-111198011D01*
X163790795Y-111198011D01*
X163653795Y-111249111D01*
X163536739Y-111336739D01*
X163449111Y-111453795D01*
X163398011Y-111590795D01*
X163398011Y-111590797D01*
X163391500Y-111651345D01*
X163391500Y-113748654D01*
X163398011Y-113809202D01*
X163398011Y-113809204D01*
X163449111Y-113946204D01*
X163536739Y-114063261D01*
X163653796Y-114150889D01*
X163790799Y-114201989D01*
X163818050Y-114204918D01*
X163851345Y-114208499D01*
X163851362Y-114208500D01*
X164259457Y-114208500D01*
X164326496Y-114228185D01*
X164347138Y-114244819D01*
X166441299Y-116338980D01*
X166474784Y-116400303D01*
X166469800Y-116469995D01*
X166459158Y-116491756D01*
X166430696Y-116537902D01*
X166376764Y-116700660D01*
X166376764Y-116700661D01*
X166366500Y-116801120D01*
X166366500Y-116984547D01*
X166346815Y-117051586D01*
X166330181Y-117072228D01*
X164195180Y-119207228D01*
X164133857Y-119240713D01*
X164064165Y-119235729D01*
X164008232Y-119193857D01*
X163983815Y-119128393D01*
X163983499Y-119119564D01*
X163983499Y-118792736D01*
X163983499Y-118792727D01*
X163977014Y-118721354D01*
X163977011Y-118721344D01*
X163925828Y-118557090D01*
X163925827Y-118557089D01*
X163925827Y-118557087D01*
X163836816Y-118409845D01*
X163836814Y-118409843D01*
X163836813Y-118409841D01*
X163739653Y-118312681D01*
X163706168Y-118251358D01*
X163711152Y-118181666D01*
X163739653Y-118137319D01*
X163836812Y-118040159D01*
X163836813Y-118040158D01*
X163836816Y-118040155D01*
X163925827Y-117892913D01*
X163977013Y-117728649D01*
X163983500Y-117657265D01*
X163983499Y-117142736D01*
X163983499Y-117142735D01*
X163983499Y-117142727D01*
X163977014Y-117071354D01*
X163977011Y-117071344D01*
X163925828Y-116907090D01*
X163925827Y-116907089D01*
X163925827Y-116907087D01*
X163836816Y-116759845D01*
X163836814Y-116759843D01*
X163836813Y-116759841D01*
X163715158Y-116638186D01*
X163567913Y-116549173D01*
X163567907Y-116549171D01*
X163403649Y-116497987D01*
X163403647Y-116497986D01*
X163403645Y-116497986D01*
X163353667Y-116493444D01*
X163332265Y-116491500D01*
X163332262Y-116491500D01*
X162667727Y-116491500D01*
X162596354Y-116497985D01*
X162596344Y-116497988D01*
X162432090Y-116549171D01*
X162284841Y-116638186D01*
X162163186Y-116759841D01*
X162074173Y-116907086D01*
X162022986Y-117071354D01*
X162016500Y-117142737D01*
X162016500Y-117471588D01*
X161996815Y-117538627D01*
X161980181Y-117559269D01*
X161265173Y-118274277D01*
X161203850Y-118307762D01*
X161134158Y-118302778D01*
X161078225Y-118260906D01*
X161053808Y-118195442D01*
X161061311Y-118143261D01*
X161063311Y-118137901D01*
X161100795Y-118037402D01*
X161101988Y-118034204D01*
X161101988Y-118034203D01*
X161101989Y-118034201D01*
X161106530Y-117991960D01*
X161108499Y-117973654D01*
X161108500Y-117973637D01*
X161108500Y-116976362D01*
X161108499Y-116976345D01*
X161104029Y-116934777D01*
X161101989Y-116915799D01*
X161101987Y-116915795D01*
X161101987Y-116915792D01*
X161047790Y-116770486D01*
X161050700Y-116769400D01*
X161039108Y-116716195D01*
X161049672Y-116680215D01*
X161047790Y-116679514D01*
X161101987Y-116534207D01*
X161101988Y-116534204D01*
X161101989Y-116534201D01*
X161106580Y-116491500D01*
X161108499Y-116473654D01*
X161108500Y-116473637D01*
X161108500Y-115476362D01*
X161108499Y-115476345D01*
X161105157Y-115445270D01*
X161101989Y-115415799D01*
X161101987Y-115415795D01*
X161101987Y-115415792D01*
X161047790Y-115270486D01*
X161050700Y-115269400D01*
X161039108Y-115216195D01*
X161049672Y-115180215D01*
X161047790Y-115179514D01*
X161101987Y-115034207D01*
X161101988Y-115034204D01*
X161101989Y-115034201D01*
X161106655Y-114990799D01*
X161108499Y-114973654D01*
X161108500Y-114973637D01*
X161108500Y-113976362D01*
X161108499Y-113976345D01*
X161105157Y-113945270D01*
X161101989Y-113915799D01*
X161101987Y-113915795D01*
X161101987Y-113915792D01*
X161047790Y-113770486D01*
X161050700Y-113769400D01*
X161039108Y-113716195D01*
X161049672Y-113680215D01*
X161047790Y-113679514D01*
X161101987Y-113534207D01*
X161101988Y-113534204D01*
X161101989Y-113534201D01*
X161105758Y-113499147D01*
X161108499Y-113473654D01*
X161108500Y-113473637D01*
X161108500Y-112476362D01*
X161108499Y-112476345D01*
X161105157Y-112445270D01*
X161101989Y-112415799D01*
X161101987Y-112415795D01*
X161101987Y-112415792D01*
X161047790Y-112270486D01*
X161050700Y-112269400D01*
X161039108Y-112216195D01*
X161049672Y-112180215D01*
X161047790Y-112179514D01*
X161101987Y-112034207D01*
X161101988Y-112034204D01*
X161101989Y-112034201D01*
X161106310Y-111994011D01*
X161108499Y-111973654D01*
X161108500Y-111973637D01*
X161108500Y-110976362D01*
X161108499Y-110976345D01*
X161104248Y-110936816D01*
X161101989Y-110915799D01*
X161101987Y-110915795D01*
X161101987Y-110915792D01*
X161047790Y-110770486D01*
X161050700Y-110769400D01*
X161039108Y-110716195D01*
X161049672Y-110680215D01*
X161047790Y-110679514D01*
X161101987Y-110534207D01*
X161101988Y-110534204D01*
X161101989Y-110534201D01*
X161106655Y-110490799D01*
X161108499Y-110473654D01*
X161108500Y-110473637D01*
X161108500Y-109476362D01*
X161108499Y-109476345D01*
X161104949Y-109443334D01*
X161101989Y-109415799D01*
X161101986Y-109415792D01*
X161079522Y-109355564D01*
X161050889Y-109278796D01*
X160963261Y-109161739D01*
X160846204Y-109074111D01*
X160829576Y-109067909D01*
X160709203Y-109023011D01*
X160648654Y-109016500D01*
X160648638Y-109016500D01*
X159051362Y-109016500D01*
X159051345Y-109016500D01*
X158990797Y-109023011D01*
X158990795Y-109023011D01*
X158853795Y-109074111D01*
X158736739Y-109161739D01*
X158649111Y-109278795D01*
X158598011Y-109415795D01*
X158598011Y-109415797D01*
X158591500Y-109476345D01*
X158591500Y-110401292D01*
X158571815Y-110468331D01*
X158519011Y-110514086D01*
X158449853Y-110524030D01*
X158441719Y-110522582D01*
X158295487Y-110491500D01*
X158104513Y-110491500D01*
X157917714Y-110531205D01*
X157743246Y-110608883D01*
X157588745Y-110721135D01*
X157460959Y-110863057D01*
X157365473Y-111028443D01*
X157365470Y-111028450D01*
X157308497Y-111203796D01*
X157306458Y-111210072D01*
X157286496Y-111400000D01*
X157306458Y-111589928D01*
X157306459Y-111589931D01*
X157365470Y-111771549D01*
X157365473Y-111771556D01*
X157460960Y-111936944D01*
X157588747Y-112078866D01*
X157617398Y-112099682D01*
X157660063Y-112155013D01*
X157666042Y-112224626D01*
X157633436Y-112286421D01*
X157617398Y-112300318D01*
X157588745Y-112321135D01*
X157460959Y-112463057D01*
X157365473Y-112628443D01*
X157365470Y-112628450D01*
X157306459Y-112810068D01*
X157306458Y-112810072D01*
X157286496Y-113000000D01*
X157306458Y-113189928D01*
X157306459Y-113189931D01*
X157365470Y-113371549D01*
X157365473Y-113371556D01*
X157460960Y-113536944D01*
X157533068Y-113617028D01*
X157563297Y-113680020D01*
X157554671Y-113749355D01*
X157533068Y-113782971D01*
X157460960Y-113863056D01*
X157460958Y-113863057D01*
X157460957Y-113863060D01*
X157365473Y-114028443D01*
X157365470Y-114028450D01*
X157306866Y-114208816D01*
X157306458Y-114210072D01*
X157286496Y-114400000D01*
X157306458Y-114589928D01*
X157308442Y-114596035D01*
X157365470Y-114771549D01*
X157365473Y-114771556D01*
X157460960Y-114936944D01*
X157588747Y-115078866D01*
X157612611Y-115096204D01*
X157617398Y-115099682D01*
X157660063Y-115155013D01*
X157666042Y-115224626D01*
X157633436Y-115286421D01*
X157617398Y-115300318D01*
X157588745Y-115321135D01*
X157460959Y-115463057D01*
X157365473Y-115628443D01*
X157365470Y-115628450D01*
X157306740Y-115809204D01*
X157306458Y-115810072D01*
X157286496Y-116000000D01*
X157306458Y-116189928D01*
X157306459Y-116189931D01*
X157365470Y-116371549D01*
X157365473Y-116371556D01*
X157438467Y-116497986D01*
X157460960Y-116536944D01*
X157515945Y-116598011D01*
X157533068Y-116617028D01*
X157563297Y-116680020D01*
X157554671Y-116749355D01*
X157533068Y-116782971D01*
X157460960Y-116863056D01*
X157460958Y-116863057D01*
X157460957Y-116863060D01*
X157365473Y-117028443D01*
X157365470Y-117028450D01*
X157321940Y-117162423D01*
X157306458Y-117210072D01*
X157286496Y-117400000D01*
X157306458Y-117589928D01*
X157306459Y-117589931D01*
X157365470Y-117771549D01*
X157365473Y-117771556D01*
X157460960Y-117936944D01*
X157588747Y-118078866D01*
X157743248Y-118191118D01*
X157917712Y-118268794D01*
X158104513Y-118308500D01*
X158295486Y-118308500D01*
X158295487Y-118308500D01*
X158449533Y-118275756D01*
X158519197Y-118281072D01*
X158574931Y-118323208D01*
X158599037Y-118388788D01*
X158598602Y-118410300D01*
X158591500Y-118476359D01*
X158591500Y-119473654D01*
X158598011Y-119534202D01*
X158598011Y-119534204D01*
X158652210Y-119679512D01*
X158649308Y-119680594D01*
X158660886Y-119733874D01*
X158650340Y-119769790D01*
X158652210Y-119770488D01*
X158598011Y-119915795D01*
X158598011Y-119915797D01*
X158591500Y-119976345D01*
X158591500Y-120973654D01*
X158598011Y-121034202D01*
X158598011Y-121034204D01*
X158649111Y-121171204D01*
X158736739Y-121288261D01*
X158853796Y-121375889D01*
X158990799Y-121426989D01*
X159018050Y-121429918D01*
X159051345Y-121433499D01*
X159051362Y-121433500D01*
X160648638Y-121433500D01*
X160648654Y-121433499D01*
X160675692Y-121430591D01*
X160709201Y-121426989D01*
X160846204Y-121375889D01*
X160963261Y-121288261D01*
X160967057Y-121283189D01*
X161022990Y-121241318D01*
X161066324Y-121233500D01*
X162125294Y-121233500D01*
X163925294Y-121233500D01*
X164325294Y-121233500D01*
X164700294Y-121233500D01*
X165199706Y-121233500D01*
X165662401Y-121233500D01*
X165686591Y-121235882D01*
X165713915Y-121241318D01*
X165800291Y-121258500D01*
X165800294Y-121258500D01*
X166444813Y-121258500D01*
X166511852Y-121278185D01*
X166532494Y-121294819D01*
X166566959Y-121329284D01*
X166566963Y-121329287D01*
X166712890Y-121419297D01*
X166712893Y-121419298D01*
X166712899Y-121419302D01*
X166875664Y-121473236D01*
X166976128Y-121483500D01*
X166976133Y-121483500D01*
X167523867Y-121483500D01*
X167523872Y-121483500D01*
X167624336Y-121473236D01*
X167787101Y-121419302D01*
X167933040Y-121329285D01*
X168054285Y-121208040D01*
X168144302Y-121062101D01*
X168198236Y-120899336D01*
X168208500Y-120798872D01*
X168208500Y-120201128D01*
X168198236Y-120100664D01*
X168144302Y-119937899D01*
X168144298Y-119937893D01*
X168144297Y-119937890D01*
X168054287Y-119791963D01*
X168054284Y-119791959D01*
X167962506Y-119700181D01*
X167929021Y-119638858D01*
X167934005Y-119569166D01*
X167962506Y-119524819D01*
X168020254Y-119467071D01*
X168079285Y-119408040D01*
X168169302Y-119262101D01*
X168223236Y-119099336D01*
X168233500Y-118998872D01*
X168233500Y-118401128D01*
X168223236Y-118300664D01*
X168169302Y-118137899D01*
X168169298Y-118137893D01*
X168169297Y-118137890D01*
X168079667Y-117992578D01*
X168061226Y-117925186D01*
X168082148Y-117858522D01*
X168097520Y-117839804D01*
X168129285Y-117808040D01*
X168219302Y-117662101D01*
X168273236Y-117499336D01*
X168283500Y-117398872D01*
X168283500Y-116801128D01*
X168273236Y-116700664D01*
X168219302Y-116537899D01*
X168219298Y-116537893D01*
X168219297Y-116537890D01*
X168129287Y-116391963D01*
X168129284Y-116391959D01*
X168119819Y-116382494D01*
X168086334Y-116321171D01*
X168083500Y-116294813D01*
X168083500Y-116075291D01*
X168083499Y-116075289D01*
X168065508Y-115984845D01*
X168054351Y-115928754D01*
X168047662Y-115912606D01*
X168013114Y-115829199D01*
X167997174Y-115790716D01*
X167986120Y-115774173D01*
X167914168Y-115666488D01*
X167914167Y-115666487D01*
X167914165Y-115666484D01*
X167808516Y-115560835D01*
X166667862Y-114420181D01*
X166634377Y-114358858D01*
X166639361Y-114289166D01*
X166681233Y-114233233D01*
X166746697Y-114208816D01*
X166755543Y-114208500D01*
X167748638Y-114208500D01*
X167748654Y-114208499D01*
X167775692Y-114205591D01*
X167809201Y-114201989D01*
X167946204Y-114150889D01*
X168063261Y-114063261D01*
X168150889Y-113946204D01*
X168201989Y-113809201D01*
X168206281Y-113769280D01*
X168208499Y-113748654D01*
X168208500Y-113748637D01*
X168208500Y-113457500D01*
X168228185Y-113390461D01*
X168280989Y-113344706D01*
X168332500Y-113333500D01*
X168936234Y-113333500D01*
X169003273Y-113353185D01*
X169023915Y-113369819D01*
X170905181Y-115251085D01*
X170938666Y-115312408D01*
X170941500Y-115338766D01*
X170941500Y-115632272D01*
X170947985Y-115703645D01*
X170947988Y-115703655D01*
X170999171Y-115867909D01*
X170999172Y-115867911D01*
X170999173Y-115867913D01*
X171082751Y-116006168D01*
X171088186Y-116015158D01*
X171209841Y-116136813D01*
X171209843Y-116136814D01*
X171209845Y-116136816D01*
X171357087Y-116225827D01*
X171521351Y-116277013D01*
X171592735Y-116283500D01*
X172107264Y-116283499D01*
X172107272Y-116283499D01*
X172178645Y-116277014D01*
X172178648Y-116277013D01*
X172178649Y-116277013D01*
X172342913Y-116225827D01*
X172490155Y-116136816D01*
X172537876Y-116089095D01*
X172587319Y-116039653D01*
X172648642Y-116006168D01*
X172718334Y-116011152D01*
X172762681Y-116039653D01*
X172859841Y-116136813D01*
X172859843Y-116136814D01*
X172859845Y-116136816D01*
X173007087Y-116225827D01*
X173171351Y-116277013D01*
X173242735Y-116283500D01*
X173757264Y-116283499D01*
X173757272Y-116283499D01*
X173828645Y-116277014D01*
X173828648Y-116277013D01*
X173828649Y-116277013D01*
X173992913Y-116225827D01*
X174140155Y-116136816D01*
X174261816Y-116015155D01*
X174268072Y-116004805D01*
X174274998Y-115993350D01*
X174326526Y-115946163D01*
X174381115Y-115933500D01*
X175236234Y-115933500D01*
X175303273Y-115953185D01*
X175323915Y-115969819D01*
X176005181Y-116651085D01*
X176038666Y-116712408D01*
X176041500Y-116738766D01*
X176041500Y-116979357D01*
X176021815Y-117046396D01*
X175969011Y-117092151D01*
X175899853Y-117102095D01*
X175857765Y-117088020D01*
X175727517Y-117016415D01*
X175727508Y-117016410D01*
X175445742Y-116904851D01*
X175445739Y-116904850D01*
X175152197Y-116829483D01*
X174851539Y-116791500D01*
X174851530Y-116791500D01*
X174548470Y-116791500D01*
X174548460Y-116791500D01*
X174247802Y-116829483D01*
X173954260Y-116904850D01*
X173954257Y-116904851D01*
X173672491Y-117016410D01*
X173672490Y-117016411D01*
X173406910Y-117162416D01*
X173406898Y-117162423D01*
X173161737Y-117340543D01*
X173161727Y-117340551D01*
X172952726Y-117536816D01*
X172940808Y-117548008D01*
X172876430Y-117625828D01*
X172747626Y-117781524D01*
X172585247Y-118037393D01*
X172585244Y-118037397D01*
X172585242Y-118037402D01*
X172458021Y-118307762D01*
X172456204Y-118311624D01*
X172456203Y-118311625D01*
X172376448Y-118557087D01*
X172362555Y-118599846D01*
X172305767Y-118897538D01*
X172305766Y-118897544D01*
X172305765Y-118897548D01*
X172286738Y-119199994D01*
X172286738Y-119200005D01*
X172305765Y-119502451D01*
X172305766Y-119502455D01*
X172305766Y-119502459D01*
X172305767Y-119502462D01*
X172362555Y-119800154D01*
X172366814Y-119813261D01*
X172456203Y-120088374D01*
X172456204Y-120088375D01*
X172456206Y-120088381D01*
X172585242Y-120362598D01*
X172585246Y-120362605D01*
X172585247Y-120362606D01*
X172747626Y-120618475D01*
X172747629Y-120618479D01*
X172747630Y-120618480D01*
X172940808Y-120851992D01*
X173134843Y-121034202D01*
X173161727Y-121059448D01*
X173161737Y-121059456D01*
X173406898Y-121237576D01*
X173406903Y-121237578D01*
X173406910Y-121237584D01*
X173672483Y-121383585D01*
X173672488Y-121383587D01*
X173672490Y-121383588D01*
X173672491Y-121383589D01*
X173954257Y-121495148D01*
X173954260Y-121495149D01*
X174052107Y-121520271D01*
X174247800Y-121570516D01*
X174395028Y-121589115D01*
X174548460Y-121608499D01*
X174548466Y-121608499D01*
X174548470Y-121608500D01*
X174548472Y-121608500D01*
X174851528Y-121608500D01*
X174851530Y-121608500D01*
X174851535Y-121608499D01*
X174851539Y-121608499D01*
X174931357Y-121598415D01*
X175152200Y-121570516D01*
X175445739Y-121495149D01*
X175445742Y-121495148D01*
X175727508Y-121383589D01*
X175727509Y-121383588D01*
X175727507Y-121383588D01*
X175727517Y-121383585D01*
X175993090Y-121237584D01*
X176238271Y-121059450D01*
X176459192Y-120851992D01*
X176652370Y-120618480D01*
X176814758Y-120362598D01*
X176943794Y-120088381D01*
X177037445Y-119800154D01*
X177094233Y-119502462D01*
X177094474Y-119498638D01*
X177113262Y-119200005D01*
X177113262Y-119199994D01*
X204786738Y-119199994D01*
X204786738Y-119200005D01*
X204805765Y-119502451D01*
X204805766Y-119502455D01*
X204805766Y-119502459D01*
X204805767Y-119502462D01*
X204862555Y-119800154D01*
X204866814Y-119813261D01*
X204956203Y-120088374D01*
X204956204Y-120088375D01*
X204956206Y-120088381D01*
X205085242Y-120362598D01*
X205085246Y-120362605D01*
X205085247Y-120362606D01*
X205247626Y-120618475D01*
X205247629Y-120618479D01*
X205247630Y-120618480D01*
X205440808Y-120851992D01*
X205634843Y-121034202D01*
X205661727Y-121059448D01*
X205661737Y-121059456D01*
X205906898Y-121237576D01*
X205906903Y-121237578D01*
X205906910Y-121237584D01*
X206172483Y-121383585D01*
X206172488Y-121383587D01*
X206172490Y-121383588D01*
X206172491Y-121383589D01*
X206454257Y-121495148D01*
X206454260Y-121495149D01*
X206552107Y-121520271D01*
X206747800Y-121570516D01*
X206895028Y-121589115D01*
X207048460Y-121608499D01*
X207048466Y-121608499D01*
X207048470Y-121608500D01*
X207048472Y-121608500D01*
X207351528Y-121608500D01*
X207351530Y-121608500D01*
X207351535Y-121608499D01*
X207351539Y-121608499D01*
X207431357Y-121598415D01*
X207652200Y-121570516D01*
X207945739Y-121495149D01*
X207945742Y-121495148D01*
X208227508Y-121383589D01*
X208227509Y-121383588D01*
X208227507Y-121383588D01*
X208227517Y-121383585D01*
X208493090Y-121237584D01*
X208738271Y-121059450D01*
X208959192Y-120851992D01*
X209152370Y-120618480D01*
X209314758Y-120362598D01*
X209443794Y-120088381D01*
X209537445Y-119800154D01*
X209594233Y-119502462D01*
X209594474Y-119498638D01*
X209613262Y-119200005D01*
X209613262Y-119199994D01*
X209594234Y-118897548D01*
X209594233Y-118897544D01*
X209594233Y-118897538D01*
X209537445Y-118599846D01*
X209443794Y-118311619D01*
X209314758Y-118037402D01*
X209228424Y-117901362D01*
X209152373Y-117781524D01*
X209131276Y-117756022D01*
X208959192Y-117548008D01*
X208738271Y-117340550D01*
X208738268Y-117340548D01*
X208738262Y-117340543D01*
X208493101Y-117162423D01*
X208493094Y-117162418D01*
X208493090Y-117162416D01*
X208227517Y-117016415D01*
X208227514Y-117016413D01*
X208227509Y-117016411D01*
X208227508Y-117016410D01*
X207945742Y-116904851D01*
X207945739Y-116904850D01*
X207652197Y-116829483D01*
X207351539Y-116791500D01*
X207351530Y-116791500D01*
X207048470Y-116791500D01*
X207048460Y-116791500D01*
X206747802Y-116829483D01*
X206454260Y-116904850D01*
X206454257Y-116904851D01*
X206172491Y-117016410D01*
X206172490Y-117016411D01*
X205906910Y-117162416D01*
X205906898Y-117162423D01*
X205661737Y-117340543D01*
X205661727Y-117340551D01*
X205452726Y-117536816D01*
X205440808Y-117548008D01*
X205376430Y-117625828D01*
X205247626Y-117781524D01*
X205085247Y-118037393D01*
X205085244Y-118037397D01*
X205085242Y-118037402D01*
X204958021Y-118307762D01*
X204956204Y-118311624D01*
X204956203Y-118311625D01*
X204876448Y-118557087D01*
X204862555Y-118599846D01*
X204805767Y-118897538D01*
X204805766Y-118897544D01*
X204805765Y-118897548D01*
X204786738Y-119199994D01*
X177113262Y-119199994D01*
X177094234Y-118897548D01*
X177094233Y-118897544D01*
X177094233Y-118897538D01*
X177037445Y-118599846D01*
X176943794Y-118311619D01*
X176814758Y-118037402D01*
X176774292Y-117973638D01*
X176711023Y-117873941D01*
X176691722Y-117806791D01*
X176711789Y-117739865D01*
X176764854Y-117694412D01*
X176815716Y-117683499D01*
X177207264Y-117683499D01*
X177207272Y-117683499D01*
X177278645Y-117677014D01*
X177278648Y-117677013D01*
X177278649Y-117677013D01*
X177442913Y-117625827D01*
X177590155Y-117536816D01*
X177711816Y-117415155D01*
X177800827Y-117267913D01*
X177852013Y-117103649D01*
X177858500Y-117032265D01*
X177858499Y-116367736D01*
X177858499Y-116367727D01*
X177852014Y-116296354D01*
X177852011Y-116296344D01*
X177800828Y-116132090D01*
X177800827Y-116132089D01*
X177800827Y-116132087D01*
X177711816Y-115984845D01*
X177711814Y-115984843D01*
X177711813Y-115984841D01*
X177590158Y-115863186D01*
X177502290Y-115810068D01*
X177442913Y-115774173D01*
X177278649Y-115722987D01*
X177278647Y-115722986D01*
X177278645Y-115722986D01*
X177228667Y-115718444D01*
X177207265Y-115716500D01*
X177207262Y-115716500D01*
X176913766Y-115716500D01*
X176846727Y-115696815D01*
X176826085Y-115680181D01*
X176194819Y-115048915D01*
X176161334Y-114987592D01*
X176158500Y-114961234D01*
X176158500Y-114194833D01*
X176178185Y-114127794D01*
X176194814Y-114107156D01*
X176286816Y-114015155D01*
X176375827Y-113867913D01*
X176427013Y-113703649D01*
X176433500Y-113632265D01*
X176433499Y-112967736D01*
X176433499Y-112967735D01*
X176433499Y-112967727D01*
X176427014Y-112896354D01*
X176427011Y-112896344D01*
X176375828Y-112732090D01*
X176375827Y-112732089D01*
X176375827Y-112732087D01*
X176286816Y-112584845D01*
X176286814Y-112584843D01*
X176286813Y-112584841D01*
X176165158Y-112463186D01*
X176017913Y-112374173D01*
X176017907Y-112374171D01*
X175853649Y-112322987D01*
X175853647Y-112322986D01*
X175853645Y-112322986D01*
X175803667Y-112318444D01*
X175782265Y-112316500D01*
X175782262Y-112316500D01*
X175267727Y-112316500D01*
X175196354Y-112322985D01*
X175196344Y-112322988D01*
X175032090Y-112374171D01*
X174884843Y-112463185D01*
X174787680Y-112560348D01*
X174726357Y-112593832D01*
X174656665Y-112588848D01*
X174612257Y-112560286D01*
X174611555Y-112559584D01*
X174578114Y-112498237D01*
X174583148Y-112428549D01*
X174611616Y-112384287D01*
X175352071Y-111643833D01*
X175421400Y-111540075D01*
X175469155Y-111424785D01*
X175485476Y-111342729D01*
X175517860Y-111280822D01*
X175578575Y-111246247D01*
X175648345Y-111249986D01*
X175650428Y-111250742D01*
X175720796Y-111276988D01*
X175720799Y-111276989D01*
X175748050Y-111279918D01*
X175781345Y-111283499D01*
X175781362Y-111283500D01*
X175991997Y-111283500D01*
X176059036Y-111303185D01*
X176079678Y-111319819D01*
X178259007Y-113499147D01*
X178259028Y-113499170D01*
X178351507Y-113591649D01*
X178351512Y-113591653D01*
X178376723Y-113608498D01*
X178376725Y-113608500D01*
X178412288Y-113632262D01*
X178455181Y-113660923D01*
X178529002Y-113691500D01*
X178558347Y-113703655D01*
X178570372Y-113708636D01*
X178594650Y-113713465D01*
X178594665Y-113713467D01*
X178594697Y-113713474D01*
X178673067Y-113729063D01*
X178692659Y-113732961D01*
X178692660Y-113732961D01*
X178704627Y-113732961D01*
X178771666Y-113752646D01*
X178792308Y-113769280D01*
X178884841Y-113861813D01*
X178884843Y-113861814D01*
X178884845Y-113861816D01*
X179032087Y-113950827D01*
X179196351Y-114002013D01*
X179267735Y-114008500D01*
X179932264Y-114008499D01*
X179932272Y-114008499D01*
X180003645Y-114002014D01*
X180003648Y-114002013D01*
X180003649Y-114002013D01*
X180167913Y-113950827D01*
X180315155Y-113861816D01*
X180436816Y-113740155D01*
X180525827Y-113592913D01*
X180577013Y-113428649D01*
X180583500Y-113357265D01*
X180583499Y-113063001D01*
X180603183Y-112995963D01*
X180619813Y-112975326D01*
X181100862Y-112494279D01*
X181162185Y-112460794D01*
X181188543Y-112457960D01*
X181404626Y-112457960D01*
X181471665Y-112477645D01*
X181492307Y-112494279D01*
X181584841Y-112586813D01*
X181584843Y-112586814D01*
X181584845Y-112586816D01*
X181732087Y-112675827D01*
X181896351Y-112727013D01*
X181967735Y-112733500D01*
X182632264Y-112733499D01*
X182632272Y-112733499D01*
X182703645Y-112727014D01*
X182703648Y-112727013D01*
X182703649Y-112727013D01*
X182867913Y-112675827D01*
X183015155Y-112586816D01*
X183136816Y-112465155D01*
X183225827Y-112317913D01*
X183277013Y-112153649D01*
X183283500Y-112082265D01*
X183283499Y-111567736D01*
X183283499Y-111567727D01*
X183277014Y-111496354D01*
X183277011Y-111496344D01*
X183225828Y-111332090D01*
X183225827Y-111332089D01*
X183225827Y-111332087D01*
X183136816Y-111184845D01*
X183136814Y-111184843D01*
X183136813Y-111184841D01*
X183039653Y-111087681D01*
X183006168Y-111026358D01*
X183011152Y-110956666D01*
X183039653Y-110912319D01*
X183136812Y-110815159D01*
X183136813Y-110815158D01*
X183136816Y-110815155D01*
X183225827Y-110667913D01*
X183277013Y-110503649D01*
X183283500Y-110432265D01*
X183283499Y-109917736D01*
X183283499Y-109917735D01*
X183283499Y-109917727D01*
X183277014Y-109846358D01*
X183277013Y-109846354D01*
X183277013Y-109846351D01*
X183269019Y-109820700D01*
X183267870Y-109750843D01*
X183299723Y-109696134D01*
X183667484Y-109328373D01*
X183728805Y-109294890D01*
X183798497Y-109299874D01*
X183824054Y-109312954D01*
X183944130Y-109393186D01*
X183944136Y-109393189D01*
X183944137Y-109393190D01*
X184088545Y-109453006D01*
X184088549Y-109453006D01*
X184088550Y-109453007D01*
X184241844Y-109483500D01*
X184241847Y-109483500D01*
X184398155Y-109483500D01*
X184501288Y-109462984D01*
X184551455Y-109453006D01*
X184695863Y-109393190D01*
X184825827Y-109306351D01*
X184867318Y-109264860D01*
X184928641Y-109231374D01*
X184998332Y-109236358D01*
X185042682Y-109264860D01*
X185084169Y-109306348D01*
X185084173Y-109306351D01*
X185214130Y-109393186D01*
X185214136Y-109393189D01*
X185214137Y-109393190D01*
X185358545Y-109453006D01*
X185444684Y-109470140D01*
X185506591Y-109502523D01*
X185508171Y-109504075D01*
X188007929Y-112003833D01*
X189246163Y-113242069D01*
X189246167Y-113242072D01*
X189349921Y-113311399D01*
X189349923Y-113311399D01*
X189349925Y-113311401D01*
X189431447Y-113345168D01*
X189465215Y-113359155D01*
X189465217Y-113359155D01*
X189465222Y-113359157D01*
X189587601Y-113383499D01*
X189587605Y-113383500D01*
X189587606Y-113383500D01*
X200212395Y-113383500D01*
X200212396Y-113383499D01*
X200334785Y-113359155D01*
X200450075Y-113311400D01*
X200553833Y-113242071D01*
X203626085Y-110169819D01*
X203687408Y-110136334D01*
X203713766Y-110133500D01*
X210086234Y-110133500D01*
X210153273Y-110153185D01*
X210173915Y-110169819D01*
X211630181Y-111626085D01*
X211663666Y-111687408D01*
X211666500Y-111713766D01*
X211666500Y-116812398D01*
X211690843Y-116934777D01*
X211690845Y-116934785D01*
X211738598Y-117050072D01*
X211738603Y-117050081D01*
X211807928Y-117153832D01*
X211807931Y-117153836D01*
X212546163Y-117892068D01*
X212546167Y-117892071D01*
X212649918Y-117961396D01*
X212649924Y-117961399D01*
X212649925Y-117961400D01*
X212765215Y-118009155D01*
X212887601Y-118033499D01*
X212887605Y-118033500D01*
X212887606Y-118033500D01*
X213012394Y-118033500D01*
X213713212Y-118033500D01*
X213780251Y-118053185D01*
X213787523Y-118058233D01*
X213794238Y-118063259D01*
X213794239Y-118063261D01*
X213911296Y-118150889D01*
X214048299Y-118201989D01*
X214075550Y-118204918D01*
X214108845Y-118208499D01*
X214108862Y-118208500D01*
X215756138Y-118208500D01*
X215756154Y-118208499D01*
X215783192Y-118205591D01*
X215816701Y-118201989D01*
X215953704Y-118150889D01*
X216070761Y-118063261D01*
X216158389Y-117946204D01*
X216209489Y-117809201D01*
X216213537Y-117771549D01*
X216215999Y-117748654D01*
X216216000Y-117748637D01*
X216216000Y-117051362D01*
X216215999Y-117051345D01*
X216212242Y-117016410D01*
X216209489Y-116990799D01*
X216207157Y-116984547D01*
X216181514Y-116915795D01*
X216158389Y-116853796D01*
X216070761Y-116736739D01*
X215953704Y-116649111D01*
X215816703Y-116598011D01*
X215756154Y-116591500D01*
X215756138Y-116591500D01*
X214108862Y-116591500D01*
X214108845Y-116591500D01*
X214048297Y-116598011D01*
X214048295Y-116598011D01*
X213911295Y-116649111D01*
X213859873Y-116687606D01*
X213794239Y-116736739D01*
X213794238Y-116736739D01*
X213787523Y-116741767D01*
X213722058Y-116766184D01*
X213713212Y-116766500D01*
X213263766Y-116766500D01*
X213196727Y-116746815D01*
X213176085Y-116730181D01*
X212969819Y-116523915D01*
X212936334Y-116462592D01*
X212933500Y-116436234D01*
X212933500Y-116332500D01*
X212953185Y-116265461D01*
X213005989Y-116219706D01*
X213057500Y-116208500D01*
X213548638Y-116208500D01*
X213548654Y-116208499D01*
X213575692Y-116205591D01*
X213609201Y-116201989D01*
X213609205Y-116201987D01*
X213609207Y-116201987D01*
X213746199Y-116150891D01*
X213746200Y-116150890D01*
X213746204Y-116150889D01*
X213754438Y-116144724D01*
X213819902Y-116120307D01*
X213888175Y-116135158D01*
X213903062Y-116144725D01*
X213911294Y-116150888D01*
X213911300Y-116150891D01*
X214048292Y-116201987D01*
X214048295Y-116201987D01*
X214048299Y-116201989D01*
X214077770Y-116205157D01*
X214108845Y-116208499D01*
X214108862Y-116208500D01*
X215756138Y-116208500D01*
X215756154Y-116208499D01*
X215783192Y-116205591D01*
X215816701Y-116201989D01*
X215816707Y-116201987D01*
X215849037Y-116189928D01*
X215953704Y-116150889D01*
X216070761Y-116063261D01*
X216158389Y-115946204D01*
X216209489Y-115809201D01*
X216213255Y-115774173D01*
X216215999Y-115748654D01*
X216216000Y-115748637D01*
X216216000Y-115051362D01*
X216215999Y-115051345D01*
X216211832Y-115012596D01*
X216209489Y-114990799D01*
X216203094Y-114973654D01*
X216175114Y-114898638D01*
X216158389Y-114853796D01*
X216070761Y-114736739D01*
X215953704Y-114649111D01*
X215947548Y-114646815D01*
X215816703Y-114598011D01*
X215756154Y-114591500D01*
X215756138Y-114591500D01*
X214108862Y-114591500D01*
X214108845Y-114591500D01*
X214048297Y-114598011D01*
X214048295Y-114598011D01*
X213911294Y-114649111D01*
X213903058Y-114655277D01*
X213837593Y-114679692D01*
X213769320Y-114664839D01*
X213754442Y-114655277D01*
X213746205Y-114649111D01*
X213746206Y-114649111D01*
X213609203Y-114598011D01*
X213548654Y-114591500D01*
X213548638Y-114591500D01*
X213057500Y-114591500D01*
X212990461Y-114571815D01*
X212944706Y-114519011D01*
X212933500Y-114467500D01*
X212933500Y-111657500D01*
X212953185Y-111590461D01*
X213005989Y-111544706D01*
X213057500Y-111533500D01*
X213060106Y-111533500D01*
X213713212Y-111533500D01*
X213780251Y-111553185D01*
X213787523Y-111558233D01*
X213794238Y-111563259D01*
X213794239Y-111563261D01*
X213911296Y-111650889D01*
X214048299Y-111701989D01*
X214075550Y-111704918D01*
X214108845Y-111708499D01*
X214108862Y-111708500D01*
X215756138Y-111708500D01*
X215756154Y-111708499D01*
X215783192Y-111705591D01*
X215816701Y-111701989D01*
X215953704Y-111650889D01*
X216070761Y-111563261D01*
X216158389Y-111446204D01*
X216209489Y-111309201D01*
X216214340Y-111264078D01*
X216215999Y-111248654D01*
X216216000Y-111248637D01*
X216216000Y-110551362D01*
X216215999Y-110551345D01*
X216212657Y-110520270D01*
X216209489Y-110490799D01*
X216203094Y-110473654D01*
X216161954Y-110363355D01*
X216158389Y-110353796D01*
X216070761Y-110236739D01*
X215953704Y-110149111D01*
X215911850Y-110133500D01*
X215816703Y-110098011D01*
X215756154Y-110091500D01*
X215756138Y-110091500D01*
X214108862Y-110091500D01*
X214108845Y-110091500D01*
X214048297Y-110098011D01*
X214048295Y-110098011D01*
X213911295Y-110149111D01*
X213883633Y-110169819D01*
X213794239Y-110236739D01*
X213794238Y-110236739D01*
X213787523Y-110241767D01*
X213722058Y-110266184D01*
X213713212Y-110266500D01*
X213436266Y-110266500D01*
X213369227Y-110246815D01*
X213348585Y-110230181D01*
X213038585Y-109920181D01*
X213005100Y-109858858D01*
X213010084Y-109789166D01*
X213051956Y-109733233D01*
X213117420Y-109708816D01*
X213126266Y-109708500D01*
X213721138Y-109708500D01*
X213721154Y-109708499D01*
X213767777Y-109703485D01*
X213781701Y-109701989D01*
X213871666Y-109668432D01*
X213941357Y-109663448D01*
X213958329Y-109668431D01*
X214048299Y-109701989D01*
X214055260Y-109702737D01*
X214108845Y-109708499D01*
X214108862Y-109708500D01*
X215756138Y-109708500D01*
X215756154Y-109708499D01*
X215783192Y-109705591D01*
X215816701Y-109701989D01*
X215953704Y-109650889D01*
X216070761Y-109563261D01*
X216158389Y-109446204D01*
X216209489Y-109309201D01*
X216213531Y-109271604D01*
X216215999Y-109248654D01*
X216216000Y-109248637D01*
X216216000Y-108551362D01*
X216215999Y-108551345D01*
X216211732Y-108511666D01*
X216209489Y-108490799D01*
X216205038Y-108478866D01*
X216161047Y-108360923D01*
X216158389Y-108353796D01*
X216070761Y-108236739D01*
X215953704Y-108149111D01*
X215906665Y-108131566D01*
X215816703Y-108098011D01*
X215756154Y-108091500D01*
X215756138Y-108091500D01*
X214108862Y-108091500D01*
X214108845Y-108091500D01*
X214048298Y-108098010D01*
X213958334Y-108131566D01*
X213888642Y-108136550D01*
X213871666Y-108131566D01*
X213781701Y-108098010D01*
X213721154Y-108091500D01*
X213721138Y-108091500D01*
X213023862Y-108091500D01*
X213023845Y-108091500D01*
X212963297Y-108098011D01*
X212963295Y-108098011D01*
X212826295Y-108149111D01*
X212709239Y-108236739D01*
X212621611Y-108353795D01*
X212570511Y-108490795D01*
X212570511Y-108490797D01*
X212564000Y-108551345D01*
X212564000Y-109146234D01*
X212544315Y-109213273D01*
X212491511Y-109259028D01*
X212422353Y-109268972D01*
X212358797Y-109239947D01*
X212352319Y-109233915D01*
X211761085Y-108642681D01*
X211727600Y-108581358D01*
X211732584Y-108511666D01*
X211761085Y-108467319D01*
X213360403Y-106868002D01*
X214983586Y-105244819D01*
X215044909Y-105211334D01*
X215071267Y-105208500D01*
X215756138Y-105208500D01*
X215756154Y-105208499D01*
X215783192Y-105205591D01*
X215816701Y-105201989D01*
X215953704Y-105150889D01*
X216070761Y-105063261D01*
X216158389Y-104946204D01*
X216209489Y-104809201D01*
X216214293Y-104764516D01*
X216215999Y-104748654D01*
X216216000Y-104748637D01*
X216216000Y-104051362D01*
X216215999Y-104051345D01*
X216212657Y-104020270D01*
X216209489Y-103990799D01*
X216158389Y-103853796D01*
X216070761Y-103736739D01*
X215953704Y-103649111D01*
X215936194Y-103642580D01*
X215816703Y-103598011D01*
X215756154Y-103591500D01*
X215756138Y-103591500D01*
X214108862Y-103591500D01*
X214108845Y-103591500D01*
X214048297Y-103598011D01*
X214048295Y-103598011D01*
X213911295Y-103649111D01*
X213794239Y-103736739D01*
X213706611Y-103853795D01*
X213655511Y-103990795D01*
X213655511Y-103990797D01*
X213649000Y-104051345D01*
X213649000Y-104736232D01*
X213629315Y-104803271D01*
X213612681Y-104823913D01*
X210606415Y-107830181D01*
X210545092Y-107863666D01*
X210518734Y-107866500D01*
X203752640Y-107866500D01*
X203685601Y-107846815D01*
X203639846Y-107794011D01*
X203628640Y-107742500D01*
X203628640Y-102051345D01*
X212564000Y-102051345D01*
X212564000Y-102748654D01*
X212570511Y-102809202D01*
X212570511Y-102809204D01*
X212607548Y-102908500D01*
X212621611Y-102946204D01*
X212709239Y-103063261D01*
X212826296Y-103150889D01*
X212963299Y-103201989D01*
X212990550Y-103204918D01*
X213023845Y-103208499D01*
X213023862Y-103208500D01*
X213721138Y-103208500D01*
X213721154Y-103208499D01*
X213767777Y-103203485D01*
X213781701Y-103201989D01*
X213871666Y-103168432D01*
X213941357Y-103163448D01*
X213958329Y-103168431D01*
X214048299Y-103201989D01*
X214055260Y-103202737D01*
X214108845Y-103208499D01*
X214108862Y-103208500D01*
X215756138Y-103208500D01*
X215756154Y-103208499D01*
X215783192Y-103205591D01*
X215816701Y-103201989D01*
X215953704Y-103150889D01*
X216070761Y-103063261D01*
X216158389Y-102946204D01*
X216209489Y-102809201D01*
X216213470Y-102772174D01*
X216215999Y-102748654D01*
X216216000Y-102748637D01*
X216216000Y-102051362D01*
X216215999Y-102051345D01*
X216211151Y-102006261D01*
X216209489Y-101990799D01*
X216197703Y-101959201D01*
X216162613Y-101865121D01*
X216158389Y-101853796D01*
X216070761Y-101736739D01*
X215953704Y-101649111D01*
X215906665Y-101631566D01*
X215816703Y-101598011D01*
X215756154Y-101591500D01*
X215756138Y-101591500D01*
X214108862Y-101591500D01*
X214108845Y-101591500D01*
X214048298Y-101598010D01*
X213958334Y-101631566D01*
X213888642Y-101636550D01*
X213871666Y-101631566D01*
X213781701Y-101598010D01*
X213721154Y-101591500D01*
X213721138Y-101591500D01*
X213023862Y-101591500D01*
X213023845Y-101591500D01*
X212963297Y-101598011D01*
X212963295Y-101598011D01*
X212826295Y-101649111D01*
X212709239Y-101736739D01*
X212621611Y-101853795D01*
X212570511Y-101990795D01*
X212570511Y-101990797D01*
X212564000Y-102051345D01*
X203628640Y-102051345D01*
X203628640Y-99217863D01*
X203648325Y-99150824D01*
X203664959Y-99130182D01*
X204225322Y-98569819D01*
X204286645Y-98536334D01*
X204313003Y-98533500D01*
X213700712Y-98533500D01*
X213767751Y-98553185D01*
X213775023Y-98558233D01*
X213781738Y-98563259D01*
X213781739Y-98563261D01*
X213898796Y-98650889D01*
X214035799Y-98701989D01*
X214063050Y-98704918D01*
X214096345Y-98708499D01*
X214096362Y-98708500D01*
X215743638Y-98708500D01*
X215743654Y-98708499D01*
X215770692Y-98705591D01*
X215804201Y-98701989D01*
X215941204Y-98650889D01*
X216058261Y-98563261D01*
X216145889Y-98446204D01*
X216194267Y-98316500D01*
X216196988Y-98309204D01*
X216196988Y-98309203D01*
X216196989Y-98309201D01*
X216201306Y-98269046D01*
X216203499Y-98248654D01*
X216203500Y-98248637D01*
X216203500Y-97551362D01*
X216203499Y-97551345D01*
X216200157Y-97520270D01*
X216196989Y-97490799D01*
X216194409Y-97483883D01*
X216149343Y-97363057D01*
X216145889Y-97353796D01*
X216058261Y-97236739D01*
X215941204Y-97149111D01*
X215929598Y-97144782D01*
X215804203Y-97098011D01*
X215743654Y-97091500D01*
X215743638Y-97091500D01*
X214096362Y-97091500D01*
X214096345Y-97091500D01*
X214035797Y-97098011D01*
X214035795Y-97098011D01*
X213898795Y-97149111D01*
X213849740Y-97185834D01*
X213781739Y-97236739D01*
X213781738Y-97236739D01*
X213775023Y-97241767D01*
X213709558Y-97266184D01*
X213700712Y-97266500D01*
X210265162Y-97266500D01*
X210198123Y-97246815D01*
X210152368Y-97194011D01*
X210142424Y-97124853D01*
X210171449Y-97061297D01*
X210177481Y-97054819D01*
X211588554Y-95643747D01*
X211680956Y-95551345D01*
X212564000Y-95551345D01*
X212564000Y-96248654D01*
X212570511Y-96309202D01*
X212570511Y-96309204D01*
X212611468Y-96419011D01*
X212621611Y-96446204D01*
X212709239Y-96563261D01*
X212826296Y-96650889D01*
X212963299Y-96701989D01*
X212990550Y-96704918D01*
X213023845Y-96708499D01*
X213023862Y-96708500D01*
X213721138Y-96708500D01*
X213721154Y-96708499D01*
X213767777Y-96703485D01*
X213781701Y-96701989D01*
X213865416Y-96670763D01*
X213935107Y-96665779D01*
X213952078Y-96670762D01*
X214035799Y-96701989D01*
X214042760Y-96702737D01*
X214096345Y-96708499D01*
X214096362Y-96708500D01*
X215743638Y-96708500D01*
X215743654Y-96708499D01*
X215770692Y-96705591D01*
X215804201Y-96701989D01*
X215941204Y-96650889D01*
X216058261Y-96563261D01*
X216145889Y-96446204D01*
X216196989Y-96309201D01*
X216203038Y-96252939D01*
X216203499Y-96248654D01*
X216203500Y-96248637D01*
X216203500Y-95551362D01*
X216203499Y-95551345D01*
X216200135Y-95520063D01*
X216196989Y-95490799D01*
X216194409Y-95483883D01*
X216149584Y-95363703D01*
X216145889Y-95353796D01*
X216058261Y-95236739D01*
X215941204Y-95149111D01*
X215931249Y-95145398D01*
X215804203Y-95098011D01*
X215743654Y-95091500D01*
X215743638Y-95091500D01*
X214096362Y-95091500D01*
X214096345Y-95091500D01*
X214035798Y-95098010D01*
X213952084Y-95129235D01*
X213882392Y-95134219D01*
X213865416Y-95129235D01*
X213781701Y-95098010D01*
X213721154Y-95091500D01*
X213721138Y-95091500D01*
X213023862Y-95091500D01*
X213023845Y-95091500D01*
X212963297Y-95098011D01*
X212963295Y-95098011D01*
X212826295Y-95149111D01*
X212709239Y-95236739D01*
X212621611Y-95353795D01*
X212570511Y-95490795D01*
X212570511Y-95490797D01*
X212564000Y-95551345D01*
X211680956Y-95551345D01*
X213162482Y-94069819D01*
X213223805Y-94036334D01*
X213250163Y-94033500D01*
X217167500Y-94033500D01*
X217234539Y-94053185D01*
X217280294Y-94105989D01*
X217291500Y-94157500D01*
X217291500Y-95398654D01*
X217298011Y-95459202D01*
X217298011Y-95459204D01*
X217344849Y-95584777D01*
X217349111Y-95596204D01*
X217436739Y-95713261D01*
X217553796Y-95800889D01*
X217690799Y-95851989D01*
X217718050Y-95854918D01*
X217751345Y-95858499D01*
X217751362Y-95858500D01*
X219848638Y-95858500D01*
X219848654Y-95858499D01*
X219875692Y-95855591D01*
X219909201Y-95851989D01*
X220046204Y-95800889D01*
X220163261Y-95713261D01*
X220250889Y-95596204D01*
X220250891Y-95596197D01*
X220255137Y-95588424D01*
X220257378Y-95589647D01*
X220291185Y-95544483D01*
X220356648Y-95520063D01*
X220424922Y-95534912D01*
X220474329Y-95584315D01*
X220489500Y-95643747D01*
X220489500Y-98156252D01*
X220469815Y-98223291D01*
X220417011Y-98269046D01*
X220347853Y-98278990D01*
X220284297Y-98249965D01*
X220256953Y-98210583D01*
X220255137Y-98211576D01*
X220250889Y-98203797D01*
X220250889Y-98203796D01*
X220163261Y-98086739D01*
X220046204Y-97999111D01*
X219909203Y-97948011D01*
X219848654Y-97941500D01*
X219848638Y-97941500D01*
X217751362Y-97941500D01*
X217751345Y-97941500D01*
X217690797Y-97948011D01*
X217690795Y-97948011D01*
X217553795Y-97999111D01*
X217436739Y-98086739D01*
X217349111Y-98203795D01*
X217298011Y-98340795D01*
X217298011Y-98340797D01*
X217291500Y-98401345D01*
X217291500Y-99998654D01*
X217298010Y-100059201D01*
X217321964Y-100123422D01*
X217326948Y-100193114D01*
X217321965Y-100210087D01*
X217310512Y-100240795D01*
X217310510Y-100240802D01*
X217304000Y-100301345D01*
X217304000Y-101898654D01*
X217310511Y-101959202D01*
X217310511Y-101959204D01*
X217352467Y-102071688D01*
X217361611Y-102096204D01*
X217449239Y-102213261D01*
X217566296Y-102300889D01*
X217703299Y-102351989D01*
X217730550Y-102354918D01*
X217763845Y-102358499D01*
X217763862Y-102358500D01*
X219861138Y-102358500D01*
X219861154Y-102358499D01*
X219888192Y-102355591D01*
X219921701Y-102351989D01*
X220058704Y-102300889D01*
X220175761Y-102213261D01*
X220263389Y-102096204D01*
X220263389Y-102096202D01*
X220266233Y-102092404D01*
X220322167Y-102050533D01*
X220391858Y-102045549D01*
X220453181Y-102079034D01*
X220486666Y-102140357D01*
X220489500Y-102166715D01*
X220489500Y-104633284D01*
X220469815Y-104700323D01*
X220417011Y-104746078D01*
X220347853Y-104756022D01*
X220284297Y-104726997D01*
X220266233Y-104707595D01*
X220210604Y-104633284D01*
X220175761Y-104586739D01*
X220058704Y-104499111D01*
X220043929Y-104493600D01*
X219921703Y-104448011D01*
X219861154Y-104441500D01*
X219861138Y-104441500D01*
X217763862Y-104441500D01*
X217763845Y-104441500D01*
X217703297Y-104448011D01*
X217703295Y-104448011D01*
X217566295Y-104499111D01*
X217449239Y-104586739D01*
X217361611Y-104703795D01*
X217310511Y-104840795D01*
X217310511Y-104840797D01*
X217304000Y-104901345D01*
X217304000Y-106498654D01*
X217310510Y-106559197D01*
X217310512Y-106559208D01*
X217328214Y-106606668D01*
X217333198Y-106676360D01*
X217328214Y-106693332D01*
X217310512Y-106740791D01*
X217310510Y-106740802D01*
X217304000Y-106801345D01*
X217304000Y-108398654D01*
X217310511Y-108459202D01*
X217310511Y-108459204D01*
X217355207Y-108579034D01*
X217361611Y-108596204D01*
X217449239Y-108713261D01*
X217566296Y-108800889D01*
X217703299Y-108851989D01*
X217730550Y-108854918D01*
X217763845Y-108858499D01*
X217763862Y-108858500D01*
X219861138Y-108858500D01*
X219861154Y-108858499D01*
X219888192Y-108855591D01*
X219921701Y-108851989D01*
X220058704Y-108800889D01*
X220175761Y-108713261D01*
X220263389Y-108596204D01*
X220263389Y-108596202D01*
X220266233Y-108592404D01*
X220322167Y-108550533D01*
X220391858Y-108545549D01*
X220453181Y-108579034D01*
X220486666Y-108640357D01*
X220489500Y-108666715D01*
X220489500Y-111133284D01*
X220469815Y-111200323D01*
X220417011Y-111246078D01*
X220347853Y-111256022D01*
X220284297Y-111226997D01*
X220266233Y-111207595D01*
X220210604Y-111133284D01*
X220175761Y-111086739D01*
X220058704Y-110999111D01*
X219921703Y-110948011D01*
X219861154Y-110941500D01*
X219861138Y-110941500D01*
X217763862Y-110941500D01*
X217763845Y-110941500D01*
X217703297Y-110948011D01*
X217703295Y-110948011D01*
X217566295Y-110999111D01*
X217449239Y-111086739D01*
X217361611Y-111203795D01*
X217310511Y-111340795D01*
X217310511Y-111340797D01*
X217304000Y-111401345D01*
X217304000Y-112998654D01*
X217310510Y-113059197D01*
X217310512Y-113059208D01*
X217328214Y-113106668D01*
X217333198Y-113176360D01*
X217328214Y-113193332D01*
X217310512Y-113240791D01*
X217310510Y-113240802D01*
X217304000Y-113301345D01*
X217304000Y-114898654D01*
X217310511Y-114959202D01*
X217310511Y-114959204D01*
X217355143Y-115078864D01*
X217361611Y-115096204D01*
X217449239Y-115213261D01*
X217566296Y-115300889D01*
X217703299Y-115351989D01*
X217730550Y-115354918D01*
X217763845Y-115358499D01*
X217763862Y-115358500D01*
X219861138Y-115358500D01*
X219861154Y-115358499D01*
X219888192Y-115355591D01*
X219921701Y-115351989D01*
X220058704Y-115300889D01*
X220175761Y-115213261D01*
X220263389Y-115096204D01*
X220263389Y-115096202D01*
X220266233Y-115092404D01*
X220322167Y-115050533D01*
X220391858Y-115045549D01*
X220453181Y-115079034D01*
X220486666Y-115140357D01*
X220489500Y-115166715D01*
X220489500Y-117633284D01*
X220469815Y-117700323D01*
X220417011Y-117746078D01*
X220347853Y-117756022D01*
X220284297Y-117726997D01*
X220266233Y-117707595D01*
X220256364Y-117694412D01*
X220175761Y-117586739D01*
X220058704Y-117499111D01*
X219921703Y-117448011D01*
X219861154Y-117441500D01*
X219861138Y-117441500D01*
X217763862Y-117441500D01*
X217763845Y-117441500D01*
X217703297Y-117448011D01*
X217703295Y-117448011D01*
X217566295Y-117499111D01*
X217449239Y-117586739D01*
X217361611Y-117703795D01*
X217310511Y-117840795D01*
X217310511Y-117840797D01*
X217304000Y-117901345D01*
X217304000Y-119498654D01*
X217310511Y-119559202D01*
X217310511Y-119559204D01*
X217342717Y-119645549D01*
X217361611Y-119696204D01*
X217449239Y-119813261D01*
X217566296Y-119900889D01*
X217703299Y-119951989D01*
X217730550Y-119954918D01*
X217763845Y-119958499D01*
X217763862Y-119958500D01*
X219861138Y-119958500D01*
X219861154Y-119958499D01*
X219888192Y-119955591D01*
X219921701Y-119951989D01*
X220058704Y-119900889D01*
X220175761Y-119813261D01*
X220263389Y-119696204D01*
X220263389Y-119696202D01*
X220266233Y-119692404D01*
X220322167Y-119650533D01*
X220391858Y-119645549D01*
X220453181Y-119679034D01*
X220486666Y-119740357D01*
X220489500Y-119766715D01*
X220489500Y-121776292D01*
X220469815Y-121843331D01*
X220417011Y-121889086D01*
X220365655Y-121900292D01*
X149000000Y-121989500D01*
X140734500Y-121989500D01*
X140667461Y-121969815D01*
X140621706Y-121917011D01*
X140610500Y-121865500D01*
X140610500Y-107976345D01*
X141091500Y-107976345D01*
X141091500Y-108973654D01*
X141098011Y-109034202D01*
X141098011Y-109034204D01*
X141152210Y-109179512D01*
X141149308Y-109180594D01*
X141160886Y-109233874D01*
X141150340Y-109269790D01*
X141152210Y-109270488D01*
X141098011Y-109415795D01*
X141098011Y-109415797D01*
X141091500Y-109476345D01*
X141091500Y-110473654D01*
X141098011Y-110534202D01*
X141098011Y-110534204D01*
X141152210Y-110679512D01*
X141149308Y-110680594D01*
X141160886Y-110733874D01*
X141150340Y-110769790D01*
X141152210Y-110770488D01*
X141098011Y-110915795D01*
X141098011Y-110915797D01*
X141091500Y-110976345D01*
X141091500Y-111973654D01*
X141098011Y-112034202D01*
X141098011Y-112034204D01*
X141152210Y-112179512D01*
X141149308Y-112180594D01*
X141160886Y-112233874D01*
X141150340Y-112269790D01*
X141152210Y-112270488D01*
X141098011Y-112415795D01*
X141098011Y-112415797D01*
X141091500Y-112476345D01*
X141091500Y-113473654D01*
X141098011Y-113534202D01*
X141098011Y-113534204D01*
X141152210Y-113679512D01*
X141149308Y-113680594D01*
X141160886Y-113733874D01*
X141150340Y-113769790D01*
X141152210Y-113770488D01*
X141149111Y-113778795D01*
X141149111Y-113778796D01*
X141144578Y-113790947D01*
X141098011Y-113915795D01*
X141098011Y-113915797D01*
X141091500Y-113976345D01*
X141091500Y-114973654D01*
X141098011Y-115034202D01*
X141098011Y-115034204D01*
X141152210Y-115179512D01*
X141149308Y-115180594D01*
X141160886Y-115233874D01*
X141150340Y-115269790D01*
X141152210Y-115270488D01*
X141098011Y-115415795D01*
X141098011Y-115415797D01*
X141091500Y-115476345D01*
X141091500Y-116473654D01*
X141098011Y-116534202D01*
X141098011Y-116534204D01*
X141152210Y-116679512D01*
X141149308Y-116680594D01*
X141160886Y-116733874D01*
X141150340Y-116769790D01*
X141152210Y-116770488D01*
X141149111Y-116778795D01*
X141149111Y-116778796D01*
X141144578Y-116790947D01*
X141098011Y-116915795D01*
X141098011Y-116915797D01*
X141091500Y-116976345D01*
X141091500Y-117973654D01*
X141098011Y-118034202D01*
X141098011Y-118034204D01*
X141152210Y-118179512D01*
X141149308Y-118180594D01*
X141160886Y-118233874D01*
X141150340Y-118269790D01*
X141152210Y-118270488D01*
X141098011Y-118415795D01*
X141098011Y-118415797D01*
X141091500Y-118476345D01*
X141091500Y-119473654D01*
X141098011Y-119534202D01*
X141098011Y-119534204D01*
X141152210Y-119679512D01*
X141149308Y-119680594D01*
X141160886Y-119733874D01*
X141150340Y-119769790D01*
X141152210Y-119770488D01*
X141098011Y-119915795D01*
X141098011Y-119915797D01*
X141091500Y-119976345D01*
X141091500Y-120973654D01*
X141098011Y-121034202D01*
X141098011Y-121034204D01*
X141149111Y-121171204D01*
X141236739Y-121288261D01*
X141353796Y-121375889D01*
X141490799Y-121426989D01*
X141518050Y-121429918D01*
X141551345Y-121433499D01*
X141551362Y-121433500D01*
X143148638Y-121433500D01*
X143148654Y-121433499D01*
X143175692Y-121430591D01*
X143209201Y-121426989D01*
X143346204Y-121375889D01*
X143463261Y-121288261D01*
X143550889Y-121171204D01*
X143601989Y-121034201D01*
X143605591Y-121000692D01*
X143608499Y-120973654D01*
X143608500Y-120973637D01*
X143608500Y-119976362D01*
X143608499Y-119976345D01*
X143604364Y-119937890D01*
X143601989Y-119915799D01*
X143601987Y-119915795D01*
X143601987Y-119915792D01*
X143547790Y-119770486D01*
X143550700Y-119769400D01*
X143539108Y-119716195D01*
X143549672Y-119680215D01*
X143547790Y-119679514D01*
X143601987Y-119534207D01*
X143601988Y-119534204D01*
X143601989Y-119534201D01*
X143605812Y-119498638D01*
X143608499Y-119473654D01*
X143608500Y-119473637D01*
X143608500Y-118476362D01*
X143608499Y-118476345D01*
X143605157Y-118445270D01*
X143601989Y-118415799D01*
X143601987Y-118415795D01*
X143601987Y-118415792D01*
X143547790Y-118270486D01*
X143550700Y-118269400D01*
X143539108Y-118216195D01*
X143549672Y-118180215D01*
X143547790Y-118179514D01*
X143601987Y-118034207D01*
X143601988Y-118034204D01*
X143601989Y-118034201D01*
X143606530Y-117991960D01*
X143608499Y-117973654D01*
X143608500Y-117973637D01*
X143608500Y-116976362D01*
X143608499Y-116976345D01*
X143604029Y-116934777D01*
X143601989Y-116915799D01*
X143601987Y-116915795D01*
X143601987Y-116915792D01*
X143547790Y-116770486D01*
X143550700Y-116769400D01*
X143539108Y-116716195D01*
X143549672Y-116680215D01*
X143547790Y-116679514D01*
X143601987Y-116534207D01*
X143601988Y-116534204D01*
X143601989Y-116534201D01*
X143606580Y-116491500D01*
X143608499Y-116473654D01*
X143608500Y-116473637D01*
X143608500Y-115476362D01*
X143608499Y-115476345D01*
X143605157Y-115445270D01*
X143601989Y-115415799D01*
X143601987Y-115415795D01*
X143601987Y-115415792D01*
X143547790Y-115270486D01*
X143550697Y-115269401D01*
X143539110Y-115216169D01*
X143549670Y-115180215D01*
X143547789Y-115179514D01*
X143550887Y-115171205D01*
X143550889Y-115171204D01*
X143553514Y-115164165D01*
X143595384Y-115108233D01*
X143660848Y-115083816D01*
X143669695Y-115083500D01*
X145558949Y-115083500D01*
X145625988Y-115103185D01*
X145659263Y-115134608D01*
X145660957Y-115136940D01*
X145660960Y-115136944D01*
X145685472Y-115164167D01*
X145781201Y-115270486D01*
X145788747Y-115278866D01*
X145943248Y-115391118D01*
X146117712Y-115468794D01*
X146304513Y-115508500D01*
X146495487Y-115508500D01*
X146682288Y-115468794D01*
X146856752Y-115391118D01*
X147011253Y-115278866D01*
X147139040Y-115136944D01*
X147234527Y-114971556D01*
X147293542Y-114789928D01*
X147313504Y-114600000D01*
X147293542Y-114410072D01*
X147234527Y-114228444D01*
X147139040Y-114063056D01*
X147011253Y-113921134D01*
X146856752Y-113808882D01*
X146682288Y-113731206D01*
X146682286Y-113731205D01*
X146495487Y-113691500D01*
X146304513Y-113691500D01*
X146117714Y-113731205D01*
X145943243Y-113808884D01*
X145896538Y-113842818D01*
X145830732Y-113866298D01*
X145823653Y-113866500D01*
X144920815Y-113866500D01*
X144853776Y-113846815D01*
X144808021Y-113794011D01*
X144798077Y-113724853D01*
X144827102Y-113661297D01*
X144828665Y-113659528D01*
X144853206Y-113632272D01*
X144939040Y-113536944D01*
X145034527Y-113371556D01*
X145093542Y-113189928D01*
X145113504Y-113000000D01*
X145093542Y-112810072D01*
X145034527Y-112628444D01*
X144939040Y-112463056D01*
X144812922Y-112322988D01*
X144811254Y-112321135D01*
X144806820Y-112317913D01*
X144656752Y-112208882D01*
X144482288Y-112131206D01*
X144482286Y-112131205D01*
X144295487Y-112091500D01*
X144104513Y-112091500D01*
X143917714Y-112131205D01*
X143917712Y-112131206D01*
X143767717Y-112197988D01*
X143765574Y-112198942D01*
X143696324Y-112208226D01*
X143633048Y-112178597D01*
X143595835Y-112119462D01*
X143596500Y-112049596D01*
X143598960Y-112042322D01*
X143598995Y-112042227D01*
X143601989Y-112034201D01*
X143606310Y-111994011D01*
X143608499Y-111973654D01*
X143608500Y-111973637D01*
X143608500Y-110976362D01*
X143608499Y-110976345D01*
X143604248Y-110936816D01*
X143601989Y-110915799D01*
X143601987Y-110915795D01*
X143601987Y-110915792D01*
X143547790Y-110770486D01*
X143550700Y-110769400D01*
X143539108Y-110716195D01*
X143549672Y-110680215D01*
X143547790Y-110679514D01*
X143601987Y-110534207D01*
X143601988Y-110534204D01*
X143601989Y-110534201D01*
X143606655Y-110490799D01*
X143608499Y-110473654D01*
X143608500Y-110473637D01*
X143608500Y-109476362D01*
X143608499Y-109476345D01*
X143604949Y-109443334D01*
X143601989Y-109415799D01*
X143601987Y-109415795D01*
X143601987Y-109415792D01*
X143547790Y-109270486D01*
X143550700Y-109269400D01*
X143539108Y-109216195D01*
X143549672Y-109180215D01*
X143547790Y-109179514D01*
X143601987Y-109034207D01*
X143601988Y-109034204D01*
X143601989Y-109034201D01*
X143605591Y-109000692D01*
X143608499Y-108973654D01*
X143608500Y-108973637D01*
X143608500Y-107976362D01*
X143608499Y-107976345D01*
X143605157Y-107945270D01*
X143601989Y-107915799D01*
X143599266Y-107908499D01*
X143563715Y-107813184D01*
X143550889Y-107778796D01*
X143463261Y-107661739D01*
X143346204Y-107574111D01*
X143325029Y-107566213D01*
X143209203Y-107523011D01*
X143148654Y-107516500D01*
X143148638Y-107516500D01*
X141551362Y-107516500D01*
X141551345Y-107516500D01*
X141490797Y-107523011D01*
X141490795Y-107523011D01*
X141353795Y-107574111D01*
X141236739Y-107661739D01*
X141149111Y-107778795D01*
X141098011Y-107915795D01*
X141098011Y-107915797D01*
X141091500Y-107976345D01*
X140610500Y-107976345D01*
X140610500Y-95285591D01*
X142201500Y-95285591D01*
X142201500Y-95474408D01*
X142238332Y-95659576D01*
X142238334Y-95659584D01*
X142310586Y-95834017D01*
X142310591Y-95834026D01*
X142415483Y-95991007D01*
X142415486Y-95991011D01*
X142548988Y-96124513D01*
X142548992Y-96124516D01*
X142705973Y-96229408D01*
X142705979Y-96229411D01*
X142705980Y-96229412D01*
X142880416Y-96301666D01*
X143065591Y-96338499D01*
X143065595Y-96338500D01*
X143065596Y-96338500D01*
X144054405Y-96338500D01*
X144054406Y-96338499D01*
X144239584Y-96301666D01*
X144414020Y-96229412D01*
X144571008Y-96124516D01*
X144704516Y-95991008D01*
X144809412Y-95834020D01*
X144881666Y-95659584D01*
X144918500Y-95474404D01*
X144918500Y-95285596D01*
X144881666Y-95100416D01*
X144809412Y-94925980D01*
X144809411Y-94925979D01*
X144809408Y-94925973D01*
X144704516Y-94768992D01*
X144704513Y-94768988D01*
X144571011Y-94635486D01*
X144571007Y-94635483D01*
X144414026Y-94530591D01*
X144414017Y-94530586D01*
X144239584Y-94458334D01*
X144239576Y-94458332D01*
X144054408Y-94421500D01*
X144054404Y-94421500D01*
X143065596Y-94421500D01*
X143065591Y-94421500D01*
X142880423Y-94458332D01*
X142880415Y-94458334D01*
X142705982Y-94530586D01*
X142705973Y-94530591D01*
X142548992Y-94635483D01*
X142548988Y-94635486D01*
X142415486Y-94768988D01*
X142415483Y-94768992D01*
X142310591Y-94925973D01*
X142310586Y-94925982D01*
X142238334Y-95100415D01*
X142238332Y-95100423D01*
X142201500Y-95285591D01*
X140610500Y-95285591D01*
X140610500Y-92251345D01*
X143791500Y-92251345D01*
X143791500Y-92948654D01*
X143798011Y-93009202D01*
X143798011Y-93009204D01*
X143849111Y-93146204D01*
X143936739Y-93263261D01*
X144053796Y-93350889D01*
X144160197Y-93390575D01*
X144185683Y-93400081D01*
X144190799Y-93401989D01*
X144218050Y-93404918D01*
X144251345Y-93408499D01*
X144251362Y-93408500D01*
X144948638Y-93408500D01*
X144948654Y-93408499D01*
X144975692Y-93405591D01*
X145009201Y-93401989D01*
X145014317Y-93400081D01*
X145023768Y-93396555D01*
X145146204Y-93350889D01*
X145263261Y-93263261D01*
X145350889Y-93146204D01*
X145401989Y-93009201D01*
X145407308Y-92959728D01*
X145408499Y-92948654D01*
X145408500Y-92948637D01*
X145408500Y-92251362D01*
X145408499Y-92251350D01*
X145405943Y-92227576D01*
X145404922Y-92218083D01*
X145417326Y-92149326D01*
X145428944Y-92130518D01*
X145450889Y-92101204D01*
X145501989Y-91964201D01*
X145505591Y-91930692D01*
X145508499Y-91903654D01*
X145508500Y-91903637D01*
X145508500Y-90256362D01*
X145508499Y-90256345D01*
X145505157Y-90225270D01*
X145501989Y-90195799D01*
X145450889Y-90058796D01*
X145363261Y-89941739D01*
X145246204Y-89854111D01*
X145109203Y-89803011D01*
X145048654Y-89796500D01*
X145048638Y-89796500D01*
X144351362Y-89796500D01*
X144351345Y-89796500D01*
X144290797Y-89803011D01*
X144290795Y-89803011D01*
X144153795Y-89854111D01*
X144036739Y-89941739D01*
X143949111Y-90058795D01*
X143898011Y-90195795D01*
X143898011Y-90195797D01*
X143891500Y-90256345D01*
X143891500Y-91903654D01*
X143895077Y-91936915D01*
X143882672Y-92005675D01*
X143871056Y-92024480D01*
X143849113Y-92053792D01*
X143849110Y-92053799D01*
X143798011Y-92190795D01*
X143798011Y-92190797D01*
X143791500Y-92251345D01*
X140610500Y-92251345D01*
X140610500Y-85934500D01*
X140630185Y-85867461D01*
X140682989Y-85821706D01*
X140734500Y-85810500D01*
X142073964Y-85810500D01*
X142141003Y-85830185D01*
G37*
%TD.AperFunction*%
%TD*%
M02*
