M48
; DRILL file {KiCad 8.0.8-8.0.8-0~ubuntu22.04.1} date 2025-04-02T13:34:15+0200
; FORMAT={-:-/ absolute / inch / decimal}
; #@! TF.CreationDate,2025-04-02T13:34:15+02:00
; #@! TF.GenerationSoftware,Kicad,Pcbnew,8.0.8-8.0.8-0~ubuntu22.04.1
; #@! TF.FileFunction,Plated,1,2,PTH
FMAT,2
INCH
; #@! TA.AperFunction,Plated,PTH,ViaDrill
T1C0.0118
; #@! TA.AperFunction,Plated,PTH,ViaDrill
T2C0.0157
; #@! TA.AperFunction,Plated,PTH,ComponentDrill
T3C0.0236
; #@! TA.AperFunction,Plated,PTH,ComponentDrill
T4C0.0866
%
G90
G05
T1
X5.6969Y-3.5858
X5.9528Y-3.5858
X6.2087Y-3.5858
X6.4646Y-3.5858
X6.7205Y-3.5858
X6.9764Y-3.5858
X7.2323Y-3.5858
X7.4882Y-3.5858
X7.7441Y-3.5858
X8.0Y-3.5858
X8.2559Y-3.5858
X8.4614Y-3.7756
X8.4619Y-4.0315
X8.4619Y-4.2874
X8.4619Y-4.5433
X8.5118Y-3.5858
T2
X5.6772Y-4.1575
X5.6772Y-4.4488
X5.7638Y-4.1575
X5.7638Y-4.5118
X5.7795Y-3.8543
X5.7874Y-3.9961
X5.9707Y-3.8691
X5.9913Y-3.9478
X6.1596Y-3.8691
X6.1596Y-3.9951
X6.2283Y-4.3858
X6.2283Y-4.4488
X6.2283Y-4.5039
X6.2283Y-4.5669
X6.2283Y-4.622
X6.3785Y-3.7904
X6.6969Y-4.2082
X7.0118Y-4.003
X7.1077Y-4.2048
X7.1102Y-4.2441
X7.122Y-3.9744
T4
X6.878Y-3.7165
X6.878Y-4.6929
X8.1535Y-3.7165
X8.1575Y-4.6929
T3
G00X5.6362Y-3.7551
M15
G01X5.6677Y-3.7551
M16
G05
G00X5.6362Y-4.0953
M15
G01X5.6677Y-4.0953
M16
G05
G00X5.7945Y-3.7551
M15
G01X5.8378Y-3.7551
M16
G05
G00X5.7945Y-4.0953
M15
G01X5.8378Y-4.0953
M16
G05
M30
