%TF.GenerationSoftware,KiCad,Pcbnew,8.0.8-8.0.8-0~ubuntu22.04.1*%
%TF.CreationDate,2025-04-02T13:33:07+02:00*%
%TF.ProjectId,desk_display,6465736b-5f64-4697-9370-6c61792e6b69,rev?*%
%TF.SameCoordinates,Original*%
%TF.FileFunction,Copper,L2,Bot*%
%TF.FilePolarity,Positive*%
%FSLAX46Y46*%
G04 Gerber Fmt 4.6, Leading zero omitted, Abs format (unit mm)*
G04 Created by KiCad (PCBNEW 8.0.8-8.0.8-0~ubuntu22.04.1) date 2025-04-02 13:33:07*
%MOMM*%
%LPD*%
G01*
G04 APERTURE LIST*
%TA.AperFunction,ComponentPad*%
%ADD10C,3.800000*%
%TD*%
%TA.AperFunction,ComponentPad*%
%ADD11O,2.000000X0.900000*%
%TD*%
%TA.AperFunction,ComponentPad*%
%ADD12O,1.700000X0.900000*%
%TD*%
%TA.AperFunction,ViaPad*%
%ADD13C,0.450000*%
%TD*%
%TA.AperFunction,ViaPad*%
%ADD14C,0.800000*%
%TD*%
%TA.AperFunction,Conductor*%
%ADD15C,0.250000*%
%TD*%
%TA.AperFunction,Conductor*%
%ADD16C,0.500000*%
%TD*%
%TA.AperFunction,Conductor*%
%ADD17C,0.200000*%
%TD*%
G04 APERTURE END LIST*
D10*
%TO.P,REF\u002A\u002A,1*%
%TO.N,N/C*%
X207200000Y-119200000D03*
%TD*%
%TO.P,REF\u002A\u002A,1*%
%TO.N,N/C*%
X174700000Y-94400000D03*
%TD*%
D11*
%TO.P,J1,S1,SHIELD*%
%TO.N,Net-(J1-PadS1)*%
X147730000Y-95380000D03*
D12*
X143560000Y-95380000D03*
D11*
X147730000Y-104020000D03*
D12*
X143560000Y-104020000D03*
%TD*%
D10*
%TO.P,REF\u002A\u002A,1*%
%TO.N,N/C*%
X174700000Y-119200000D03*
%TD*%
%TO.P,REF\u002A\u002A,1*%
%TO.N,N/C*%
X207100000Y-94400000D03*
%TD*%
D13*
%TO.N,+5VD*%
X170700000Y-91080000D03*
D14*
X151655000Y-98275000D03*
X162015000Y-96275000D03*
D13*
X164200000Y-91080000D03*
X151200000Y-91080000D03*
X196700000Y-91080000D03*
X203200000Y-91080000D03*
X157700000Y-91080000D03*
X214920000Y-95900000D03*
X216200000Y-91080000D03*
X183700000Y-91080000D03*
X190200000Y-91080000D03*
X214932500Y-115400000D03*
X144700000Y-91080000D03*
X177200000Y-91080000D03*
X214932500Y-108900000D03*
X209700000Y-91080000D03*
X214932500Y-102400000D03*
D14*
%TO.N,Net-(J1-PadA5)*%
X146800000Y-97900000D03*
X156455000Y-98275000D03*
%TO.N,D+*%
X146400000Y-105600000D03*
X146400000Y-114600000D03*
%TO.N,D-*%
X144200000Y-105600000D03*
X144200000Y-113000000D03*
%TO.N,Net-(J1-PadB5)*%
X152180000Y-100275000D03*
X147000000Y-101500000D03*
%TO.N,Net-(J1-PadS1)*%
X156455000Y-101475000D03*
%TO.N,MUX_OUT*%
X158200000Y-117400000D03*
X170100000Y-106887347D03*
%TO.N,S0*%
X180600000Y-107800000D03*
X158200000Y-116000000D03*
%TO.N,S1*%
X180535054Y-106802109D03*
X158200000Y-114400000D03*
%TO.N,S2*%
X178100000Y-101675190D03*
X158200000Y-113000000D03*
%TO.N,S3*%
X180900000Y-100950190D03*
X158200000Y-111400000D03*
%TD*%
D15*
%TO.N,S2*%
X176550000Y-103225190D02*
X176550000Y-104250000D01*
X176550000Y-104250000D02*
X167800000Y-113000000D01*
X167800000Y-113000000D02*
X158200000Y-113000000D01*
X178100000Y-101675190D02*
X176550000Y-103225190D01*
%TO.N,S3*%
X180900000Y-100950190D02*
X177649810Y-100950190D01*
X177649810Y-100950190D02*
X167200000Y-111400000D01*
X167200000Y-111400000D02*
X158200000Y-111400000D01*
%TO.N,S1*%
X180535054Y-106802109D02*
X180432945Y-106700000D01*
X180432945Y-106700000D02*
X175125305Y-106700000D01*
X167425305Y-114400000D02*
X158200000Y-114400000D01*
X175125305Y-106700000D02*
X167425305Y-114400000D01*
%TO.N,S0*%
X180600000Y-107800000D02*
X176000000Y-107800000D01*
X176000000Y-107800000D02*
X167800000Y-116000000D01*
X167800000Y-116000000D02*
X158200000Y-116000000D01*
%TO.N,MUX_OUT*%
X165212653Y-106887347D02*
X161425000Y-110675000D01*
X170100000Y-106887347D02*
X165212653Y-106887347D01*
X157325000Y-110675000D02*
X156900000Y-111100000D01*
X161425000Y-110675000D02*
X157325000Y-110675000D01*
X156900000Y-111100000D02*
X156900000Y-116100000D01*
X156900000Y-116100000D02*
X158200000Y-117400000D01*
D16*
%TO.N,+5VD*%
X151655000Y-98275000D02*
X153655000Y-96275000D01*
X153655000Y-96275000D02*
X162015000Y-96275000D01*
D17*
%TO.N,Net-(J1-PadA5)*%
X146800000Y-97900000D02*
X148175000Y-99275000D01*
X148175000Y-99275000D02*
X155455000Y-99275000D01*
X155455000Y-99275000D02*
X156455000Y-98275000D01*
%TO.N,D+*%
X146400000Y-105600000D02*
X146400000Y-114600000D01*
%TO.N,D-*%
X144200000Y-105600000D02*
X144200000Y-113000000D01*
%TO.N,Net-(J1-PadB5)*%
X150955000Y-101500000D02*
X152180000Y-100275000D01*
X147000000Y-101500000D02*
X150955000Y-101500000D01*
%TO.N,Net-(J1-PadS1)*%
X153910000Y-104020000D02*
X147730000Y-104020000D01*
X143560000Y-95380000D02*
X147730000Y-95380000D01*
X143560000Y-104020000D02*
X147730000Y-104020000D01*
X143560000Y-95380000D02*
X143560000Y-104020000D01*
X156455000Y-101475000D02*
X153910000Y-104020000D01*
%TD*%
%TA.AperFunction,Conductor*%
%TO.N,+5VD*%
G36*
X220432539Y-85830185D02*
G01*
X220478294Y-85882989D01*
X220489500Y-85934500D01*
X220489500Y-121776167D01*
X220469815Y-121843206D01*
X220417011Y-121888961D01*
X220365655Y-121900167D01*
X148900000Y-121989500D01*
X140734500Y-121989500D01*
X140667461Y-121969815D01*
X140621706Y-121917011D01*
X140610500Y-121865500D01*
X140610500Y-119199994D01*
X172286738Y-119199994D01*
X172286738Y-119200005D01*
X172305765Y-119502451D01*
X172305766Y-119502455D01*
X172305766Y-119502459D01*
X172305767Y-119502462D01*
X172362555Y-119800154D01*
X172362557Y-119800159D01*
X172456203Y-120088374D01*
X172456204Y-120088375D01*
X172456206Y-120088381D01*
X172585242Y-120362598D01*
X172585246Y-120362605D01*
X172585247Y-120362606D01*
X172747626Y-120618475D01*
X172747629Y-120618479D01*
X172747630Y-120618480D01*
X172940808Y-120851992D01*
X173161727Y-121059448D01*
X173161737Y-121059456D01*
X173406898Y-121237576D01*
X173406903Y-121237578D01*
X173406910Y-121237584D01*
X173672483Y-121383585D01*
X173672488Y-121383587D01*
X173672490Y-121383588D01*
X173672491Y-121383589D01*
X173954257Y-121495148D01*
X173954260Y-121495149D01*
X174052107Y-121520271D01*
X174247800Y-121570516D01*
X174395028Y-121589115D01*
X174548460Y-121608499D01*
X174548466Y-121608499D01*
X174548470Y-121608500D01*
X174548472Y-121608500D01*
X174851528Y-121608500D01*
X174851530Y-121608500D01*
X174851535Y-121608499D01*
X174851539Y-121608499D01*
X174931357Y-121598415D01*
X175152200Y-121570516D01*
X175445739Y-121495149D01*
X175445742Y-121495148D01*
X175727508Y-121383589D01*
X175727509Y-121383588D01*
X175727507Y-121383588D01*
X175727517Y-121383585D01*
X175993090Y-121237584D01*
X176238271Y-121059450D01*
X176459192Y-120851992D01*
X176652370Y-120618480D01*
X176814758Y-120362598D01*
X176943794Y-120088381D01*
X177037445Y-119800154D01*
X177094233Y-119502462D01*
X177113262Y-119200000D01*
X177113262Y-119199994D01*
X204786738Y-119199994D01*
X204786738Y-119200005D01*
X204805765Y-119502451D01*
X204805766Y-119502455D01*
X204805766Y-119502459D01*
X204805767Y-119502462D01*
X204862555Y-119800154D01*
X204862557Y-119800159D01*
X204956203Y-120088374D01*
X204956204Y-120088375D01*
X204956206Y-120088381D01*
X205085242Y-120362598D01*
X205085246Y-120362605D01*
X205085247Y-120362606D01*
X205247626Y-120618475D01*
X205247629Y-120618479D01*
X205247630Y-120618480D01*
X205440808Y-120851992D01*
X205661727Y-121059448D01*
X205661737Y-121059456D01*
X205906898Y-121237576D01*
X205906903Y-121237578D01*
X205906910Y-121237584D01*
X206172483Y-121383585D01*
X206172488Y-121383587D01*
X206172490Y-121383588D01*
X206172491Y-121383589D01*
X206454257Y-121495148D01*
X206454260Y-121495149D01*
X206552107Y-121520271D01*
X206747800Y-121570516D01*
X206895028Y-121589115D01*
X207048460Y-121608499D01*
X207048466Y-121608499D01*
X207048470Y-121608500D01*
X207048472Y-121608500D01*
X207351528Y-121608500D01*
X207351530Y-121608500D01*
X207351535Y-121608499D01*
X207351539Y-121608499D01*
X207431357Y-121598415D01*
X207652200Y-121570516D01*
X207945739Y-121495149D01*
X207945742Y-121495148D01*
X208227508Y-121383589D01*
X208227509Y-121383588D01*
X208227507Y-121383588D01*
X208227517Y-121383585D01*
X208493090Y-121237584D01*
X208738271Y-121059450D01*
X208959192Y-120851992D01*
X209152370Y-120618480D01*
X209314758Y-120362598D01*
X209443794Y-120088381D01*
X209537445Y-119800154D01*
X209594233Y-119502462D01*
X209613262Y-119200000D01*
X209594233Y-118897538D01*
X209537445Y-118599846D01*
X209443794Y-118311619D01*
X209314758Y-118037402D01*
X209152370Y-117781520D01*
X208959192Y-117548008D01*
X208738271Y-117340550D01*
X208738268Y-117340548D01*
X208738262Y-117340543D01*
X208493101Y-117162423D01*
X208493094Y-117162418D01*
X208493090Y-117162416D01*
X208227517Y-117016415D01*
X208227514Y-117016413D01*
X208227509Y-117016411D01*
X208227508Y-117016410D01*
X207945742Y-116904851D01*
X207945739Y-116904850D01*
X207652197Y-116829483D01*
X207351539Y-116791500D01*
X207351530Y-116791500D01*
X207048470Y-116791500D01*
X207048460Y-116791500D01*
X206747802Y-116829483D01*
X206454260Y-116904850D01*
X206454257Y-116904851D01*
X206172491Y-117016410D01*
X206172490Y-117016411D01*
X205906910Y-117162416D01*
X205906898Y-117162423D01*
X205661737Y-117340543D01*
X205661727Y-117340551D01*
X205440810Y-117548006D01*
X205247626Y-117781524D01*
X205085247Y-118037393D01*
X205085244Y-118037397D01*
X205085242Y-118037402D01*
X204976358Y-118268794D01*
X204956204Y-118311624D01*
X204956203Y-118311625D01*
X204866850Y-118586626D01*
X204862555Y-118599846D01*
X204805767Y-118897538D01*
X204805766Y-118897544D01*
X204805765Y-118897548D01*
X204786738Y-119199994D01*
X177113262Y-119199994D01*
X177094233Y-118897538D01*
X177037445Y-118599846D01*
X176943794Y-118311619D01*
X176814758Y-118037402D01*
X176652370Y-117781520D01*
X176459192Y-117548008D01*
X176238271Y-117340550D01*
X176238268Y-117340548D01*
X176238262Y-117340543D01*
X175993101Y-117162423D01*
X175993094Y-117162418D01*
X175993090Y-117162416D01*
X175727517Y-117016415D01*
X175727514Y-117016413D01*
X175727509Y-117016411D01*
X175727508Y-117016410D01*
X175445742Y-116904851D01*
X175445739Y-116904850D01*
X175152197Y-116829483D01*
X174851539Y-116791500D01*
X174851530Y-116791500D01*
X174548470Y-116791500D01*
X174548460Y-116791500D01*
X174247802Y-116829483D01*
X173954260Y-116904850D01*
X173954257Y-116904851D01*
X173672491Y-117016410D01*
X173672490Y-117016411D01*
X173406910Y-117162416D01*
X173406898Y-117162423D01*
X173161737Y-117340543D01*
X173161727Y-117340551D01*
X172940810Y-117548006D01*
X172747626Y-117781524D01*
X172585247Y-118037393D01*
X172585244Y-118037397D01*
X172585242Y-118037402D01*
X172476358Y-118268794D01*
X172456204Y-118311624D01*
X172456203Y-118311625D01*
X172366850Y-118586626D01*
X172362555Y-118599846D01*
X172305767Y-118897538D01*
X172305766Y-118897544D01*
X172305765Y-118897548D01*
X172286738Y-119199994D01*
X140610500Y-119199994D01*
X140610500Y-95285591D01*
X142201500Y-95285591D01*
X142201500Y-95474408D01*
X142238332Y-95659576D01*
X142238334Y-95659584D01*
X142310586Y-95834017D01*
X142310591Y-95834026D01*
X142415483Y-95991007D01*
X142415486Y-95991011D01*
X142548988Y-96124513D01*
X142548992Y-96124516D01*
X142705973Y-96229408D01*
X142705986Y-96229415D01*
X142775885Y-96258367D01*
X142874953Y-96299403D01*
X142929356Y-96343242D01*
X142951421Y-96409536D01*
X142951500Y-96413963D01*
X142951500Y-102986036D01*
X142931815Y-103053075D01*
X142879011Y-103098830D01*
X142874959Y-103100594D01*
X142856492Y-103108243D01*
X142705982Y-103170586D01*
X142705973Y-103170591D01*
X142548992Y-103275483D01*
X142548988Y-103275486D01*
X142415486Y-103408988D01*
X142415483Y-103408992D01*
X142310591Y-103565973D01*
X142310586Y-103565982D01*
X142238334Y-103740415D01*
X142238332Y-103740423D01*
X142201500Y-103925591D01*
X142201500Y-104114408D01*
X142238332Y-104299576D01*
X142238334Y-104299584D01*
X142310586Y-104474017D01*
X142310591Y-104474026D01*
X142415483Y-104631007D01*
X142415486Y-104631011D01*
X142548988Y-104764513D01*
X142548992Y-104764516D01*
X142705973Y-104869408D01*
X142705979Y-104869411D01*
X142705980Y-104869412D01*
X142880416Y-104941666D01*
X143065591Y-104978499D01*
X143065595Y-104978500D01*
X143065596Y-104978500D01*
X143295004Y-104978500D01*
X143362043Y-104998185D01*
X143407798Y-105050989D01*
X143417742Y-105120147D01*
X143402391Y-105164500D01*
X143365473Y-105228443D01*
X143365470Y-105228450D01*
X143306459Y-105410068D01*
X143306458Y-105410072D01*
X143286496Y-105600000D01*
X143306458Y-105789928D01*
X143306459Y-105789931D01*
X143365470Y-105971549D01*
X143365473Y-105971556D01*
X143460960Y-106136944D01*
X143559650Y-106246550D01*
X143589880Y-106309541D01*
X143591500Y-106329522D01*
X143591500Y-112270477D01*
X143571815Y-112337516D01*
X143559650Y-112353449D01*
X143460959Y-112463057D01*
X143365473Y-112628443D01*
X143365470Y-112628450D01*
X143306459Y-112810068D01*
X143306458Y-112810072D01*
X143286496Y-113000000D01*
X143306458Y-113189928D01*
X143306459Y-113189931D01*
X143365470Y-113371549D01*
X143365473Y-113371556D01*
X143460960Y-113536944D01*
X143588747Y-113678866D01*
X143743248Y-113791118D01*
X143917712Y-113868794D01*
X144104513Y-113908500D01*
X144295487Y-113908500D01*
X144482288Y-113868794D01*
X144656752Y-113791118D01*
X144811253Y-113678866D01*
X144939040Y-113536944D01*
X145034527Y-113371556D01*
X145093542Y-113189928D01*
X145113504Y-113000000D01*
X145093542Y-112810072D01*
X145034527Y-112628444D01*
X144939040Y-112463056D01*
X144840350Y-112353449D01*
X144810120Y-112290457D01*
X144808500Y-112270477D01*
X144808500Y-106329522D01*
X144828185Y-106262483D01*
X144840350Y-106246550D01*
X144939040Y-106136944D01*
X145034527Y-105971556D01*
X145093542Y-105789928D01*
X145113504Y-105600000D01*
X145093542Y-105410072D01*
X145034527Y-105228444D01*
X144939040Y-105063056D01*
X144811253Y-104921134D01*
X144717223Y-104852817D01*
X144674559Y-104797488D01*
X144668580Y-104727874D01*
X144701186Y-104666079D01*
X144762025Y-104631722D01*
X144790110Y-104628500D01*
X145809890Y-104628500D01*
X145876929Y-104648185D01*
X145922684Y-104700989D01*
X145932628Y-104770147D01*
X145903603Y-104833703D01*
X145882777Y-104852816D01*
X145859936Y-104869412D01*
X145788745Y-104921135D01*
X145660959Y-105063057D01*
X145565473Y-105228443D01*
X145565470Y-105228450D01*
X145506459Y-105410068D01*
X145506458Y-105410072D01*
X145486496Y-105600000D01*
X145506458Y-105789928D01*
X145506459Y-105789931D01*
X145565470Y-105971549D01*
X145565473Y-105971556D01*
X145660960Y-106136944D01*
X145759650Y-106246550D01*
X145789880Y-106309541D01*
X145791500Y-106329522D01*
X145791500Y-113870477D01*
X145771815Y-113937516D01*
X145759650Y-113953449D01*
X145660959Y-114063057D01*
X145565473Y-114228443D01*
X145565470Y-114228450D01*
X145506459Y-114410068D01*
X145506458Y-114410072D01*
X145486496Y-114600000D01*
X145506458Y-114789928D01*
X145506459Y-114789931D01*
X145565470Y-114971549D01*
X145565473Y-114971556D01*
X145660960Y-115136944D01*
X145788747Y-115278866D01*
X145943248Y-115391118D01*
X146117712Y-115468794D01*
X146304513Y-115508500D01*
X146495487Y-115508500D01*
X146682288Y-115468794D01*
X146856752Y-115391118D01*
X147011253Y-115278866D01*
X147139040Y-115136944D01*
X147234527Y-114971556D01*
X147293542Y-114789928D01*
X147313504Y-114600000D01*
X147293542Y-114410072D01*
X147234527Y-114228444D01*
X147139040Y-114063056D01*
X147040350Y-113953449D01*
X147010120Y-113890457D01*
X147008500Y-113870477D01*
X147008500Y-111037601D01*
X156266500Y-111037601D01*
X156266500Y-116162398D01*
X156290843Y-116284777D01*
X156290845Y-116284785D01*
X156338598Y-116400072D01*
X156338603Y-116400081D01*
X156407928Y-116503832D01*
X156407931Y-116503836D01*
X157253379Y-117349284D01*
X157286864Y-117410607D01*
X157289018Y-117423999D01*
X157306458Y-117589928D01*
X157306459Y-117589931D01*
X157365470Y-117771549D01*
X157365473Y-117771556D01*
X157460960Y-117936944D01*
X157588747Y-118078866D01*
X157743248Y-118191118D01*
X157917712Y-118268794D01*
X158104513Y-118308500D01*
X158295487Y-118308500D01*
X158482288Y-118268794D01*
X158656752Y-118191118D01*
X158811253Y-118078866D01*
X158939040Y-117936944D01*
X159034527Y-117771556D01*
X159093542Y-117589928D01*
X159113504Y-117400000D01*
X159093542Y-117210072D01*
X159034527Y-117028444D01*
X158939040Y-116863056D01*
X158918703Y-116840470D01*
X158888475Y-116777481D01*
X158897100Y-116708146D01*
X158941841Y-116654480D01*
X159008494Y-116633522D01*
X159010855Y-116633500D01*
X167862395Y-116633500D01*
X167862396Y-116633499D01*
X167984785Y-116609155D01*
X168100075Y-116561400D01*
X168203833Y-116492071D01*
X176226085Y-108469819D01*
X176287408Y-108436334D01*
X176313766Y-108433500D01*
X179892691Y-108433500D01*
X179959730Y-108453185D01*
X179984840Y-108474527D01*
X179988747Y-108478866D01*
X180143248Y-108591118D01*
X180317712Y-108668794D01*
X180504513Y-108708500D01*
X180695487Y-108708500D01*
X180882288Y-108668794D01*
X181056752Y-108591118D01*
X181211253Y-108478866D01*
X181339040Y-108336944D01*
X181434527Y-108171556D01*
X181493542Y-107989928D01*
X181513504Y-107800000D01*
X181493542Y-107610072D01*
X181434527Y-107428444D01*
X181364301Y-107306809D01*
X181347828Y-107238909D01*
X181364304Y-107182804D01*
X181369581Y-107173665D01*
X181428596Y-106992037D01*
X181448558Y-106802109D01*
X181428596Y-106612181D01*
X181369581Y-106430553D01*
X181274094Y-106265165D01*
X181146307Y-106123243D01*
X180991806Y-106010991D01*
X180817342Y-105933315D01*
X180817340Y-105933314D01*
X180630541Y-105893609D01*
X180439567Y-105893609D01*
X180252768Y-105933314D01*
X180078297Y-106010993D01*
X180034495Y-106042818D01*
X179968689Y-106066298D01*
X179961610Y-106066500D01*
X175928767Y-106066500D01*
X175861728Y-106046815D01*
X175815973Y-105994011D01*
X175806029Y-105924853D01*
X175835054Y-105861297D01*
X175841086Y-105854819D01*
X177042072Y-104653833D01*
X177072853Y-104607766D01*
X177111401Y-104550075D01*
X177159155Y-104434784D01*
X177167342Y-104393628D01*
X177183500Y-104312394D01*
X177183500Y-103538956D01*
X177203185Y-103471917D01*
X177219819Y-103451275D01*
X178051085Y-102620009D01*
X178112408Y-102586524D01*
X178138766Y-102583690D01*
X178195487Y-102583690D01*
X178382288Y-102543984D01*
X178556752Y-102466308D01*
X178711253Y-102354056D01*
X178839040Y-102212134D01*
X178934527Y-102046746D01*
X178993542Y-101865118D01*
X179011450Y-101694726D01*
X179038035Y-101630114D01*
X179095332Y-101590129D01*
X179134771Y-101583690D01*
X180192691Y-101583690D01*
X180259730Y-101603375D01*
X180284840Y-101624717D01*
X180288747Y-101629056D01*
X180443248Y-101741308D01*
X180617712Y-101818984D01*
X180804513Y-101858690D01*
X180995487Y-101858690D01*
X181182288Y-101818984D01*
X181356752Y-101741308D01*
X181511253Y-101629056D01*
X181639040Y-101487134D01*
X181734527Y-101321746D01*
X181793542Y-101140118D01*
X181813504Y-100950190D01*
X181793542Y-100760262D01*
X181734527Y-100578634D01*
X181639040Y-100413246D01*
X181511253Y-100271324D01*
X181356752Y-100159072D01*
X181182288Y-100081396D01*
X181182286Y-100081395D01*
X180995487Y-100041690D01*
X180804513Y-100041690D01*
X180617714Y-100081395D01*
X180443246Y-100159073D01*
X180288745Y-100271325D01*
X180284840Y-100275663D01*
X180225354Y-100312311D01*
X180192691Y-100316690D01*
X177587411Y-100316690D01*
X177465032Y-100341033D01*
X177465024Y-100341035D01*
X177349737Y-100388788D01*
X177349728Y-100388793D01*
X177245977Y-100458118D01*
X177245973Y-100458121D01*
X171139845Y-106564249D01*
X171078522Y-106597734D01*
X171008830Y-106592750D01*
X170952897Y-106550878D01*
X170937669Y-106521512D01*
X170937173Y-106521734D01*
X170934528Y-106515795D01*
X170934527Y-106515791D01*
X170839040Y-106350403D01*
X170711253Y-106208481D01*
X170556752Y-106096229D01*
X170382288Y-106018553D01*
X170382286Y-106018552D01*
X170195487Y-105978847D01*
X170004513Y-105978847D01*
X169817714Y-106018552D01*
X169817712Y-106018553D01*
X169710475Y-106066298D01*
X169643246Y-106096230D01*
X169488745Y-106208482D01*
X169484840Y-106212820D01*
X169425354Y-106249468D01*
X169392691Y-106253847D01*
X165150254Y-106253847D01*
X165027875Y-106278190D01*
X165027867Y-106278192D01*
X164912580Y-106325945D01*
X164912571Y-106325950D01*
X164808820Y-106395275D01*
X164808816Y-106395278D01*
X161198915Y-110005181D01*
X161137592Y-110038666D01*
X161111234Y-110041500D01*
X157262601Y-110041500D01*
X157140222Y-110065842D01*
X157140213Y-110065845D01*
X157024924Y-110113599D01*
X157024921Y-110113600D01*
X156921167Y-110182927D01*
X156921163Y-110182930D01*
X156549277Y-110554819D01*
X156496167Y-110607929D01*
X156452047Y-110652049D01*
X156407927Y-110696168D01*
X156338603Y-110799918D01*
X156338598Y-110799927D01*
X156290845Y-110915214D01*
X156290843Y-110915222D01*
X156266500Y-111037601D01*
X147008500Y-111037601D01*
X147008500Y-106329522D01*
X147028185Y-106262483D01*
X147040350Y-106246550D01*
X147139040Y-106136944D01*
X147234527Y-105971556D01*
X147293542Y-105789928D01*
X147313504Y-105600000D01*
X147293542Y-105410072D01*
X147234527Y-105228444D01*
X147197609Y-105164500D01*
X147181136Y-105096599D01*
X147203989Y-105030572D01*
X147258910Y-104987382D01*
X147304996Y-104978500D01*
X148374405Y-104978500D01*
X148374406Y-104978499D01*
X148559584Y-104941666D01*
X148734020Y-104869412D01*
X148891008Y-104764516D01*
X148990706Y-104664817D01*
X149052027Y-104631334D01*
X149078386Y-104628500D01*
X153990109Y-104628500D01*
X153990110Y-104628500D01*
X153990111Y-104628500D01*
X154067491Y-104607766D01*
X154144873Y-104587032D01*
X154283627Y-104506922D01*
X156370730Y-102419819D01*
X156432053Y-102386334D01*
X156458411Y-102383500D01*
X156550487Y-102383500D01*
X156737288Y-102343794D01*
X156911752Y-102266118D01*
X157066253Y-102153866D01*
X157194040Y-102011944D01*
X157289527Y-101846556D01*
X157348542Y-101664928D01*
X157368504Y-101475000D01*
X157348542Y-101285072D01*
X157289527Y-101103444D01*
X157194040Y-100938056D01*
X157066253Y-100796134D01*
X156911752Y-100683882D01*
X156737288Y-100606206D01*
X156737286Y-100606205D01*
X156550487Y-100566500D01*
X156359513Y-100566500D01*
X156172714Y-100606205D01*
X155998246Y-100683883D01*
X155843745Y-100796135D01*
X155715959Y-100938057D01*
X155620473Y-101103443D01*
X155620470Y-101103450D01*
X155582660Y-101219819D01*
X155561458Y-101285072D01*
X155541496Y-101475000D01*
X155541496Y-101475002D01*
X155541496Y-101476592D01*
X155541235Y-101477477D01*
X155540817Y-101481463D01*
X155540088Y-101481386D01*
X155521811Y-101543631D01*
X155505177Y-101564273D01*
X153694270Y-103375181D01*
X153632947Y-103408666D01*
X153606589Y-103411500D01*
X149078386Y-103411500D01*
X149011347Y-103391815D01*
X148990709Y-103375185D01*
X148891008Y-103275484D01*
X148891007Y-103275483D01*
X148891006Y-103275482D01*
X148734026Y-103170591D01*
X148734017Y-103170586D01*
X148559584Y-103098334D01*
X148559576Y-103098332D01*
X148374408Y-103061500D01*
X148374404Y-103061500D01*
X147744847Y-103061500D01*
X147677808Y-103041815D01*
X147632053Y-102989011D01*
X147622109Y-102919853D01*
X147637460Y-102875501D01*
X147677092Y-102806853D01*
X147695704Y-102774617D01*
X147728300Y-102652969D01*
X147728300Y-102527031D01*
X147695704Y-102405383D01*
X147632735Y-102296317D01*
X147631686Y-102294500D01*
X147615213Y-102226600D01*
X147638066Y-102160573D01*
X147692987Y-102117382D01*
X147739073Y-102108500D01*
X151035109Y-102108500D01*
X151035110Y-102108500D01*
X151035111Y-102108500D01*
X151145121Y-102079023D01*
X151189873Y-102067032D01*
X151328627Y-101986922D01*
X152095730Y-101219819D01*
X152157053Y-101186334D01*
X152183411Y-101183500D01*
X152275487Y-101183500D01*
X152462288Y-101143794D01*
X152636752Y-101066118D01*
X152791253Y-100953866D01*
X152919040Y-100811944D01*
X153014527Y-100646556D01*
X153073542Y-100464928D01*
X153093504Y-100275000D01*
X153073542Y-100085072D01*
X153072347Y-100081395D01*
X153060788Y-100045817D01*
X153058793Y-99975976D01*
X153094874Y-99916143D01*
X153157575Y-99885316D01*
X153178719Y-99883500D01*
X155535109Y-99883500D01*
X155535110Y-99883500D01*
X155535111Y-99883500D01*
X155612491Y-99862766D01*
X155689873Y-99842032D01*
X155828627Y-99761922D01*
X156370730Y-99219819D01*
X156432053Y-99186334D01*
X156458411Y-99183500D01*
X156550487Y-99183500D01*
X156737288Y-99143794D01*
X156911752Y-99066118D01*
X157066253Y-98953866D01*
X157194040Y-98811944D01*
X157289527Y-98646556D01*
X157348542Y-98464928D01*
X157368504Y-98275000D01*
X157348542Y-98085072D01*
X157289527Y-97903444D01*
X157194040Y-97738056D01*
X157066253Y-97596134D01*
X156911752Y-97483882D01*
X156737288Y-97406206D01*
X156737286Y-97406205D01*
X156550487Y-97366500D01*
X156359513Y-97366500D01*
X156172714Y-97406205D01*
X155998246Y-97483883D01*
X155843745Y-97596135D01*
X155715959Y-97738057D01*
X155620473Y-97903443D01*
X155620470Y-97903450D01*
X155561459Y-98085068D01*
X155561458Y-98085072D01*
X155541859Y-98271549D01*
X155541496Y-98275002D01*
X155541496Y-98276592D01*
X155541235Y-98277477D01*
X155540817Y-98281463D01*
X155540088Y-98281386D01*
X155521811Y-98343631D01*
X155505177Y-98364273D01*
X155239270Y-98630181D01*
X155177947Y-98663666D01*
X155151589Y-98666500D01*
X148478411Y-98666500D01*
X148411372Y-98646815D01*
X148390730Y-98630181D01*
X147749823Y-97989274D01*
X147716338Y-97927951D01*
X147713504Y-97901593D01*
X147713504Y-97900003D01*
X147713504Y-97900000D01*
X147693542Y-97710072D01*
X147634527Y-97528444D01*
X147539040Y-97363056D01*
X147535222Y-97357801D01*
X147536267Y-97357041D01*
X147509050Y-97300337D01*
X147517672Y-97231002D01*
X147543743Y-97192674D01*
X147632735Y-97103683D01*
X147695704Y-96994617D01*
X147728300Y-96872969D01*
X147728300Y-96747031D01*
X147695704Y-96625383D01*
X147695700Y-96625376D01*
X147637460Y-96524499D01*
X147620987Y-96456599D01*
X147643840Y-96390572D01*
X147698761Y-96347382D01*
X147744847Y-96338500D01*
X148374405Y-96338500D01*
X148374406Y-96338499D01*
X148559584Y-96301666D01*
X148734020Y-96229412D01*
X148891008Y-96124516D01*
X149024516Y-95991008D01*
X149129412Y-95834020D01*
X149201666Y-95659584D01*
X149238500Y-95474404D01*
X149238500Y-95285596D01*
X149201666Y-95100416D01*
X149129412Y-94925980D01*
X149129411Y-94925979D01*
X149129408Y-94925973D01*
X149024516Y-94768992D01*
X149024513Y-94768988D01*
X148891011Y-94635486D01*
X148891007Y-94635483D01*
X148734026Y-94530591D01*
X148734017Y-94530586D01*
X148559584Y-94458334D01*
X148559576Y-94458332D01*
X148374408Y-94421500D01*
X148374404Y-94421500D01*
X147085596Y-94421500D01*
X147085591Y-94421500D01*
X146900423Y-94458332D01*
X146900415Y-94458334D01*
X146725982Y-94530586D01*
X146725973Y-94530591D01*
X146568993Y-94635482D01*
X146519144Y-94685331D01*
X146469293Y-94735182D01*
X146407973Y-94768666D01*
X146381614Y-94771500D01*
X144758386Y-94771500D01*
X144691347Y-94751815D01*
X144670709Y-94735185D01*
X144571008Y-94635484D01*
X144571007Y-94635483D01*
X144571006Y-94635482D01*
X144414026Y-94530591D01*
X144414017Y-94530586D01*
X144239584Y-94458334D01*
X144239576Y-94458332D01*
X144054408Y-94421500D01*
X144054404Y-94421500D01*
X143065596Y-94421500D01*
X143065591Y-94421500D01*
X142880423Y-94458332D01*
X142880415Y-94458334D01*
X142705982Y-94530586D01*
X142705973Y-94530591D01*
X142548992Y-94635483D01*
X142548988Y-94635486D01*
X142415486Y-94768988D01*
X142415483Y-94768992D01*
X142310591Y-94925973D01*
X142310586Y-94925982D01*
X142238334Y-95100415D01*
X142238332Y-95100423D01*
X142201500Y-95285591D01*
X140610500Y-95285591D01*
X140610500Y-94399994D01*
X172286738Y-94399994D01*
X172286738Y-94400005D01*
X172305765Y-94702451D01*
X172305766Y-94702455D01*
X172305766Y-94702459D01*
X172305767Y-94702462D01*
X172362555Y-95000154D01*
X172362557Y-95000159D01*
X172456203Y-95288374D01*
X172456204Y-95288375D01*
X172456206Y-95288381D01*
X172585242Y-95562598D01*
X172585246Y-95562605D01*
X172585247Y-95562606D01*
X172747626Y-95818475D01*
X172747629Y-95818479D01*
X172747630Y-95818480D01*
X172940808Y-96051992D01*
X173129742Y-96229412D01*
X173161727Y-96259448D01*
X173161737Y-96259456D01*
X173406898Y-96437576D01*
X173406903Y-96437578D01*
X173406910Y-96437584D01*
X173672483Y-96583585D01*
X173672488Y-96583587D01*
X173672490Y-96583588D01*
X173672491Y-96583589D01*
X173954257Y-96695148D01*
X173954260Y-96695149D01*
X174052107Y-96720271D01*
X174247800Y-96770516D01*
X174395028Y-96789115D01*
X174548460Y-96808499D01*
X174548466Y-96808499D01*
X174548470Y-96808500D01*
X174548472Y-96808500D01*
X174851528Y-96808500D01*
X174851530Y-96808500D01*
X174851535Y-96808499D01*
X174851539Y-96808499D01*
X174931357Y-96798415D01*
X175152200Y-96770516D01*
X175445739Y-96695149D01*
X175445742Y-96695148D01*
X175727508Y-96583589D01*
X175727509Y-96583588D01*
X175727507Y-96583588D01*
X175727517Y-96583585D01*
X175993090Y-96437584D01*
X176238271Y-96259450D01*
X176459192Y-96051992D01*
X176652370Y-95818480D01*
X176814758Y-95562598D01*
X176943794Y-95288381D01*
X177037445Y-95000154D01*
X177094233Y-94702462D01*
X177105046Y-94530591D01*
X177113262Y-94400005D01*
X177113262Y-94399994D01*
X204686738Y-94399994D01*
X204686738Y-94400005D01*
X204705765Y-94702451D01*
X204705766Y-94702455D01*
X204705766Y-94702459D01*
X204705767Y-94702462D01*
X204762555Y-95000154D01*
X204762557Y-95000159D01*
X204856203Y-95288374D01*
X204856204Y-95288375D01*
X204856206Y-95288381D01*
X204985242Y-95562598D01*
X204985246Y-95562605D01*
X204985247Y-95562606D01*
X205147626Y-95818475D01*
X205147629Y-95818479D01*
X205147630Y-95818480D01*
X205340808Y-96051992D01*
X205529742Y-96229412D01*
X205561727Y-96259448D01*
X205561737Y-96259456D01*
X205806898Y-96437576D01*
X205806903Y-96437578D01*
X205806910Y-96437584D01*
X206072483Y-96583585D01*
X206072488Y-96583587D01*
X206072490Y-96583588D01*
X206072491Y-96583589D01*
X206354257Y-96695148D01*
X206354260Y-96695149D01*
X206452107Y-96720271D01*
X206647800Y-96770516D01*
X206795028Y-96789115D01*
X206948460Y-96808499D01*
X206948466Y-96808499D01*
X206948470Y-96808500D01*
X206948472Y-96808500D01*
X207251528Y-96808500D01*
X207251530Y-96808500D01*
X207251535Y-96808499D01*
X207251539Y-96808499D01*
X207331357Y-96798415D01*
X207552200Y-96770516D01*
X207845739Y-96695149D01*
X207845742Y-96695148D01*
X208127508Y-96583589D01*
X208127509Y-96583588D01*
X208127507Y-96583588D01*
X208127517Y-96583585D01*
X208393090Y-96437584D01*
X208638271Y-96259450D01*
X208859192Y-96051992D01*
X209052370Y-95818480D01*
X209214758Y-95562598D01*
X209343794Y-95288381D01*
X209437445Y-95000154D01*
X209494233Y-94702462D01*
X209505046Y-94530591D01*
X209513262Y-94400005D01*
X209513262Y-94399994D01*
X209494234Y-94097548D01*
X209494233Y-94097544D01*
X209494233Y-94097538D01*
X209437445Y-93799846D01*
X209343794Y-93511619D01*
X209214758Y-93237402D01*
X209052370Y-92981520D01*
X208859192Y-92748008D01*
X208638271Y-92540550D01*
X208638268Y-92540548D01*
X208638262Y-92540543D01*
X208393101Y-92362423D01*
X208393094Y-92362418D01*
X208393090Y-92362416D01*
X208127517Y-92216415D01*
X208127514Y-92216413D01*
X208127509Y-92216411D01*
X208127508Y-92216410D01*
X207845742Y-92104851D01*
X207845739Y-92104850D01*
X207552197Y-92029483D01*
X207251539Y-91991500D01*
X207251530Y-91991500D01*
X206948470Y-91991500D01*
X206948460Y-91991500D01*
X206647802Y-92029483D01*
X206354260Y-92104850D01*
X206354257Y-92104851D01*
X206072491Y-92216410D01*
X206072490Y-92216411D01*
X205806910Y-92362416D01*
X205806898Y-92362423D01*
X205561737Y-92540543D01*
X205561727Y-92540551D01*
X205340810Y-92748006D01*
X205147626Y-92981524D01*
X204985247Y-93237393D01*
X204985244Y-93237397D01*
X204985242Y-93237402D01*
X204856206Y-93511619D01*
X204856204Y-93511624D01*
X204856203Y-93511625D01*
X204766850Y-93786626D01*
X204762555Y-93799846D01*
X204705767Y-94097538D01*
X204705766Y-94097544D01*
X204705765Y-94097548D01*
X204686738Y-94399994D01*
X177113262Y-94399994D01*
X177094234Y-94097548D01*
X177094233Y-94097544D01*
X177094233Y-94097538D01*
X177037445Y-93799846D01*
X176943794Y-93511619D01*
X176814758Y-93237402D01*
X176652370Y-92981520D01*
X176459192Y-92748008D01*
X176238271Y-92540550D01*
X176238268Y-92540548D01*
X176238262Y-92540543D01*
X175993101Y-92362423D01*
X175993094Y-92362418D01*
X175993090Y-92362416D01*
X175727517Y-92216415D01*
X175727514Y-92216413D01*
X175727509Y-92216411D01*
X175727508Y-92216410D01*
X175445742Y-92104851D01*
X175445739Y-92104850D01*
X175152197Y-92029483D01*
X174851539Y-91991500D01*
X174851530Y-91991500D01*
X174548470Y-91991500D01*
X174548460Y-91991500D01*
X174247802Y-92029483D01*
X173954260Y-92104850D01*
X173954257Y-92104851D01*
X173672491Y-92216410D01*
X173672490Y-92216411D01*
X173406910Y-92362416D01*
X173406898Y-92362423D01*
X173161737Y-92540543D01*
X173161727Y-92540551D01*
X172940810Y-92748006D01*
X172747626Y-92981524D01*
X172585247Y-93237393D01*
X172585244Y-93237397D01*
X172585242Y-93237402D01*
X172456206Y-93511619D01*
X172456204Y-93511624D01*
X172456203Y-93511625D01*
X172366850Y-93786626D01*
X172362555Y-93799846D01*
X172305767Y-94097538D01*
X172305766Y-94097544D01*
X172305765Y-94097548D01*
X172286738Y-94399994D01*
X140610500Y-94399994D01*
X140610500Y-85934500D01*
X140630185Y-85867461D01*
X140682989Y-85821706D01*
X140734500Y-85810500D01*
X220365500Y-85810500D01*
X220432539Y-85830185D01*
G37*
%TD.AperFunction*%
%TD*%
M02*
